<svg xmlns="http://www.w3.org/2000/svg" width="84" height="84" viewBox="0 0 84 84">
  <g id="Grupo_1179604" data-name="Grupo 1179604" transform="translate(-186 -323.283)">
    <g id="Grupo_1179298" data-name="Grupo 1179298">
      <rect id="Rectángulo_454628" data-name="Rectángulo 454628" width="84" height="84" rx="5" transform="translate(186 323.283)" fill="#ffb900"/>
      <g id="Grupo_1179477" data-name="Grupo 1179477" transform="translate(191.637 296.897)">
        <path id="Trazado_1001485" data-name="Trazado 1001485" d="M85.586,93.809a8.947,8.947,0,0,1,.3-2.313H39.239a2.163,2.163,0,0,0-2.163,2.163v5.185H87.138A8.9,8.9,0,0,1,85.586,93.809Z" transform="translate(-31.81 -46.476)" fill="#004e89"/>
        <path id="Trazado_1001487" data-name="Trazado 1001487" d="M94.528,146.275a8.932,8.932,0,0,1-7.483-4.049H37.076v16.709H54.424a.58.58,0,0,1,.579.579V173.77a.579.579,0,0,1-.579.579H37.076v4.116a2.163,2.163,0,0,0,2.163,2.163H49.458v-1.46a.353.353,0,0,1,.353-.353H64.838a.353.353,0,0,1,.353.353v1.46h8.661l.948-.948a1.579,1.579,0,0,0,.344-1.726l-.291-.7a1.579,1.579,0,0,0-1.464-.978H70.749a1.3,1.3,0,0,1-1.3-1.3v-3.446a1.3,1.3,0,0,1,1.3-1.3H73.39a1.579,1.579,0,0,0,1.464-.978l.291-.7a1.579,1.579,0,0,0-.344-1.726l-1.867-1.867a1.3,1.3,0,0,1,0-1.838l2.437-2.437a1.3,1.3,0,0,1,1.838,0l1.867,1.867a1.583,1.583,0,0,0,1.726.344l.7-.291a1.579,1.579,0,0,0,.978-1.464V158.5a1.3,1.3,0,0,1,1.3-1.3h3.446a1.3,1.3,0,0,1,1.3,1.3v2.641a1.579,1.579,0,0,0,.978,1.464l.7.291a1.583,1.583,0,0,0,1.726-.344L93.8,160.68a1.291,1.291,0,0,1,.9-.38V146.271c-.058,0-.116,0-.174,0Z" transform="translate(-31.81 -90.001)" fill="#eaf9fa"/>
        <g id="Grupo_1179455" data-name="Grupo 1179455" transform="translate(15.241 39.043)">
          <path id="Trazado_1001490" data-name="Trazado 1001490" d="M114.671,79.313a.579.579,0,0,1,.579.579V92.309H129.7v-.4a1.3,1.3,0,0,1,1.3-1.3h2.641a1.579,1.579,0,0,0,1.464-.978l.291-.7a1.579,1.579,0,0,0-.344-1.726l-1.867-1.867a1.3,1.3,0,0,1,0-1.838l2.437-2.437a1.3,1.3,0,0,1,1.838,0l1.867,1.867a1.583,1.583,0,0,0,1.726.344l.7-.291a1.579,1.579,0,0,0,.978-1.464V78.874a1.3,1.3,0,0,1,1.3-1.3h.946V66.963L126.631,49.62a.721.721,0,0,0-.991,0L107.3,66.962V79.313Z" transform="translate(-107.297 -49.423)" fill="#5c2d91"/>
          <path id="Trazado_1001491" data-name="Trazado 1001491" d="M164.286,104.1l4.974-5.019a.455.455,0,0,1,.646,0l4.974,5.019,6.349-5.483V79.582a.721.721,0,0,0-.721-.721H158.658a.721.721,0,0,0-.721.721V98.619Z" transform="translate(-150.744 -74.68)" fill="#eaf9fa"/>
          <g id="Grupo_1179451" data-name="Grupo 1179451" transform="translate(0 17.54)">
            <path id="Trazado_1001493" data-name="Trazado 1001493" d="M280.793,187a1.3,1.3,0,0,1,1.838,0l1.867,1.867a1.583,1.583,0,0,0,1.726.344l.7-.291a1.579,1.579,0,0,0,.978-1.464v-2.641a1.3,1.3,0,0,1,1.3-1.3h.946V172.907l-13.642,11.782L279.792,188Z" transform="translate(-252.473 -172.907)" fill="#beabd3"/>
            <path id="Trazado_1001494" data-name="Trazado 1001494" d="M114.671,185.257a.579.579,0,0,1,.579.579v4.593l5.689-5.741L107.3,172.906v12.351Z" transform="translate(-107.297 -172.906)" fill="#beabd3"/>
          </g>
          <path id="Trazado_1001495" data-name="Trazado 1001495" d="M163.285,238.042h14.446v-.4a1.3,1.3,0,0,1,1.3-1.3h2.641a1.579,1.579,0,0,0,1.464-.978l.291-.7a1.579,1.579,0,0,0-.344-1.726l-1.867-1.867a1.3,1.3,0,0,1,0-1.838l1.537-1.537-8.157-8.232a.6.6,0,0,0-.847,0l-10.462,10.557v8.025Z" transform="translate(-155.332 -195.156)" fill="#371b57"/>
          <g id="Grupo_1179452" data-name="Grupo 1179452" transform="translate(11.865 9.453)">
            <path id="Trazado_1001497" data-name="Trazado 1001497" d="M203.71,118.1H191.893a1.065,1.065,0,0,1,0-2.131H203.71a1.065,1.065,0,0,1,0,2.131Z" transform="translate(-190.828 -115.973)" fill="#99b8d0"/>
          </g>
          <g id="Grupo_1179453" data-name="Grupo 1179453" transform="translate(11.865 14.077)">
            <path id="Trazado_1001498" data-name="Trazado 1001498" d="M203.71,150.657H191.893a1.065,1.065,0,0,1,0-2.131H203.71a1.065,1.065,0,0,1,0,2.131Z" transform="translate(-190.828 -148.526)" fill="#99b8d0"/>
          </g>
          <g id="Grupo_1179454" data-name="Grupo 1179454" transform="translate(11.865 18.701)">
            <path id="Trazado_1001499" data-name="Trazado 1001499" d="M199.513,183.211h-7.621a1.065,1.065,0,0,1,0-2.131h7.621a1.065,1.065,0,1,1,0,2.131Z" transform="translate(-190.827 -181.08)" fill="#99b8d0"/>
          </g>
        </g>
        <g id="Grupo_1179460" data-name="Grupo 1179460" transform="translate(37.498 67.053)">
          <g id="Grupo_1179456" data-name="Grupo 1179456" transform="translate(0 0)">
            <path id="Trazado_1001500" data-name="Trazado 1001500" d="M294.943,259.646H292.3a1.442,1.442,0,0,1-1.332-.891l-.291-.7a1.442,1.442,0,0,1,.313-1.571l1.867-1.867a1.442,1.442,0,0,0,0-2.039l-2.437-2.437a1.442,1.442,0,0,0-2.039,0l-1.867,1.867a1.442,1.442,0,0,1-1.571.313l-.7-.291a1.442,1.442,0,0,1-.891-1.332v-2.641a1.442,1.442,0,0,0-1.442-1.442h-3.446a1.442,1.442,0,0,0-1.442,1.442V250.7a1.442,1.442,0,0,1-.891,1.332l-.7.291a1.442,1.442,0,0,1-1.571-.313l-1.867-1.867a1.442,1.442,0,0,0-2.039,0l-2.437,2.437a1.442,1.442,0,0,0,0,2.039l1.867,1.867a1.442,1.442,0,0,1,.313,1.571l-.291.7a1.442,1.442,0,0,1-1.332.891h-2.641a1.442,1.442,0,0,0-1.442,1.442v3.446a1.442,1.442,0,0,0,1.442,1.442h2.641a1.442,1.442,0,0,1,1.332.891l.291.7a1.442,1.442,0,0,1-.313,1.571l-1.867,1.867a1.442,1.442,0,0,0,0,2.039l2.437,2.437a1.442,1.442,0,0,0,2.039,0l1.867-1.867a1.442,1.442,0,0,1,1.571-.313l.7.291a1.442,1.442,0,0,1,.891,1.332v2.641a1.442,1.442,0,0,0,1.442,1.442h3.446a1.442,1.442,0,0,0,1.442-1.442v-2.641a1.442,1.442,0,0,1,.891-1.332l.7-.291a1.442,1.442,0,0,1,1.571.313l1.867,1.867a1.442,1.442,0,0,0,2.039,0l2.437-2.437a1.442,1.442,0,0,0,0-2.039l-1.867-1.867a1.442,1.442,0,0,1-.313-1.571l.291-.7a1.442,1.442,0,0,1,1.332-.891h2.641a1.442,1.442,0,0,0,1.442-1.442v-3.446A1.442,1.442,0,0,0,294.943,259.646Z" transform="translate(-263.99 -246.614)" fill="#99b8d0"/>
          </g>
          <g id="Grupo_1179457" data-name="Grupo 1179457" transform="translate(7.55 7.575)">
            <circle id="Elipse_13671" data-name="Elipse 13671" cx="7.188" cy="7.188" r="7.188" transform="translate(0 13.989) rotate(-76.7)" fill="#004e89"/>
          </g>
          <g id="Grupo_1179458" data-name="Grupo 1179458" transform="translate(7.944 7.943)">
            <path id="Trazado_1001502" data-name="Trazado 1001502" d="M328.168,319.044a8.254,8.254,0,1,1,8.254-8.254A8.263,8.263,0,0,1,328.168,319.044Zm0-14.377a6.123,6.123,0,1,0,6.123,6.123A6.13,6.13,0,0,0,328.168,304.668Z" transform="translate(-319.914 -302.537)" fill="#002e52"/>
          </g>
          <g id="Grupo_1179459" data-name="Grupo 1179459" transform="translate(13.666 13.666)">
            <circle id="Elipse_13672" data-name="Elipse 13672" cx="2.531" cy="2.531" r="2.531" fill="#fff"/>
          </g>
        </g>
        <g id="Grupo_1179467" data-name="Grupo 1179467" transform="translate(52.711 37.325)">
          <g id="Grupo_1179461" data-name="Grupo 1179461" transform="translate(1.065 1.065)">
            <circle id="Elipse_13673" data-name="Elipse 13673" cx="8.942" cy="8.942" r="8.942" fill="#9db8a9"/>
          </g>
          <g id="Grupo_1179463" data-name="Grupo 1179463" transform="translate(4.351 12.294)">
            <path id="Trazado_1001504" data-name="Trazado 1001504" d="M407.384,130.534a8.9,8.9,0,0,0,5.656-2.017c-1.088-2.761-3.211-4.638-5.656-4.638s-4.568,1.877-5.656,4.638A8.9,8.9,0,0,0,407.384,130.534Z" transform="translate(-401.728 -123.879)" fill="#062f18"/>
          </g>
          <g id="Grupo_1179464" data-name="Grupo 1179464" transform="translate(5.972 5.793)">
            <circle id="Elipse_13674" data-name="Elipse 13674" cx="4.035" cy="4.035" r="4.035" fill="#062f18"/>
          </g>
          <g id="Grupo_1179466" data-name="Grupo 1179466" transform="translate(0 0)">
            <path id="Trazado_1001506" data-name="Trazado 1001506" d="M381.1,57.34a10.007,10.007,0,1,1,10.007-10.007A10.018,10.018,0,0,1,381.1,57.34Zm0-17.884a7.877,7.877,0,1,0,7.877,7.877A7.886,7.886,0,0,0,381.1,39.456Z" transform="translate(-371.095 -37.325)" fill="#0a4f29"/>
          </g>
        </g>
        <g id="Grupo_1179472" data-name="Grupo 1179472" transform="translate(0 68.792)">
          <g id="Grupo_1179468" data-name="Grupo 1179468" transform="translate(0 0)">
            <path id="Trazado_1001507" data-name="Trazado 1001507" d="M23.335,273.838V259.582a.721.721,0,0,0-.721-.721H.721a.721.721,0,0,0-.721.721v14.257a.721.721,0,0,0,.721.721H22.614A.721.721,0,0,0,23.335,273.838Z" transform="translate(0 -258.861)" fill="#371b57"/>
          </g>
          <g id="Grupo_1179469" data-name="Grupo 1179469" transform="translate(0)">
            <path id="Trazado_1001508" data-name="Trazado 1001508" d="M22.614,258.86H.721a.721.721,0,0,0-.721.721v14.256a.717.717,0,0,0,.228.524l11.439-9.88,11.439,9.88a.717.717,0,0,0,.228-.524V259.581A.721.721,0,0,0,22.614,258.86Z" transform="translate(0 -258.86)" fill="#beabd3"/>
          </g>
          <g id="Grupo_1179470" data-name="Grupo 1179470" transform="translate(0.235)">
            <path id="Trazado_1001509" data-name="Trazado 1001509" d="M13.534,268.03l10.984-8.979a.716.716,0,0,0-.486-.192H2.137a.716.716,0,0,0-.486.192l10.984,8.979a.71.71,0,0,0,.9,0Z" transform="translate(-1.651 -258.86)" fill="#fe860a"/>
          </g>
          <g id="Grupo_1179471" data-name="Grupo 1179471" transform="translate(0.235)">
            <path id="Trazado_1001510" data-name="Trazado 1001510" d="M13.534,268.03l10.984-8.979a.716.716,0,0,0-.486-.192H2.137a.716.716,0,0,0-.486.192l10.984,8.979a.71.71,0,0,0,.9,0Z" transform="translate(-1.651 -258.86)" fill="#5c2d91"/>
          </g>
        </g>
        <g id="Grupo_1179476" data-name="Grupo 1179476" transform="translate(17.506 88.672)">
          <g id="Grupo_1179473" data-name="Grupo 1179473" transform="translate(0 0)">
            <path id="Trazado_1001511" data-name="Trazado 1001511" d="M139.264,409.1v-9.785a.5.5,0,0,0-.495-.495H123.742a.5.5,0,0,0-.495.495V409.1a.5.5,0,0,0,.495.495h15.027A.5.5,0,0,0,139.264,409.1Z" transform="translate(-123.247 -398.817)" fill="#371b57"/>
          </g>
          <g id="Grupo_1179474" data-name="Grupo 1179474" transform="translate(0 0)">
            <path id="Trazado_1001512" data-name="Trazado 1001512" d="M138.769,398.818H123.742a.5.5,0,0,0-.495.495V409.1a.492.492,0,0,0,.157.36l7.852-6.781,7.852,6.781a.492.492,0,0,0,.157-.36v-9.785A.5.5,0,0,0,138.769,398.818Z" transform="translate(-123.247 -398.818)" fill="#beabd3"/>
          </g>
          <g id="Grupo_1179475" data-name="Grupo 1179475" transform="translate(0.161 0)">
            <path id="Trazado_1001513" data-name="Trazado 1001513" d="M132.678,405l7.4-6.047a.492.492,0,0,0-.334-.132H124.715a.491.491,0,0,0-.334.132l7.4,6.047A.71.71,0,0,0,132.678,405Z" transform="translate(-124.381 -398.817)" fill="#5c2d91"/>
          </g>
        </g>
      </g>
    </g>
  </g>
</svg>
