<svg xmlns="http://www.w3.org/2000/svg" width="84" height="84" viewBox="0 0 84 84">
  <g id="Grupo_1179609" data-name="Grupo 1179609" transform="translate(-186.082 -3785.208)">
    <rect id="Rectángulo_455765" data-name="Rectángulo 455765" width="84" height="84" rx="5" transform="translate(186.082 3785.208)" fill="#371b57"/>
    <g id="Grupo_1179481" data-name="Grupo 1179481" transform="translate(193.35 3795.865)">
      <g id="Grupo_1179480" data-name="Grupo 1179480" transform="translate(5.15 1.223)">
        <path id="Trazado_1001514" data-name="Trazado 1001514" d="M39.175,31.167a20.337,20.337,0,0,1-4.769-.6c-4.568-1.747-11.487-7.389-8.8-17.667C26.95,7.858,32.256.536,41.392,1.275c8.733.672,12.293,7.591,11.89,14.107-.336,5.24-3.627,9.337-7.322,9.2a4.2,4.2,0,0,1-3.09-1.411,3.154,3.154,0,0,1-.4-.6,7.763,7.763,0,0,1-5.911,1.545,7.1,7.1,0,0,1-5.374-8.263c.739-5.105,4.635-7.792,8.061-7.792h.134A6.029,6.029,0,0,1,42.8,9.336a1.743,1.743,0,0,1,1.814-1.276,1.673,1.673,0,0,1,1.478,1.679v.2l-1.142,8.934a3.245,3.245,0,0,0,.47,2.15.789.789,0,0,0,.672.269c1.545.067,3.627-2.553,3.829-6.046.067-1.747.134-10.009-8.8-10.681-7.859-.6-11.554,6.382-12.226,9.136-.134.4-2.553,10.143,6.65,13.636s5.105,1.478,9.942-1.008a1.7,1.7,0,1,1,1.545,3.023,17.62,17.62,0,0,1-7.859,1.814Zm.067-19.884c-1.612,0-4.165,1.343-4.7,4.9a3.763,3.763,0,0,0,2.687,4.5,4.142,4.142,0,0,0,4.434-2.62l.6-4.568a2.921,2.921,0,0,1-.4-.47A3.9,3.9,0,0,0,39.243,11.284Z" transform="translate(-11.667 -1.223)" fill="#87aedc"/>
        <g id="Grupo_1179479" data-name="Grupo 1179479" transform="translate(0 21.048)">
          <g id="Grupo_1179478" data-name="Grupo 1179478" transform="translate(0.034 4.975)">
            <path id="Trazado_1001515" data-name="Trazado 1001515" d="M54.521,73.333H7.7V42.5L33.5,56.943,59.357,42.5v26a4.859,4.859,0,0,1-4.837,4.837Z" transform="translate(-6.021 -40.795)" fill="#e6e8ea"/>
            <path id="Trazado_1001516" data-name="Trazado 1001516" d="M53.7,74.179H6.879A1.663,1.663,0,0,1,5.2,72.5V41.667a1.846,1.846,0,0,1,.806-1.478,1.668,1.668,0,0,1,1.679,0L32.675,54.161,57.664,40.189a1.85,1.85,0,0,1,1.679,0,1.686,1.686,0,0,1,.806,1.478v26A6.465,6.465,0,0,1,53.7,74.179ZM8.559,70.821H53.7a3.154,3.154,0,0,0,3.157-3.157V44.488L33.548,57.52a1.712,1.712,0,0,1-1.612,0L8.559,44.488Z" transform="translate(-5.2 -39.961)" fill="#e6e8ea"/>
          </g>
          <path id="Trazado_1001517" data-name="Trazado 1001517" d="M6.863,79.592a1.724,1.724,0,0,1-1.209-.47,1.623,1.623,0,0,1,0-2.351L25.47,56.954a1.623,1.623,0,0,1,2.351,0,1.683,1.683,0,0,1,0,2.351L8,79.122a1.753,1.753,0,0,1-1.142.47Z" transform="translate(-5.15 -40.399)" fill="#fff"/>
          <path id="Trazado_1001518" data-name="Trazado 1001518" d="M72.369,78.393a1.724,1.724,0,0,1-1.209-.47L52.754,59.517a1.623,1.623,0,0,1,0-2.351,1.683,1.683,0,0,1,2.351,0L73.578,75.572a1.623,1.623,0,0,1,0,2.351A1.724,1.724,0,0,1,72.369,78.393Z" transform="translate(-20.611 -40.477)" fill="#fff"/>
          <path id="Trazado_1001519" data-name="Trazado 1001519" d="M32.675,55.358a1.789,1.789,0,0,1-.806-.2L6.073,40.714A1.669,1.669,0,0,1,5.2,39.236a1.846,1.846,0,0,1,.806-1.478l8.263-4.9a1.671,1.671,0,0,1,1.679,2.889l-5.777,3.426,22.5,12.562,22.5-12.562L49.4,35.675a1.671,1.671,0,1,1,1.679-2.889l8.33,4.971a1.686,1.686,0,0,1,.806,1.478,1.751,1.751,0,0,1-.873,1.478l-25.8,14.375a1.35,1.35,0,0,1-.873.269Z" transform="translate(-5.166 -32.556)" fill="#e6e8ea"/>
        </g>
      </g>
    </g>
  </g>
</svg>
