<svg xmlns="http://www.w3.org/2000/svg" width="83.095" height="83.095" viewBox="0 0 83.095 83.095">
  <g id="Grupo_1179612" data-name="Grupo 1179612" transform="translate(-700.766 -5284.009)">
    <rect id="Rectángulo_454628" data-name="Rectángulo 454628" width="83.095" height="83.095" rx="5" transform="translate(700.766 5284.009)" fill="#ffb900"/>
    <g id="Responsive_Design" transform="translate(712.086 5295.135)">
      <g id="Grupo_1179579" data-name="Grupo 1179579" transform="translate(3.05 2)">
        <g id="Grupo_1179578" data-name="Grupo 1179578">
          <g id="Grupo_1179533" data-name="Grupo 1179533">
            <g id="Grupo_1179483" data-name="Grupo 1179483" transform="translate(15.016 37.525)">
              <g id="Grupo_1179482" data-name="Grupo 1179482">
                <path id="Trazado_1001520" data-name="Trazado 1001520" d="M36.56,44.322l-.012,1.812L24.742,53l-6.063-3.529a6.494,6.494,0,0,1-2.949-5.116l.012-4.713,1.587.912,11.807-6.868-.012,4.725a3.04,3.04,0,0,0,1.374,2.38Z" transform="translate(-15.73 -33.687)" fill="#111d33"/>
              </g>
            </g>
            <g id="Grupo_1179485" data-name="Grupo 1179485" transform="translate(24.024 48.155)">
              <g id="Grupo_1179484" data-name="Grupo 1179484">
                <path id="Trazado_1001521" data-name="Trazado 1001521" d="M23.342,49.531l11.816-6.867-.005,1.82L23.336,51.351Z" transform="translate(-23.336 -42.664)" fill="#1d2943"/>
              </g>
            </g>
            <g id="Grupo_1179487" data-name="Grupo 1179487" transform="translate(16.6 37.521)">
              <g id="Grupo_1179486" data-name="Grupo 1179486">
                <path id="Trazado_1001522" data-name="Trazado 1001522" d="M36.311,44.323,24.5,51.185l-6.055-3.53a3.022,3.022,0,0,1-1.375-2.381l.011-4.717,11.814-6.874-.011,4.728a3.04,3.04,0,0,0,1.375,2.381Z" transform="translate(-17.067 -33.684)" fill="#4c5c75"/>
              </g>
            </g>
            <g id="Grupo_1179489" data-name="Grupo 1179489" transform="translate(15.013 43.476)">
              <g id="Grupo_1179488" data-name="Grupo 1179488">
                <path id="Trazado_1001523" data-name="Trazado 1001523" d="M17.325,39.628l-.013,4.723a3.028,3.028,0,0,0,1.373,2.378l6.059,3.531-.005,1.82-6.059-3.531a6.51,6.51,0,0,1-2.952-5.113l.013-4.723Z" transform="translate(-15.728 -38.713)" fill="#111d33"/>
              </g>
            </g>
            <g id="Grupo_1179490" data-name="Grupo 1179490" transform="translate(39.191 2.055)">
              <path id="Trazado_1001524" data-name="Trazado 1001524" d="M36.376,3.844c-.119-.079-.421-.181-.059-.036A.259.259,0,0,1,36.376,3.844Z" transform="translate(-36.144 -3.735)" fill="#1d2943"/>
            </g>
            <g id="Grupo_1179491" data-name="Grupo 1179491" transform="translate(0 0.004)">
              <path id="Trazado_1001525" data-name="Trazado 1001525" d="M43.254,34.065a5.139,5.139,0,0,1-2.333,4.026l-32,18.521a1.538,1.538,0,0,1-1.764.083.654.654,0,0,0,.107.083L3.784,54.753a1.6,1.6,0,0,1-.675-1.492L3.05,24.875a5.148,5.148,0,0,1,2.321-4.038l32-18.509a1.648,1.648,0,0,1,1.67-.166l3.375,1.966c-1.2-.479-.06-.044.059.036A1.577,1.577,0,0,1,43.2,5.679Z" transform="translate(-3.05 -2.003)" fill="#1d2943"/>
              <path id="Trazado_1001526" data-name="Trazado 1001526" d="M36.376,3.844c-.119-.079-.421-.181-.059-.036A.259.259,0,0,1,36.376,3.844Z" transform="translate(3.047 -1.684)" fill="#1d2943"/>
            </g>
            <g id="Grupo_1179492" data-name="Grupo 1179492" transform="translate(0)">
              <path id="Trazado_1001527" data-name="Trazado 1001527" d="M3.05,24.873a5.139,5.139,0,0,1,2.322-4.034l32-18.516a1.641,1.641,0,0,1,1.663-.165l3.483,2.026a1.656,1.656,0,0,0-1.663.156l-32,18.524A5.127,5.127,0,0,0,6.533,26.9l.049,28.379a1.647,1.647,0,0,0,.683,1.5L3.783,54.75a1.611,1.611,0,0,1-.675-1.49Z" transform="translate(-3.05 -2)" fill="#4c5c75"/>
            </g>
            <g id="Grupo_1179493" data-name="Grupo 1179493" transform="translate(3.48 2.025)">
              <path id="Trazado_1001528" data-name="Trazado 1001528" d="M40.313,4.029c1.288-.744,2.337-.145,2.342,1.341l.055,28.379a5.131,5.131,0,0,1-2.326,4.029l-32,18.52c-1.288.744-2.337.145-2.342-1.334L5.989,26.585A5.133,5.133,0,0,1,8.315,22.55Z" transform="translate(-5.989 -3.71)" fill="#1d2943"/>
            </g>
            <g id="Grupo_1179494" data-name="Grupo 1179494" transform="translate(0.047 29.093)">
              <path id="Trazado_1001529" data-name="Trazado 1001529" d="M43.247,26.567V29.54a5.139,5.139,0,0,1-2.333,4.026l-32,18.521a1.538,1.538,0,0,1-1.764.083.654.654,0,0,0,.107.083L3.777,50.228A1.6,1.6,0,0,1,3.1,48.736L3.09,45.752l3.493,2.037Z" transform="translate(-3.09 -26.567)" fill="#b0b8cf"/>
            </g>
            <g id="Grupo_1179495" data-name="Grupo 1179495" transform="translate(0.051 48.283)">
              <path id="Trazado_1001530" data-name="Trazado 1001530" d="M6.574,47.766l0-2.967L3.093,42.772,3.1,45.749a1.611,1.611,0,0,0,.675,1.49l3.483,2.025A1.647,1.647,0,0,1,6.574,47.766Z" transform="translate(-3.093 -42.772)" fill="#b0b8cf"/>
            </g>
            <g id="Grupo_1179496" data-name="Grupo 1179496" transform="translate(3.536 29.095)">
              <path id="Trazado_1001531" data-name="Trazado 1001531" d="M42.7,26.569v2.969a5.131,5.131,0,0,1-2.326,4.029l-32,18.52c-1.288.744-2.337.145-2.342-1.334V47.785Z" transform="translate(-6.036 -26.569)" fill="#e3e7f0"/>
            </g>
            <g id="Grupo_1179497" data-name="Grupo 1179497" transform="translate(0.051 48.283)">
              <path id="Trazado_1001532" data-name="Trazado 1001532" d="M6.574,47.766l0-2.967L3.093,42.772,3.1,45.749a1.611,1.611,0,0,0,.675,1.49l3.483,2.025A1.647,1.647,0,0,1,6.574,47.766Z" transform="translate(-3.093 -42.772)" fill="#b0b8cf"/>
            </g>
            <g id="Grupo_1179498" data-name="Grupo 1179498" transform="translate(3.536 29.095)">
              <path id="Trazado_1001533" data-name="Trazado 1001533" d="M42.7,26.569v2.969a5.131,5.131,0,0,1-2.326,4.029l-32,18.52c-1.288.744-2.337.145-2.342-1.334V47.785Z" transform="translate(-6.036 -26.569)" fill="#e3e7f0"/>
            </g>
            <g id="Grupo_1179499" data-name="Grupo 1179499" transform="translate(21.479 40.479)">
              <path id="Trazado_1001534" data-name="Trazado 1001534" d="M22.377,36.347c.661-.382,1.195-.077,1.2.682a2.613,2.613,0,0,1-1.189,2.06c-.661.382-1.195.077-1.2-.682A2.614,2.614,0,0,1,22.377,36.347Z" transform="translate(-21.188 -36.182)" fill="#1d2943"/>
            </g>
            <g id="Grupo_1179500" data-name="Grupo 1179500" transform="translate(4.621 3.165)">
              <path id="Trazado_1001535" data-name="Trazado 1001535" d="M41.382,30.035,6.987,49.941,6.953,26.407A4.016,4.016,0,0,1,8.7,23.352l32-18.52a.991.991,0,0,1,.477-.159c.068.023.159.17.159.522Z" transform="translate(-6.952 -4.673)" fill="#fff"/>
            </g>
            <g id="Grupo_1179532" data-name="Grupo 1179532" transform="translate(6.355 10.662)">
              <g id="Grupo_1179502" data-name="Grupo 1179502" transform="translate(0.032 19.85)">
                <g id="Grupo_1179501" data-name="Grupo 1179501">
                  <path id="Trazado_1001536" data-name="Trazado 1001536" d="M16.537,27.766l.017,5.84L8.46,38.279l-.017-5.84Z" transform="translate(-8.443 -27.766)" fill="#78e75a"/>
                </g>
              </g>
              <g id="Grupo_1179504" data-name="Grupo 1179504" transform="translate(11.535 20.423)">
                <g id="Grupo_1179503" data-name="Grupo 1179503">
                  <path id="Trazado_1001537" data-name="Trazado 1001537" d="M26,28.249l0,.634-7.84,4.526,0-.634Z" transform="translate(-18.158 -28.249)" fill="#e3e7f0"/>
                </g>
              </g>
              <g id="Grupo_1179506" data-name="Grupo 1179506" transform="translate(11.389 13.294)">
                <g id="Grupo_1179505" data-name="Grupo 1179505">
                  <path id="Trazado_1001538" data-name="Trazado 1001538" d="M26.127,22.229l.017,5.84L18.05,32.742l-.017-5.84Z" transform="translate(-18.034 -22.229)" fill="#dba660"/>
                </g>
              </g>
              <g id="Grupo_1179515" data-name="Grupo 1179515" transform="translate(22.746 6.737)">
                <g id="Grupo_1179508" data-name="Grupo 1179508" transform="translate(1.922 10.627)">
                  <g id="Grupo_1179507" data-name="Grupo 1179507">
                    <path id="Trazado_1001539" data-name="Trazado 1001539" d="M33.55,25.665l0,.626-4.3,2.484,0-.626Z" transform="translate(-29.247 -25.665)" fill="#e3e7f0"/>
                  </g>
                </g>
                <g id="Grupo_1179510" data-name="Grupo 1179510" transform="translate(0.144 8.368)">
                  <g id="Grupo_1179509" data-name="Grupo 1179509">
                    <path id="Trazado_1001540" data-name="Trazado 1001540" d="M35.591,23.758l0,.626-7.846,4.53,0-.626Z" transform="translate(-27.745 -23.758)" fill="#e3e7f0"/>
                  </g>
                </g>
                <g id="Grupo_1179512" data-name="Grupo 1179512" transform="translate(0.14 7.13)">
                  <g id="Grupo_1179511" data-name="Grupo 1179511">
                    <path id="Trazado_1001541" data-name="Trazado 1001541" d="M35.588,22.712l0,.634-7.846,4.53,0-.634Z" transform="translate(-27.742 -22.712)" fill="#e3e7f0"/>
                  </g>
                </g>
                <g id="Grupo_1179514" data-name="Grupo 1179514">
                  <g id="Grupo_1179513" data-name="Grupo 1179513">
                    <path id="Trazado_1001542" data-name="Trazado 1001542" d="M35.717,16.692l.017,5.84L27.64,27.2l-.017-5.84Z" transform="translate(-27.624 -16.692)" fill="#febc1f"/>
                  </g>
                </g>
              </g>
              <g id="Grupo_1179517" data-name="Grupo 1179517" transform="translate(11.539 21.661)">
                <g id="Grupo_1179516" data-name="Grupo 1179516">
                  <path id="Trazado_1001543" data-name="Trazado 1001543" d="M26,29.295l0,.626-7.84,4.526,0-.626Z" transform="translate(-18.161 -29.295)" fill="#e3e7f0"/>
                </g>
              </g>
              <g id="Grupo_1179522" data-name="Grupo 1179522">
                <g id="Grupo_1179519" data-name="Grupo 1179519" transform="translate(0.013)">
                  <g id="Grupo_1179518" data-name="Grupo 1179518">
                    <path id="Trazado_1001544" data-name="Trazado 1001544" d="M39.361,11l.015,5.192L8.442,34.055l-.015-5.192Z" transform="translate(-8.427 -11.003)" fill="#f45170"/>
                  </g>
                </g>
                <g id="Grupo_1179521" data-name="Grupo 1179521" transform="translate(0 7.285)">
                  <g id="Grupo_1179520" data-name="Grupo 1179520">
                    <path id="Trazado_1001545" data-name="Trazado 1001545" d="M18.912,17.155,18.92,20.2l-10.5,6.059-.009-3.044Z" transform="translate(-8.417 -17.155)" fill="#57b3fe"/>
                  </g>
                </g>
              </g>
              <g id="Grupo_1179529" data-name="Grupo 1179529" transform="translate(0.178 26.98)">
                <g id="Grupo_1179524" data-name="Grupo 1179524" transform="translate(1.775 3.497)">
                  <g id="Grupo_1179523" data-name="Grupo 1179523">
                    <path id="Trazado_1001546" data-name="Trazado 1001546" d="M14.37,36.739l0,.626-4.3,2.484,0-.626Z" transform="translate(-10.066 -36.739)" fill="#e3e7f0"/>
                  </g>
                </g>
                <g id="Grupo_1179526" data-name="Grupo 1179526" transform="translate(0.004 1.238)">
                  <g id="Grupo_1179525" data-name="Grupo 1179525">
                    <path id="Trazado_1001547" data-name="Trazado 1001547" d="M16.41,34.832l0,.626-7.84,4.526,0-.626Z" transform="translate(-8.57 -34.832)" fill="#e3e7f0"/>
                  </g>
                </g>
                <g id="Grupo_1179528" data-name="Grupo 1179528">
                  <g id="Grupo_1179527" data-name="Grupo 1179527">
                    <path id="Trazado_1001548" data-name="Trazado 1001548" d="M16.407,33.786l0,.634-7.84,4.526,0-.634Z" transform="translate(-8.567 -33.786)" fill="#e3e7f0"/>
                  </g>
                </g>
              </g>
              <g id="Grupo_1179531" data-name="Grupo 1179531" transform="translate(13.311 23.92)">
                <g id="Grupo_1179530" data-name="Grupo 1179530">
                  <path id="Trazado_1001549" data-name="Trazado 1001549" d="M23.96,31.2l0,.626-4.3,2.484,0-.626Z" transform="translate(-19.657 -31.202)" fill="#e3e7f0"/>
                </g>
              </g>
            </g>
          </g>
          <path id="Trazado_1001550" data-name="Trazado 1001550" d="M51.533,41.2a3.438,3.438,0,0,1-1.551,2.688L38.968,50.237A1.041,1.041,0,0,1,37.8,50.3l.059.059-2.416-1.528a1.112,1.112,0,0,1-.45-1.007c-.09-33.658-.047-17.561-.059-22.1h.012a3.391,3.391,0,0,1,1.539-2.676L47.495,16.7a1.107,1.107,0,0,1,1.113-.107l.462.284,1.895,1.2a.062.062,0,0,0,.047.024,1.1,1.1,0,0,1,.462,1.007Z" transform="translate(2.823 0.669)" fill="#1d2943"/>
          <g id="Grupo_1179534" data-name="Grupo 1179534" transform="translate(37.753 17.155)">
            <path id="Trazado_1001551" data-name="Trazado 1001551" d="M51.023,18.114a1.092,1.092,0,0,0-1.113.114l-11,6.341H38.9a3.415,3.415,0,0,0-1.549,2.683l.054,22.1a1.1,1.1,0,0,0,.456,1L35.44,48.826a1.106,1.106,0,0,1-.456-1l-.054-22.1h.007a3.4,3.4,0,0,1,1.549-2.683l11-6.348A1.121,1.121,0,0,1,48.6,16.59Z" transform="translate(-34.93 -16.486)" fill="#9ea9c9"/>
          </g>
          <g id="Grupo_1179535" data-name="Grupo 1179535" transform="translate(37.753 17.155)">
            <path id="Trazado_1001552" data-name="Trazado 1001552" d="M49.137,16.909a1.092,1.092,0,0,0-1.113.114l-11,6.341h-.007a3.415,3.415,0,0,0-1.549,2.683l.054,22.1a1.1,1.1,0,0,0,.456,1l-.533-.319a1.106,1.106,0,0,1-.456-1l-.054-22.1h.007a3.4,3.4,0,0,1,1.549-2.683l11-6.348A1.121,1.121,0,0,1,48.6,16.59Z" transform="translate(-34.93 -16.486)" fill="#111d33"/>
          </g>
          <g id="Grupo_1179536" data-name="Grupo 1179536" transform="translate(40.174 18.679)">
            <path id="Trazado_1001553" data-name="Trazado 1001553" d="M49.535,17.987c.862-.5,1.559-.1,1.562.886l.054,22.1A3.414,3.414,0,0,1,49.6,43.658L38.59,50c-.862.5-1.559.1-1.562-.89l-.054-22.1a3.412,3.412,0,0,1,1.552-2.683Z" transform="translate(-36.974 -17.773)" fill="#1d2943"/>
          </g>
          <g id="Grupo_1179537" data-name="Grupo 1179537" transform="translate(41.288 21.415)">
            <path id="Trazado_1001554" data-name="Trazado 1001554" d="M49.817,20.084l.048,19.4-11.9,6.892-.047-19.4Z" transform="translate(-37.915 -20.084)" fill="#fff"/>
          </g>
          <g id="Grupo_1179538" data-name="Grupo 1179538" transform="translate(45.515 22.397)">
            <path id="Trazado_1001555" data-name="Trazado 1001555" d="M41.82,23.214a.336.336,0,0,1-.168-.626l2.824-1.63a.335.335,0,0,1,.335.581l-2.824,1.63A.336.336,0,0,1,41.82,23.214Z" transform="translate(-41.484 -20.913)" fill="#4c5c75"/>
          </g>
          <g id="Grupo_1179539" data-name="Grupo 1179539" transform="translate(46.858 44.746)">
            <path id="Trazado_1001556" data-name="Trazado 1001556" d="M43.433,39.9c.445-.257.813-.05.814.468a1.8,1.8,0,0,1-.809,1.4c-.451.26-.819.05-.82-.464A1.793,1.793,0,0,1,43.433,39.9Z" transform="translate(-42.618 -39.786)" fill="#4c5c75"/>
          </g>
          <g id="Grupo_1179543" data-name="Grupo 1179543" transform="translate(38.594 28.319)">
            <g id="Grupo_1179542" data-name="Grupo 1179542">
              <g id="Grupo_1179541" data-name="Grupo 1179541">
                <g id="Grupo_1179540" data-name="Grupo 1179540">
                  <path id="Trazado_1001557" data-name="Trazado 1001557" d="M36.751,26.676l-.012,2.155a.3.3,0,0,1-.107.26l-.237.13c-.024.012-.035.024-.059.035a.279.279,0,0,1-.284-.024.9.9,0,0,1-.4-.711V26.368c0-.178.083-.284.213-.284h-.047l.237-.142a.279.279,0,0,1,.3.035A.865.865,0,0,1,36.751,26.676Z" transform="translate(-35.638 -25.913)" fill="#c9cee2"/>
                  <path id="Trazado_1001558" data-name="Trazado 1001558" d="M36.741,30.616v2.143a.277.277,0,0,1-.118.26l-.284.166a.274.274,0,0,1-.3-.024.882.882,0,0,1-.4-.7V30.308a.291.291,0,0,1,.118-.26c0-.012.012-.012.024-.012l.261-.154a.3.3,0,0,1,.3.024A.9.9,0,0,1,36.741,30.616Z" transform="translate(-35.64 -25.188)" fill="#c9cee2"/>
                </g>
              </g>
            </g>
          </g>
          <g id="Grupo_1179554" data-name="Grupo 1179554" transform="translate(38.59 28.322)">
            <g id="Grupo_1179548" data-name="Grupo 1179548" transform="translate(0.011)">
              <g id="Grupo_1179545" data-name="Grupo 1179545" transform="translate(0.17)">
                <g id="Grupo_1179544" data-name="Grupo 1179544">
                  <path id="Trazado_1001559" data-name="Trazado 1001559" d="M36.725,26.673l-.005,2.153a.282.282,0,0,1-.118.262l-.289.167a.284.284,0,0,0,.123-.262l.005-2.153a.893.893,0,0,0-.406-.7.346.346,0,0,0-.246-.053l.241-.14a.276.276,0,0,1,.289.027A.879.879,0,0,1,36.725,26.673Z" transform="translate(-35.789 -25.916)" fill="#c9cee2"/>
                </g>
              </g>
              <g id="Grupo_1179547" data-name="Grupo 1179547" transform="translate(0 0.166)">
                <g id="Grupo_1179546" data-name="Grupo 1179546">
                  <path id="Trazado_1001560" data-name="Trazado 1001560" d="M36.059,26.113a.9.9,0,0,1,.408.7l-.006,2.152c0,.259-.186.364-.411.234a.9.9,0,0,1-.4-.7l.006-2.152C35.653,26.086,35.834,25.983,36.059,26.113Z" transform="translate(-35.646 -26.057)" fill="#fff"/>
                </g>
              </g>
            </g>
            <g id="Grupo_1179553" data-name="Grupo 1179553" transform="translate(0 4.662)">
              <g id="Grupo_1179550" data-name="Grupo 1179550" transform="translate(0.122)">
                <g id="Grupo_1179549" data-name="Grupo 1179549">
                  <path id="Trazado_1001561" data-name="Trazado 1001561" d="M36.723,30.613l-.005,2.148a.276.276,0,0,1-.118.262l-.289.167a.284.284,0,0,0,.123-.262l.005-2.148a.894.894,0,0,0-.406-.705.3.3,0,0,0-.294-.027l.289-.167a.287.287,0,0,1,.289.027A.88.88,0,0,1,36.723,30.613Z" transform="translate(-35.739 -29.853)" fill="#c9cee2"/>
                </g>
              </g>
              <g id="Grupo_1179552" data-name="Grupo 1179552" transform="translate(0 0.166)">
                <g id="Grupo_1179551" data-name="Grupo 1179551">
                  <path id="Trazado_1001562" data-name="Trazado 1001562" d="M36.05,30.049a.9.9,0,0,1,.408.7L36.452,32.9c0,.259-.186.364-.411.234a.9.9,0,0,1-.4-.7l.006-2.152C35.643,30.023,35.825,29.919,36.05,30.049Z" transform="translate(-35.637 -29.993)" fill="#fff"/>
                </g>
              </g>
            </g>
          </g>
          <g id="Grupo_1179577" data-name="Grupo 1179577" transform="translate(41.957 26.761)">
            <g id="Grupo_1179556" data-name="Grupo 1179556" transform="translate(0 0.208)">
              <g id="Grupo_1179555" data-name="Grupo 1179555">
                <path id="Trazado_1001563" data-name="Trazado 1001563" d="M42.072,24.774l.007,2.577-3.592,2.074-.007-2.577Z" transform="translate(-38.48 -24.774)" fill="#f45170"/>
              </g>
            </g>
            <g id="Grupo_1179558" data-name="Grupo 1179558" transform="translate(7.866 12.742)">
              <g id="Grupo_1179557" data-name="Grupo 1179557">
                <path id="Trazado_1001564" data-name="Trazado 1001564" d="M47.805,35.357l0,.531-2.683,1.549,0-.531Z" transform="translate(-45.122 -35.357)" fill="#e3e7f0"/>
              </g>
            </g>
            <g id="Grupo_1179560" data-name="Grupo 1179560" transform="translate(7.863 11.691)">
              <g id="Grupo_1179559" data-name="Grupo 1179559">
                <path id="Trazado_1001565" data-name="Trazado 1001565" d="M47.8,34.47l0,.531-2.683,1.549,0-.531Z" transform="translate(-45.119 -34.47)" fill="#e3e7f0"/>
              </g>
            </g>
            <g id="Grupo_1179562" data-name="Grupo 1179562" transform="translate(7.803 5.679)">
              <g id="Grupo_1179561" data-name="Grupo 1179561">
                <path id="Trazado_1001566" data-name="Trazado 1001566" d="M47.838,29.393l.014,4.956-2.769,1.6-.014-4.956Z" transform="translate(-45.069 -29.393)" fill="#dba660"/>
              </g>
            </g>
            <g id="Grupo_1179564" data-name="Grupo 1179564" transform="translate(0.011)">
              <g id="Grupo_1179563" data-name="Grupo 1179563">
                <path id="Trazado_1001567" data-name="Trazado 1001567" d="M49.077,24.6,49.09,29,38.5,35.117l-.012-4.406Z" transform="translate(-38.489 -24.598)" fill="#57b3fe"/>
              </g>
            </g>
            <g id="Grupo_1179566" data-name="Grupo 1179566" transform="translate(0.09 17.231)">
              <g id="Grupo_1179565" data-name="Grupo 1179565">
                <path id="Trazado_1001568" data-name="Trazado 1001568" d="M41.239,39.148l0,.531-2.683,1.549,0-.531Z" transform="translate(-38.556 -39.148)" fill="#e3e7f0"/>
              </g>
            </g>
            <g id="Grupo_1179568" data-name="Grupo 1179568" transform="translate(0.087 16.18)">
              <g id="Grupo_1179567" data-name="Grupo 1179567">
                <path id="Trazado_1001569" data-name="Trazado 1001569" d="M41.236,38.261l0,.531-2.683,1.549,0-.531Z" transform="translate(-38.553 -38.261)" fill="#e3e7f0"/>
              </g>
            </g>
            <g id="Grupo_1179570" data-name="Grupo 1179570" transform="translate(0.027 10.168)">
              <g id="Grupo_1179569" data-name="Grupo 1179569">
                <path id="Trazado_1001570" data-name="Trazado 1001570" d="M41.272,33.184l.014,4.956-2.769,1.6L38.5,34.783Z" transform="translate(-38.502 -33.184)" fill="#78e75a"/>
              </g>
            </g>
            <g id="Grupo_1179572" data-name="Grupo 1179572" transform="translate(3.915 7.923)">
              <g id="Grupo_1179571" data-name="Grupo 1179571">
                <path id="Trazado_1001571" data-name="Trazado 1001571" d="M44.555,31.289l.014,4.956-2.769,1.6-.014-4.956Z" transform="translate(-41.786 -31.289)" fill="#febc1f"/>
              </g>
            </g>
            <g id="Grupo_1179574" data-name="Grupo 1179574" transform="translate(3.978 14.986)">
              <g id="Grupo_1179573" data-name="Grupo 1179573">
                <path id="Trazado_1001572" data-name="Trazado 1001572" d="M44.522,37.253l0,.531L41.84,39.334l0-.531Z" transform="translate(-41.839 -37.253)" fill="#e3e7f0"/>
              </g>
            </g>
            <g id="Grupo_1179576" data-name="Grupo 1179576" transform="translate(3.975 13.936)">
              <g id="Grupo_1179575" data-name="Grupo 1179575">
                <path id="Trazado_1001573" data-name="Trazado 1001573" d="M44.52,36.366l0,.531-2.683,1.549,0-.531Z" transform="translate(-41.836 -36.366)" fill="#e3e7f0"/>
              </g>
            </g>
          </g>
        </g>
      </g>
    </g>
  </g>
</svg>
