<svg xmlns="http://www.w3.org/2000/svg" xmlns:xlink="http://www.w3.org/1999/xlink" width="346" height="359.784" viewBox="0 0 346 359.784">
  <defs>
    <clipPath id="clip-path">
      <rect id="Rectángulo_456234" data-name="Rectángulo 456234" width="291.896" height="359.784" fill="none"/>
    </clipPath>
  </defs>
  <g id="Grupo_1179607" data-name="Grupo 1179607" transform="translate(-519.711 -1201.393)">
    <path id="Rectángulo_456208" data-name="Rectángulo 456208" d="M120,0H301a45,45,0,0,1,45,45V205a45,45,0,0,1-45,45H45A45,45,0,0,1,0,205V120A120,120,0,0,1,120,0Z" transform="translate(519.711 1229.208)" fill="#062f18" opacity="0.07"/>
    <g id="Grupo_1179312" data-name="Grupo 1179312" transform="translate(540.052 1201.393)">
      <g id="Grupo_1179311" data-name="Grupo 1179311" clip-path="url(#clip-path)">
        <path id="Trazado_1000179" data-name="Trazado 1000179" d="M414.621,609.861a.385.385,0,0,1-.057,0,.352.352,0,0,1-.29-.4l19.969-122.229a.351.351,0,1,1,.692.113L414.967,609.567a.351.351,0,0,1-.346.294" transform="translate(-213.403 -250.832)" fill="#231f20"/>
        <path id="Trazado_1000180" data-name="Trazado 1000180" d="M577.516,610.416a.351.351,0,0,1-.345-.289L555.149,486.953a.351.351,0,1,1,.69-.123L577.862,610a.351.351,0,0,1-.283.407.337.337,0,0,1-.062.005" transform="translate(-285.971 -250.632)" fill="#231f20"/>
        <path id="Trazado_1000181" data-name="Trazado 1000181" d="M166.535,268.883,38.961,268.7a6.491,6.491,0,0,1-6.387-5.448l-12.48-75.817a8.12,8.12,0,0,1,7.977-9.456l113.725-.168a4.594,4.594,0,0,1,4.477,3.565l20.262,87.5" transform="translate(-10.294 -91.597)"/>
        <path id="Trazado_1000182" data-name="Trazado 1000182" d="M169.893,265.141c-39.009-.056-85.05-.112-124.059-.168a6.052,6.052,0,0,1-5.861-5.23L28.531,187.031a7.688,7.688,0,0,1,7.313-9.072c34.774-.049,76.58-.105,111.355-.161a4.26,4.26,0,0,1,4.108,3.422q9.3,41.96,18.586,83.921" transform="translate(-14.644 -91.589)" fill="#f1f1f1"/>
        <path id="Trazado_1000183" data-name="Trazado 1000183" d="M51.8,265.324c-.064,0-.274-.153-.329-.5L40.03,192.12a2.425,2.425,0,0,1,.522-1.967,1.658,1.658,0,0,1,1.259-.624l22.5-.031c28.96-.041,60.425-.084,87.7-.129l16.857,76.113c-17.925-.025-117.062-.158-117.062-.158" transform="translate(-20.603 -97.55)" fill="#fff"/>
        <path id="Trazado_1000184" data-name="Trazado 1000184" d="M151.536,175.792l4.669,31.327H74.265L69.6,175.792Z" transform="translate(-35.851 -90.556)" fill="#ffbf41"/>
        <path id="Trazado_1000185" data-name="Trazado 1000185" d="M155.832,207.1H73.892a.351.351,0,0,1-.347-.3l-4.668-31.327a.351.351,0,0,1,.347-.4h81.94a.351.351,0,0,1,.347.3l4.668,31.327a.35.35,0,0,1-.347.4m-81.637-.7h81.23l-4.564-30.626H69.63Z" transform="translate(-35.479 -90.183)" fill="#020202"/>
        <path id="Trazado_1000186" data-name="Trazado 1000186" d="M151.335,171.636H82.819L71.5,95.663h68.517Z" transform="translate(-36.83 -49.279)" fill="#f1f1f1"/>
        <path id="Trazado_1000187" data-name="Trazado 1000187" d="M141.457,118.87H85.4L83.19,104.017h56.053Z" transform="translate(-42.854 -53.582)" fill="#99b8d0"/>
        <path id="Trazado_1000188" data-name="Trazado 1000188" d="M147.244,144.625H93.372a.351.351,0,0,1,0-.7h53.872a.351.351,0,1,1,0,.7" transform="translate(-47.918 -74.14)" fill="#231f20"/>
        <path id="Trazado_1000189" data-name="Trazado 1000189" d="M149.282,158.305H95.41a.351.351,0,0,1,0-.7h53.872a.351.351,0,0,1,0,.7" transform="translate(-48.968 -81.187)" fill="#231f20"/>
        <path id="Trazado_1000190" data-name="Trazado 1000190" d="M151.321,171.986H97.449a.351.351,0,1,1,0-.7h53.872a.351.351,0,0,1,0,.7" transform="translate(-50.018 -88.234)" fill="#231f20"/>
        <path id="Trazado_1000191" data-name="Trazado 1000191" d="M153.36,185.667H99.488a.351.351,0,0,1,0-.7H153.36a.351.351,0,0,1,0,.7" transform="translate(-51.068 -95.282)" fill="#231f20"/>
        <path id="Trazado_1000192" data-name="Trazado 1000192" d="M155.4,199.347H101.526a.351.351,0,0,1,0-.7H155.4a.351.351,0,1,1,0,.7" transform="translate(-52.118 -102.328)" fill="#231f20"/>
        <path id="Trazado_1000193" data-name="Trazado 1000193" d="M157.437,213.027H103.565a.351.351,0,1,1,0-.7h53.872a.351.351,0,0,1,0,.7" transform="translate(-53.169 -109.375)" fill="#231f20"/>
        <path id="Trazado_1000194" data-name="Trazado 1000194" d="M151.536,175.792l7.882,52.891H77.479L69.6,175.792l44.715,25.13Z" transform="translate(-35.851 -90.556)" fill="#ffb900"/>
        <path id="Trazado_1000195" data-name="Trazado 1000195" d="M159.045,228.661H77.106a.351.351,0,0,1-.347-.3l-7.882-52.892a.351.351,0,0,1,.519-.357l44.526,25.024,37.045-25.009a.351.351,0,0,1,.543.239l7.882,52.891a.351.351,0,0,1-.347.4m-81.637-.7h81.23l-7.74-51.939L114.135,200.84a.352.352,0,0,1-.368.015L69.676,176.076Z" transform="translate(-35.479 -90.183)" fill="#020202"/>
        <path id="Trazado_1000196" data-name="Trazado 1000196" d="M174.1,311.844a6.916,6.916,0,0,1-1.49,5.6,6.751,6.751,0,0,1-5.258,2.325H137.375a9.535,9.535,0,0,1-9.111-7.93,6.912,6.912,0,0,1,1.49-5.6,6.752,6.752,0,0,1,5.258-2.325h29.975a9.533,9.533,0,0,1,9.11,7.923" transform="translate(-66.027 -156.559)" fill="#a50101"/>
        <path id="Trazado_1000197" data-name="Trazado 1000197" d="M154.524,320.241a5.779,5.779,0,0,1-1.006-.088,5.3,5.3,0,0,1-.939-.252,3.791,3.791,0,0,1-.812-.417.634.634,0,0,1-.212-.224.456.456,0,0,1-.059-.251.381.381,0,0,1,.076-.214.25.25,0,0,1,.185-.1.474.474,0,0,1,.271.076,3.943,3.943,0,0,0,1.112.51,4.749,4.749,0,0,0,1.265.159,2.086,2.086,0,0,0,1.387-.367,1.013,1.013,0,0,0,.325-.969,1.121,1.121,0,0,0-.455-.772,3.133,3.133,0,0,0-1.2-.444l-1.157-.23a3.551,3.551,0,0,1-1.624-.717,2.1,2.1,0,0,1-.7-1.33,1.983,1.983,0,0,1,.066-.936,1.732,1.732,0,0,1,.465-.723,2.194,2.194,0,0,1,.805-.466,3.4,3.4,0,0,1,1.1-.164,4.342,4.342,0,0,1,1.3.192,3.979,3.979,0,0,1,1.149.575.631.631,0,0,1,.2.224.418.418,0,0,1,.047.241.344.344,0,0,1-.085.192.278.278,0,0,1-.192.087.5.5,0,0,1-.288-.087,3.537,3.537,0,0,0-.967-.476,3.574,3.574,0,0,0-1.048-.148,2.34,2.34,0,0,0-.962.176,1.176,1.176,0,0,0-.572.509,1.2,1.2,0,0,0-.117.772,1.292,1.292,0,0,0,.442.833,2.427,2.427,0,0,0,1.109.449l1.159.241a4.117,4.117,0,0,1,1.718.7,2.044,2.044,0,0,1,.65,2.152,1.585,1.585,0,0,1-.458.695,2.168,2.168,0,0,1-.819.444,3.869,3.869,0,0,1-1.143.153" transform="translate(-77.758 -160.887)" fill="#fff"/>
        <path id="Trazado_1000198" data-name="Trazado 1000198" d="M168.235,322.789a3.192,3.192,0,0,1-1.481-.334,2.877,2.877,0,0,1-1.069-.948,3.456,3.456,0,0,1-.548-1.467,2.9,2.9,0,0,1,.108-1.451,1.979,1.979,0,0,1,.746-.969,2.185,2.185,0,0,1,1.26-.351,2.582,2.582,0,0,1,.977.181,2.43,2.43,0,0,1,.8.52,2.835,2.835,0,0,1,.576.822,3.843,3.843,0,0,1,.318,1.084.282.282,0,0,1-.059.257.376.376,0,0,1-.269.082h-3.757l-.086-.58H169.3l-.151.143a2.875,2.875,0,0,0-.322-1,1.7,1.7,0,0,0-.6-.629,1.626,1.626,0,0,0-.858-.219,1.46,1.46,0,0,0-.9.257,1.288,1.288,0,0,0-.472.711,2.548,2.548,0,0,0-.037,1.057l.01.065a2.549,2.549,0,0,0,.709,1.534,2.024,2.024,0,0,0,1.444.526,2.61,2.61,0,0,0,.714-.1,2.053,2.053,0,0,0,.658-.329.417.417,0,0,1,.261-.093.345.345,0,0,1,.211.076.44.44,0,0,1,.129.175.353.353,0,0,1,.012.224.361.361,0,0,1-.158.208,2.217,2.217,0,0,1-.782.4,3.187,3.187,0,0,1-.939.143" transform="translate(-85.044 -163.435)" fill="#fff"/>
        <path id="Trazado_1000199" data-name="Trazado 1000199" d="M178.161,322.767a.474.474,0,0,1-.342-.121.565.565,0,0,1-.158-.339l-.681-4.567a.426.426,0,0,1,.058-.334.355.355,0,0,1,.3-.115.49.49,0,0,1,.336.115.534.534,0,0,1,.163.334l.14.942-.138-.131a1.476,1.476,0,0,1,.6-.959,1.937,1.937,0,0,1,1.134-.323,2.341,2.341,0,0,1,1.076.23,1.772,1.772,0,0,1,.724.7,3.276,3.276,0,0,1,.381,1.177l.437,2.935a.429.429,0,0,1-.063.339.361.361,0,0,1-.3.121.491.491,0,0,1-.347-.121.549.549,0,0,1-.164-.339l-.43-2.88a1.939,1.939,0,0,0-.449-1.09,1.517,1.517,0,0,0-2.046.11,1.516,1.516,0,0,0-.246,1.21l.4,2.65c.046.307-.079.46-.374.46" transform="translate(-91.164 -163.435)" fill="#fff"/>
        <path id="Trazado_1000200" data-name="Trazado 1000200" d="M192.351,320.265a2.457,2.457,0,0,1-1.276-.339,2.757,2.757,0,0,1-.953-.959,3.863,3.863,0,0,1-.5-1.461,3.3,3.3,0,0,1,.066-1.473,1.774,1.774,0,0,1,.668-.953,1.987,1.987,0,0,1,1.176-.334,2.3,2.3,0,0,1,1.274.361,2.142,2.142,0,0,1,.825.975h-.119l-.486-3.263a.408.408,0,0,1,.063-.334.385.385,0,0,1,.312-.115.486.486,0,0,1,.336.115.531.531,0,0,1,.163.334l1.038,6.965a.442.442,0,0,1-.058.339.357.357,0,0,1-.306.121.478.478,0,0,1-.336-.121.553.553,0,0,1-.163-.339l-.155-1.041.142.153a1.474,1.474,0,0,1-.537,1,1.793,1.793,0,0,1-1.17.372m.078-.712a1.351,1.351,0,0,0,.817-.241,1.261,1.261,0,0,0,.463-.7,2.642,2.642,0,0,0,.034-1.106,2.674,2.674,0,0,0-.664-1.522,1.7,1.7,0,0,0-1.261-.526,1.371,1.371,0,0,0-.823.235,1.247,1.247,0,0,0-.459.69,3.161,3.161,0,0,0,.637,2.639,1.7,1.7,0,0,0,1.256.531" transform="translate(-97.652 -160.911)" fill="#fff"/>
        <rect id="Rectángulo_456231" data-name="Rectángulo 456231" width="4.005" height="1.711" transform="translate(33.3 174.128)" fill="#f1f1f1"/>
        <rect id="Rectángulo_456232" data-name="Rectángulo 456232" width="4.005" height="1.711" transform="translate(39.735 174.128)" fill="#f1f1f1"/>
        <rect id="Rectángulo_456233" data-name="Rectángulo 456233" width="4.005" height="1.711" transform="translate(46.17 174.128)" fill="#f1f1f1"/>
        <path id="Trazado_1000201" data-name="Trazado 1000201" d="M249.487,491.7a1.056,1.056,0,0,1,.249-.4,8.552,8.552,0,0,0,1.042-1.882c.489-.916,1.833-2.585,3.406-2.535a2.529,2.529,0,0,1,1.384.5q-.388,3.842-.777,7.683a6.6,6.6,0,0,1-4.23-1.462c-.342-.311-1.277-1.162-1.073-1.9" transform="translate(-128.504 -250.805)"/>
        <path id="Trazado_1000202" data-name="Trazado 1000202" d="M393.142,524.877c3.266-2.57,11.479-.941,16.439,6.905a24.881,24.881,0,0,1-4.463,3.826,25.756,25.756,0,0,1-11.7,4.152c-3.581-6.124-3.13-12.641-.28-14.884" transform="translate(-201.349 -269.799)"/>
        <path id="Trazado_1000203" data-name="Trazado 1000203" d="M484.634,485.242H384.408a2.523,2.523,0,0,1-2.516-2.516v-.131a2.523,2.523,0,0,1,2.516-2.516H484.634a2.523,2.523,0,0,1,2.516,2.516v.131a2.523,2.523,0,0,1-2.516,2.516" transform="translate(-196.724 -247.303)" fill="#f1f1f1"/>
        <path id="Trazado_1000204" data-name="Trazado 1000204" d="M249.958,431.881q-2.174,12.089-4.386,24.168-4.042,22.079-8.212,44.137l34.993-4.2q1.893-7.647,3.733-15.3,3.5-14.58,6.812-29.207,1.727-32.24,3.453-64.48a22.778,22.778,0,0,0-13.157,1.493c-4.25,1.939-7.613,5.3-12.317,13.9a113.947,113.947,0,0,0-11.011,29.3" transform="translate(-122.272 -199.167)" fill="#fdd1ad"/>
        <path id="Trazado_1000205" data-name="Trazado 1000205" d="M316.732,387.588c.067,3.848.872,47.4,3.453,71.012.9,8.2,2.146,18.01,2.146,18.01,1.091,8.56,2.111,15.768,2.893,21.089l31.54-10.265q-1.119-19.6-2.239-39.192-3.5-31.307-7-62.614c-1.565-1.038-10.1-6.485-20.529-3.826a24.582,24.582,0,0,0-10.731,5.972" transform="translate(-162.918 -196.305)" fill="#fdd1ad"/>
        <path id="Trazado_1000206" data-name="Trazado 1000206" d="M400.56,319.692c.038.609.113,1.52.28,2.613.937,6.133,3.49,9.7,5.6,14,1.9,3.878,2.631,6.816,4.105,12.131a58.681,58.681,0,0,1,2.613,16.05,37.39,37.39,0,0,1-1.773,13.437,28.617,28.617,0,0,1-7.838,12.6q-.211.192-.423.377a24.567,24.567,0,0,1-16.233,5.955l-56.315-.173,6.159,27.807q-5.2-2.258-10.544-4.479c-9.25-3.839-22.169-8.461-31.076-11.723-3.764-18.974-7.463-30-7.463-55.837l-22.022,46.377a13.952,13.952,0,0,0-5.225-.84c-6.073.211-10.007,4.466-10.918,5.506q3.435-9.683,7.652-19.969c4.168-10.111,8.509-19.539,12.877-28.274a29.711,29.711,0,0,1,5.412-6.066,31.462,31.462,0,0,1,16.89-7.092L313.4,327.53a132.207,132.207,0,0,1,56.268-11.944,129.553,129.553,0,0,1,30.98,4.2" transform="translate(-128.517 -162.562)" fill="#0a4f29"/>
        <path id="Trazado_1000207" data-name="Trazado 1000207" d="M.351,548.206a.33.33,0,0,1-.065-.006.35.35,0,0,1-.28-.409L33.88,367.508a.351.351,0,0,1,.689.129L.7,547.92a.351.351,0,0,1-.344.286" transform="translate(0 -189.168)" fill="#231f20"/>
        <path id="Trazado_1000208" data-name="Trazado 1000208" d="M451.8,548.206a.351.351,0,0,1-.344-.286L417.579,367.638a.351.351,0,0,1,.689-.129l33.873,180.282a.35.35,0,0,1-.28.409.334.334,0,0,1-.065.006" transform="translate(-215.105 -189.168)" fill="#231f20"/>
        <path id="Trazado_1000209" data-name="Trazado 1000209" d="M447.932,168.154a51.192,51.192,0,0,0-10.265,4.386q-2.1,27.294-4.2,54.589a40.511,40.511,0,0,1,3.359,4.852,41.191,41.191,0,0,1,4.853,12.691l41.991,1.493,11.851-.28q-.447-7.322-.653-15.024c-.277-10.63-.148-20.787.28-30.42l-29.954-34.433a51.547,51.547,0,0,0-17.263,2.146" transform="translate(-223.292 -85.488)" fill="#beabd3"/>
        <line id="Línea_3223" data-name="Línea 3223" x1="34.642" y1="34.826" transform="translate(88.925 103.302)" fill="#96b1fe"/>
        <path id="Trazado_1000210" data-name="Trazado 1000210" d="M217.669,247.853a.35.35,0,0,1-.249-.1l-34.642-34.826a.35.35,0,1,1,.5-.494l34.642,34.826a.351.351,0,0,1-.249.6" transform="translate(-94.102 -109.375)" fill="#020202"/>
        <path id="Trazado_1000211" data-name="Trazado 1000211" d="M247.71,281.2c-9.6-.955-15.313-2.309-18.849-3.453a37.578,37.578,0,0,0-9.052-1.773,17.991,17.991,0,0,0-5.412.093,16.928,16.928,0,0,0-4.479,1.493c-3,1.449-10.265,5.009-19.981,9.936a2.339,2.339,0,0,0-1.235,2.7,2.16,2.16,0,0,0,.128.337c.876,1.826,4.051,1.786,5.132,1.773,1.47-.018,3.053-.51,6.158-1.493,1.3-.412,2.367-.777,3.079-1.026a31.736,31.736,0,0,0-7.838,17.637c.02.283.161,1.955,1.213,2.426.311.14,1.125.364,2.986-1.026,3.024-2.259,3.544-4.845,6.065-8.492a31.57,31.57,0,0,1,3.546-4.2c3.056-3.055,4.539-3.3,5.132-3.359a5.984,5.984,0,0,1,3.733,1.026,13.15,13.15,0,0,1-3.733,2.333c-4.219,1.712-7.262.243-10.078,2.613-.512.431-1.235,1.057-1.213,1.866.052,1.9,4.186,3.134,4.945,3.359a19.907,19.907,0,0,0,9.518.187c4.8-.82,9.274-1.57,14.93-2.519l21.462-4.293-5.972-16.05" transform="translate(-97.162 -142.08)" fill="#fdd1ad"/>
        <path id="Trazado_1000212" data-name="Trazado 1000212" d="M218.033,298.553a.351.351,0,0,1-.254-.593,20.581,20.581,0,0,1,10.726-5.98.35.35,0,0,1,.143.686,19.883,19.883,0,0,0-10.363,5.778.349.349,0,0,1-.254.109" transform="translate(-112.135 -150.404)" fill="#231f20"/>
        <path id="Trazado_1000213" data-name="Trazado 1000213" d="M318.777,467.184a.35.35,0,0,1-.348-.309c-1.86-15.607-3.27-26.367-4.571-34.888l-.035-.225a50.414,50.414,0,0,1-.527-14.425c.2-1.694.609-4.236,3-13.022,1.187-4.369,2.444-8.736,3.736-12.981a.35.35,0,0,1,.671.2c-1.29,4.238-2.545,8.6-3.73,12.961-2.374,8.739-2.781,11.251-2.976,12.919a49.792,49.792,0,0,0,.524,14.238l.034.225c1.3,8.529,2.713,19.3,4.574,34.911a.351.351,0,0,1-.307.389.3.3,0,0,1-.042,0" transform="translate(-161.23 -201.46)" fill="#231f20"/>
        <path id="Trazado_1000214" data-name="Trazado 1000214" d="M154.308,698.844a5.978,5.978,0,0,0-.513,3.172c.021.179.05.35.085.512a1.491,1.491,0,0,0,1.453,1.174l42.3.263a5.768,5.768,0,0,0,3.91-1.459l.026-.023c1.413-1.289,1.772-2.549,3.36-5.506.39-.727.985-1.8,1.773-3.079l.319,8.447a1.544,1.544,0,0,0,1.5,1.485l13.573.381a1.541,1.541,0,0,0,1.586-1.541c0-4.243.112-8.7.38-13.344.386-6.719,1.045-13.018,1.866-18.849a148.061,148.061,0,0,0-26.5,5.225,149.664,149.664,0,0,0-44.37,21.6" transform="translate(-79.204 -345.383)"/>
        <path id="Trazado_1000215" data-name="Trazado 1000215" d="M281.094,694.027a7.67,7.67,0,0,0-.747,5.972h36.99a9.128,9.128,0,0,1,1.255.079,6.522,6.522,0,0,0,6.546-3.159l4.293-8.118v10.033a1.341,1.341,0,0,0,1.35,1.342l11.347-.076a1.341,1.341,0,0,0,1.327-1.207q1.243-12.45,2.119-25.489.37-5.555.654-11.011-4.7,2.013-9.425,4.106c-19.5,8.635-38.06,17.739-55.708,27.154" transform="translate(-144.263 -341.219)"/>
        <path id="Trazado_1000216" data-name="Trazado 1000216" d="M273.618,362.422h-86.7a2.1,2.1,0,0,1-2.092-2.092v-.109a2.1,2.1,0,0,1,2.092-2.092h86.7a2.1,2.1,0,0,1,2.092,2.092v.109a2.1,2.1,0,0,1-2.092,2.092" transform="translate(-95.207 -184.483)"/>
        <path id="Trazado_1000217" data-name="Trazado 1000217" d="M193.42,602.058a39.436,39.436,0,0,0,9.891,4.012,42.012,42.012,0,0,0,23.557-1.117,2.351,2.351,0,0,1,3.017,2.834,75.867,75.867,0,0,0-2.219,11.814c-.171,1.664-.433,4.822-1.026,10.358-.3,2.786-.563,5.08-.746,6.625a26.731,26.731,0,0,0-7.838,3.732,31.091,31.091,0,0,0-5.692,5.319c-1.678,1.87-2.8,3.386-7,9.518-1.32,1.927-3,4.393-4.946,7.278a5.346,5.346,0,0,1-4.386,1.773l-41.711.094a12.683,12.683,0,0,1,.653-5.785,9.272,9.272,0,0,1,3.36-4.853,9.891,9.891,0,0,1,3.452-1.306,42.485,42.485,0,0,1,6.159-.84,18.2,18.2,0,0,0,6.439-2.426,24.786,24.786,0,0,0,8.4-8.211,32.059,32.059,0,0,0,3.266-6.066,62.279,62.279,0,0,0,2.426-7,91.184,91.184,0,0,0,2.333-12.5c.48-3.133,1.277-7.717,2.613-13.344" transform="translate(-79.45 -310.09)" fill="#5c2d91"/>
        <path id="Trazado_1000218" data-name="Trazado 1000218" d="M303.239,600.757a.018.018,0,0,1,.008,0,92.084,92.084,0,0,0,31.649-3.375c2.939-.9,3.44-1.263,4.479-.933,1.181.375,4.53,2.115,7,29.114.218,2.386.372,4.342.467,5.6a24.831,24.831,0,0,0-7.185,3.919c-5.156,4.068-7.546,9.894-9.7,13.437-1.622,2.662-4.051,6.566-7.185,11.291a3.475,3.475,0,0,1-1.866,1.4,3.4,3.4,0,0,1-1.474.107,12.378,12.378,0,0,0-1.722-.113l-36.461-.18c.342-4.119,1.712-6.752,3.359-8.492,1.62-1.711,2.852-1.863,7.278-4.386,4.036-2.3,6.054-3.45,7.932-5.225a22.444,22.444,0,0,0,6.065-11.1c.949-3.758.614-7.191-.094-13.9-.934-8.856-2.849-17.088-2.543-17.154" transform="translate(-144.875 -307.187)" fill="#5c2d91"/>
        <path id="Trazado_1000219" data-name="Trazado 1000219" d="M247.318,369.964H12.851a2.582,2.582,0,0,1,0-5.163H247.318a2.582,2.582,0,0,1,0,5.163" transform="translate(-5.29 -187.92)" fill="#f1f1f1"/>
        <path id="Trazado_1000220" data-name="Trazado 1000220" d="M184.236,361.284a3.66,3.66,0,0,1-3.4-2.232,7.054,7.054,0,0,1-.578-1.772.351.351,0,0,1,.689-.134,6.357,6.357,0,0,0,.518,1.6,2.957,2.957,0,0,0,3.4,1.779.351.351,0,0,1,.161.683,3.575,3.575,0,0,1-.784.081" transform="translate(-92.852 -183.83)" fill="#f1f1f1"/>
        <path id="Trazado_1000221" data-name="Trazado 1000221" d="M381.709,170.584a33.488,33.488,0,0,0-7.092,1.12,32.985,32.985,0,0,0-9.425,4.2,25.054,25.054,0,0,0-8.678,8.585,26.139,26.139,0,0,0-2.519,7c-2.546,9.65-3.359,15.117-3.359,15.117-.834,5.6-2.271,13.791-4.946,25.568q-3.341-.62-6.718-1.213-15.772-2.772-30.98-4.759a23.141,23.141,0,0,1,1.773,4.665,24.366,24.366,0,0,1-.186,12.6l44.137,5.6,13.81-7.278,4.293-15.117q4.853-28.087,9.7-56.175" transform="translate(-158.655 -87.824)" fill="#beabd3"/>
        <path id="Trazado_1000222" data-name="Trazado 1000222" d="M394.139,302.51a.348.348,0,0,1-.26-.116,14.023,14.023,0,0,0-8.735-4.576.351.351,0,0,1-.3-.391.346.346,0,0,1,.391-.3,14.725,14.725,0,0,1,9.169,4.8.351.351,0,0,1-.26.585" transform="translate(-198.241 -153.055)" fill="#020202"/>
        <path id="Trazado_1000223" data-name="Trazado 1000223" d="M426.861,253.27a.347.347,0,0,1-.206-.067,22.037,22.037,0,0,1-6.73-7.68c-3.156-6.06-2.424-11.86-1.716-17.469a48.889,48.889,0,0,1,4.887-15.883.35.35,0,1,1,.626.315,48.2,48.2,0,0,0-4.818,15.656c-.694,5.5-1.413,11.192,1.642,17.057a21.355,21.355,0,0,0,6.521,7.436.351.351,0,0,1-.206.634" transform="translate(-215.114 -109.196)" fill="#231f20"/>
        <path id="Trazado_1000224" data-name="Trazado 1000224" d="M323.627,320.212a84.765,84.765,0,0,1-10.544-.466c-6.306-.673-8.316-1.6-16.89-2.893-9.381-1.41-11.962-1.046-13.9-.56a25.952,25.952,0,0,0-8.4,4.012,38.977,38.977,0,0,0-10.475,10.274,2.288,2.288,0,0,0,.345,3.051c.047.039.095.076.145.112a3.3,3.3,0,0,0,4.2-.746,3.024,3.024,0,0,0-1.026,3.173,3.141,3.141,0,0,0,1.959,1.96,2.947,2.947,0,0,0,1.307.093,2.842,2.842,0,0,0,.84,1.213c1.417,1.167,4.128.775,6.718-1.026a3.072,3.072,0,0,0,.56,2.333c.982,1.136,2.849.848,4.106.653a12.427,12.427,0,0,0,5.225-2.333,21.12,21.12,0,0,0,1.931-1.46,6.467,6.467,0,0,1,4.915-1.533l.06.007a18.711,18.711,0,0,1,3.733.84,60.219,60.219,0,0,1,7.092,2.893c4.1,1.929,8.048,1.856,12.5,1.773a39.816,39.816,0,0,0,12.691-2.333,27.532,27.532,0,0,0-3.266-13.624,26.491,26.491,0,0,0-3.826-5.319" transform="translate(-135.473 -162.709)" fill="#fdd1ad"/>
        <path id="Trazado_1000225" data-name="Trazado 1000225" d="M271.726,335.465a.351.351,0,0,1-.275-.567,68.481,68.481,0,0,1,5.55-6.245c3.06-3.047,5.271-5.249,8.667-7.06a26.24,26.24,0,0,1,10.119-2.932.351.351,0,0,1,.061.7,25.534,25.534,0,0,0-9.85,2.853c-3.3,1.761-5.484,3.932-8.5,6.938A67.826,67.826,0,0,0,272,335.33a.35.35,0,0,1-.276.134" transform="translate(-139.794 -164.151)" fill="#231f20"/>
        <path id="Trazado_1000226" data-name="Trazado 1000226" d="M277.884,343.7a.351.351,0,0,1-.271-.573c1.844-2.248,3.729-4.51,5.6-6.723,3.665-4.328,4.858-5.59,6.891-6.881a22.046,22.046,0,0,1,5.21-2.37,28.692,28.692,0,0,1,10.013-1.417.351.351,0,0,1,.338.362.335.335,0,0,1-.362.338,28.037,28.037,0,0,0-9.77,1.382,21.407,21.407,0,0,0-5.054,2.3c-1.954,1.241-3.123,2.479-6.732,6.743-1.871,2.21-3.754,4.469-5.6,6.714a.349.349,0,0,1-.272.129" transform="translate(-142.966 -167.785)" fill="#231f20"/>
        <path id="Trazado_1000227" data-name="Trazado 1000227" d="M293.184,350.332a.35.35,0,0,1-.279-.562,39.636,39.636,0,0,1,6.308-6.59,25.516,25.516,0,0,1,3.5-2.552,20.762,20.762,0,0,1,10.819-2.661.351.351,0,0,1,0,.7h0a20.129,20.129,0,0,0-10.457,2.564,25.039,25.039,0,0,0-3.406,2.487,38.9,38.9,0,0,0-6.2,6.474.351.351,0,0,1-.28.139" transform="translate(-150.847 -174.095)" fill="#231f20"/>
        <path id="Trazado_1000228" data-name="Trazado 1000228" d="M438.941,165.417c1.7-.167,4.144-.367,7.092-.466,5.449-.185,8.174-.277,11.1.28,2.58.49,8.141,1.548,12.5,6.345a19.659,19.659,0,0,1,4.852,10.638,19.922,19.922,0,0,1-.466,7.185c-2.555,11.11-6.44,22.115-6.44,22.115-5.682,16.1-8.523,24.149-8.958,26.594a24.258,24.258,0,0,1-7.745,14.464,22.5,22.5,0,0,1-7.278,4.666,21.537,21.537,0,0,1-6.252,1.4L388.179,263.4a20.918,20.918,0,0,0,1.119-5.785c.407-8.41-4.505-14.6-6.251-16.61l49.456-6.718q3.359-34.386,6.718-68.773" transform="translate(-197.319 -84.897)" fill="#beabd3"/>
        <path id="Trazado_1000229" data-name="Trazado 1000229" d="M492.785,311.973a.349.349,0,0,1-.186-.054c-1.747-1.1-3.558-2.129-5.385-3.064-.945-.483-1.913-.952-2.878-1.393a.351.351,0,1,1,.291-.638c.975.445,1.953.919,2.907,1.407,1.845.945,3.675,1.986,5.439,3.094a.35.35,0,0,1-.187.647" transform="translate(-249.389 -158.038)" fill="#231f20"/>
        <path id="Trazado_1000230" data-name="Trazado 1000230" d="M484.624,255.12a.35.35,0,0,1-.332-.463l16.727-49.432a.351.351,0,0,1,.664.224l-16.727,49.433a.351.351,0,0,1-.332.238" transform="translate(-249.464 -105.594)" fill="#231f20"/>
        <path id="Trazado_1000231" data-name="Trazado 1000231" d="M426.937,125.219l-18.663-.84-2.893-3.639-.56,3.733-4.012-.933a20.63,20.63,0,0,1-1.026-3.173,21.248,21.248,0,0,1-.466-6.719,25.989,25.989,0,0,1,3.266-10.544l4.013-10.171,19.689,26.5q.42,2.892.84,5.785" transform="translate(-205.657 -47.872)"/>
        <path id="Trazado_1000232" data-name="Trazado 1000232" d="M434.367,99.621l-2.053-9.7a24.712,24.712,0,0,1-6.252-1.306A21.608,21.608,0,0,1,415.8,81.7c-2.946-3.821-3.407-7.736-4.012-12.877a44.951,44.951,0,0,1,.373-12.97,23.094,23.094,0,0,1,2.8-11.665c4.047-7.3,11.371-10.579,16.33-11.571,14.388-2.877,30.937,9.093,33.407,22.3,1.826,9.77-4.013,20.413-7.559,26.874-1.237,2.254-2.406,4.061-3.266,5.319q.7,5.412,1.4,10.824a17.278,17.278,0,0,1-4.479,4.2,18.171,18.171,0,0,1-8.492,2.706c-2.551.163-4.565.292-6.065-1.12a5.917,5.917,0,0,1-1.586-4.293" transform="translate(-211.967 -16.582)" fill="#fdd1ad"/>
        <path id="Trazado_1000233" data-name="Trazado 1000233" d="M453.689,147.515a.35.35,0,0,1-.006-.7,23.57,23.57,0,0,0,4.229-.46,23.831,23.831,0,0,0,8-3.22.351.351,0,1,1,.374.593,24.272,24.272,0,0,1-12.591,3.786Z" transform="translate(-233.528 -73.706)" fill="#231f20"/>
        <path id="Trazado_1000234" data-name="Trazado 1000234" d="M440.664,118.769a7.18,7.18,0,0,1-3.1-.717.351.351,0,0,1,.307-.63,6.367,6.367,0,0,0,3.978.531,6.034,6.034,0,0,0,4.766-4.5.351.351,0,0,1,.681.169,6.739,6.739,0,0,1-5.312,5.019,6.885,6.885,0,0,1-1.318.128" transform="translate(-225.3 -58.306)" fill="#231f20"/>
        <path id="Trazado_1000235" data-name="Trazado 1000235" d="M434.493,100.606a1.943,1.943,0,0,1-1.284-.424,2.2,2.2,0,0,1-.681-1.433,4.129,4.129,0,0,1,.711-2.65,12.273,12.273,0,0,0,.89-1.987,9.907,9.907,0,0,0,.45-2.163.344.344,0,0,1,.383-.316.35.35,0,0,1,.315.383,10.6,10.6,0,0,1-.483,2.316,12.827,12.827,0,0,1-.935,2.1,3.5,3.5,0,0,0-.637,2.225,1.529,1.529,0,0,0,.439.994c.73.617,2.128-.042,2.142-.048a.35.35,0,1,1,.3.632,4.18,4.18,0,0,1-1.613.376" transform="translate(-222.792 -47.202)" fill="#231f20"/>
        <path id="Trazado_1000236" data-name="Trazado 1000236" d="M416.16,81.783a.351.351,0,0,1-.273-.57,4.564,4.564,0,0,1,7.071-.1.351.351,0,1,1-.531.457,4.136,4.136,0,0,0-3.253-1.372,4,4,0,0,0-2.74,1.457.35.35,0,0,1-.273.131" transform="translate(-214.196 -40.944)" fill="#231f20"/>
        <path id="Trazado_1000237" data-name="Trazado 1000237" d="M449.6,79.009a.351.351,0,0,1-.189-.055,6.816,6.816,0,0,0-3.992-1.065,6.744,6.744,0,0,0-3.282,1.064.351.351,0,0,1-.38-.59,7.393,7.393,0,0,1,8.03,0,.351.351,0,0,1-.189.646" transform="translate(-227.481 -39.757)" fill="#231f20"/>
        <path id="Trazado_1000238" data-name="Trazado 1000238" d="M499.172,100.784a.349.349,0,0,1-.258-.113c-2.173-2.355-2.464-5.839-.661-7.932a5.819,5.819,0,0,1,4.778-1.706.35.35,0,1,1-.067.7,5.209,5.209,0,0,0-4.18,1.467c-1.574,1.826-1.291,4.9.645,7a.351.351,0,0,1-.258.588" transform="translate(-256.056 -46.882)" fill="#231f20"/>
        <path id="Trazado_1000239" data-name="Trazado 1000239" d="M424.295,92.7c0,1.572-.919,2.846-2.053,2.846s-2.053-1.274-2.053-2.846.919-2.846,2.053-2.846,2.053,1.274,2.053,2.846" transform="translate(-216.452 -46.286)"/>
        <path id="Trazado_1000240" data-name="Trazado 1000240" d="M451.623,90.967c0,1.572-.919,2.846-2.053,2.846s-2.053-1.274-2.053-2.846.919-2.846,2.053-2.846,2.053,1.274,2.053,2.846" transform="translate(-230.529 -45.394)"/>
        <path id="Trazado_1000241" data-name="Trazado 1000241" d="M449.927,75.48c2.277-.235,5.312-.607,8.865-1.213a112.386,112.386,0,0,0,16.8-4.012,103.575,103.575,0,0,0,13.344-5.412,20.79,20.79,0,0,0-1.307-7.652,23.55,23.55,0,0,0-4.479-7.092c-3.885-4.64-6.383-6.129-10.451-9.984a75.975,75.975,0,0,1-8.118-9.052,14.1,14.1,0,0,0,5.039-2.333,14.7,14.7,0,0,0,5.506-8.678,15.867,15.867,0,0,0-2.24-11.384A17.355,17.355,0,0,0,463.644.923,16.434,16.434,0,0,0,453.1.829,13.928,13.928,0,0,0,445.261,6.8a12.816,12.816,0,0,0-1.68,5.319,27.457,27.457,0,0,0-7.558-1.68,27.033,27.033,0,0,0-11.944,1.773,26.068,26.068,0,0,0-5.972,3.36,13.266,13.266,0,0,0-4.759.84c-5.309,2.005-7.6,6.942-8.492,8.864-.777,1.676-3.013,6.684-1.306,12.411a15.383,15.383,0,0,0,1.866,4.013,40.429,40.429,0,0,0,4.852-4.479c2.617-2.849,5.354-5.9,6.345-10.451a16.421,16.421,0,0,0,.373-3.546,17.1,17.1,0,0,0,5.225,9.518,16.561,16.561,0,0,0,8.025,4.012,16.078,16.078,0,0,0,7.558-.466l6.066,7.838a8.041,8.041,0,0,1,12.784-2.613,8.882,8.882,0,0,1,2.893,8.4,9.315,9.315,0,0,1-3.266,5.319,8.574,8.574,0,0,1-5.692,2.333,7.682,7.682,0,0,1-3.173-.746l2.613,18.569" transform="translate(-207.558 0)"/>
        <path id="Trazado_1000242" data-name="Trazado 1000242" d="M382.385,314.47a.351.351,0,0,1-.044-.7q6.392-.821,12.782-1.679c12.219-1.641,24.594-3.407,36.783-5.249a.355.355,0,0,1,.4.295.351.351,0,0,1-.294.4c-12.193,1.842-24.572,3.608-36.794,5.25q-6.392.858-12.787,1.68l-.045,0" transform="translate(-196.797 -158.063)" fill="#020202"/>
        <path id="Trazado_1000243" data-name="Trazado 1000243" d="M387.753,344.2a.35.35,0,0,1-.331-.464,20.184,20.184,0,0,0,1.1-6.375,21.436,21.436,0,0,0-.9-6.149,22.5,22.5,0,0,0-2.23-5.08,25.679,25.679,0,0,0-3.176-4.372.35.35,0,1,1,.52-.469A26.307,26.307,0,0,1,386,325.786a23.408,23.408,0,0,1,2.3,5.231,22.183,22.183,0,0,1,.924,6.354,20.882,20.882,0,0,1-.975,6.1c.65-.041,1.539-.1,2.581-.178,3.15-.238,5.387-.485,7.978-.772,1.347-.149,2.8-.31,4.541-.487.81-.082,1.065-.106,2.059-.2.765-.07,1.966-.179,4.2-.387,7.635-.71,10.974-1.049,12.968-1.251,1.077-.109,1.719-.174,2.4-.232.631-.054,1.109-.087,1.469-.113l.2-.014c2.956-.211,6-.429,9.384-.838a35.519,35.519,0,0,0,3.951-.6,23.184,23.184,0,0,0,4.939-1.745,21.414,21.414,0,0,0,3.629-2.3,28.311,28.311,0,0,0,7.093-8.5.351.351,0,0,1,.612.342,29.018,29.018,0,0,1-7.277,8.715,22.068,22.068,0,0,1-3.743,2.369,23.922,23.922,0,0,1-5.092,1.8,36.544,36.544,0,0,1-4.027.613c-3.4.411-6.454.63-9.408.841l-.214.015c-.357.025-.832.058-1.458.112-.676.058-1.314.123-2.387.231-2,.2-5.335.541-12.973,1.251-2.231.208-3.433.318-4.2.387-.99.09-1.245.113-2.051.2-1.738.177-3.189.337-4.535.486-2.6.287-4.84.535-8,.774-1.357.1-2.455.171-3.108.21h-.021" transform="translate(-196.847 -165.448)" fill="#020202"/>
        <path id="Trazado_1000244" data-name="Trazado 1000244" d="M309.8,300.231a.444.444,0,0,1-.061,0,.351.351,0,0,1-.285-.406,23.707,23.707,0,0,0-2.023-14.592.351.351,0,1,1,.63-.307,24.4,24.4,0,0,1,2.084,15.02.351.351,0,0,1-.345.29" transform="translate(-158.349 -146.67)" fill="#020202"/>
        <path id="Trazado_1000245" data-name="Trazado 1000245" d="M265.237,334.349a2.883,2.883,0,0,1-2.33-.978,3.1,3.1,0,0,1-.312-2.658,6.252,6.252,0,0,1,1.994-3c1.882-1.885,2.5-2.566,2.83-2.932.134-.148.227-.251.336-.36a9.12,9.12,0,0,1,.683-.616c5.283-4.347,6.758-5.277,6.818-5.315a22.282,22.282,0,0,1,6.96-2.667,24.233,24.233,0,0,1,4.471-.427c4.1-.078,7.116.48,12.111,1.4l.907.168c4.332.8,6.506,1.2,8.063,1.445a109.938,109.938,0,0,0,14.231,1.3.351.351,0,1,1-.019.7,110.659,110.659,0,0,1-14.323-1.311c-1.565-.249-3.742-.65-8.079-1.447l-.908-.168c-4.95-.913-7.938-1.463-11.97-1.39a23.522,23.522,0,0,0-4.346.413,21.57,21.57,0,0,0-6.734,2.579c-.007,0-1.512.958-6.736,5.257a8.374,8.374,0,0,0-.632.57c-.1.1-.187.2-.312.335-.336.37-.96,1.059-2.825,2.929a5.628,5.628,0,0,0-1.836,2.7,2.457,2.457,0,0,0,.186,2.067,2.557,2.557,0,0,0,2.224.676,2.85,2.85,0,0,0,1.275-.521.351.351,0,0,1,.409.57,3.6,3.6,0,0,1-1.586.646,4,4,0,0,1-.548.036" transform="translate(-135.187 -162.466)" fill="#020202"/>
        <path id="Trazado_1000246" data-name="Trazado 1000246" d="M345.368,291.43a.315.315,0,0,1-.064-.006c-8.732-1.605-17.6-3.086-26.368-4.4-3.708-.557-7.48-1.1-11.21-1.6a.351.351,0,1,1,.1-.695c3.734.508,7.509,1.048,11.219,1.6,8.773,1.317,17.651,2.8,26.39,4.406a.351.351,0,0,1-.063.7" transform="translate(-158.363 -146.669)" fill="#020202"/>
        <line id="Línea_3224" data-name="Línea 3224" x1="24.262" y2="34.826" transform="translate(41.628 103.301)" fill="#96b1fe"/>
        <path id="Trazado_1000247" data-name="Trazado 1000247" d="M85.48,247.853a.346.346,0,0,1-.2-.063.35.35,0,0,1-.087-.488l24.262-34.826a.351.351,0,1,1,.575.4L85.768,247.7a.35.35,0,0,1-.288.15" transform="translate(-43.853 -109.376)" fill="#020202"/>
        <path id="Trazado_1000248" data-name="Trazado 1000248" d="M494.68,284.74a.351.351,0,0,1-.025-.7,21.191,21.191,0,0,0,6.151-1.377,22.092,22.092,0,0,0,7.168-4.6,23.885,23.885,0,0,0,7.615-14.144l.022-.123c.44-2.474,3.291-10.553,8.973-26.65.039-.11,3.907-11.115,6.427-22.077a.351.351,0,0,1,.684.157c-2.53,11-6.411,22.043-6.45,22.154-5.669,16.06-8.513,24.122-8.944,26.539l-.021.123a24.58,24.58,0,0,1-7.832,14.538,22.742,22.742,0,0,1-7.388,4.734,21.863,21.863,0,0,1-6.354,1.423h-.025" transform="translate(-254.644 -110.649)" fill="#231f20"/>
      </g>
    </g>
  </g>
</svg>
