<svg xmlns="http://www.w3.org/2000/svg" width="83.095" height="83.095" viewBox="0 0 83.095 83.095">
  <g id="Grupo_1179601" data-name="Grupo 1179601" transform="translate(-701.524 -4797.101)">
    <rect id="Rectángulo_454628" data-name="Rectángulo 454628" width="83.095" height="83.095" rx="5" transform="translate(701.524 4797.101)" fill="#ffb900"/>
    <g id="Grupo_1179585" data-name="Grupo 1179585" transform="translate(712.651 4789.388)">
      <path id="Trazado_1001603" data-name="Trazado 1001603" d="M47.142,128.2,31.6,88.913a1.267,1.267,0,0,0-1.029-.791L6.5,85.289a1.25,1.25,0,0,0-1.411,1.064c0,.015,0,.031-.006.047L.011,126.953A1.267,1.267,0,0,0,1.1,128.374l.03,0,44.356,5.069h.144A1.267,1.267,0,0,0,46.9,132.3l.329-3.515A1.264,1.264,0,0,0,47.142,128.2Z" transform="translate(0 -56.305)" fill="#ffa000"/>
      <path id="Trazado_1001604" data-name="Trazado 1001604" d="M131,86.416a1.267,1.267,0,0,0-1.406-1.111h-.011l-10.9,1.283-32.19,3.787a1.267,1.267,0,0,0-1.118,1.386l3.8,40.554a1.267,1.267,0,0,0,1.267,1.148h.144l44.356-5.069a1.267,1.267,0,0,0,1.115-1.4l0-.016Z" transform="translate(-75.227 -56.322)" fill="#ffe082"/>
      <path id="Trazado_1001605" data-name="Trazado 1001605" d="M300.008,104.793a1.267,1.267,0,0,1-.9-2.165l6.337-6.337a1.267,1.267,0,0,1,1.823,1.761l-.031.031L300.9,104.42A1.267,1.267,0,0,1,300.008,104.793Z" transform="translate(-263.245 -65.67)" fill="#455a64"/>
      <circle id="Elipse_13675" data-name="Elipse 13675" cx="6.337" cy="6.337" r="6.337" transform="translate(40.565 21.38)" fill="#f44336"/>
    </g>
  </g>
</svg>
