<svg xmlns="http://www.w3.org/2000/svg" width="83.095" height="83.095" viewBox="0 0 83.095 83.095">
  <g id="Grupo_1179601" data-name="Grupo 1179601" transform="translate(-715.524 -347.009)">
    <rect id="Rectángulo_454628" data-name="Rectángulo 454628" width="83.095" height="83.095" rx="5" transform="translate(715.524 347.009)" fill="#ffb900"/>
    <g id="Grupo_1179584" data-name="Grupo 1179584" transform="translate(724.861 357)">
      <path id="Trazado_1001589" data-name="Trazado 1001589" d="M52,6H12a5,5,0,0,0-5,5V44H57V11A5,5,0,0,0,52,6Z" fill="#076df3"/>
      <path id="Trazado_1001590" data-name="Trazado 1001590" d="M61.89,52.55,57,44H7L2.11,52.55a1.012,1.012,0,0,0,.04.97,1,1,0,0,0,.85.47H61a1,1,0,0,0,.85-.47A.986.986,0,0,0,61.89,52.55Z" fill="#282572"/>
      <path id="Trazado_1001591" data-name="Trazado 1001591" d="M61,52H3a1,1,0,0,0-1,1,5,5,0,0,0,5,5H57a5,5,0,0,0,5-5A1,1,0,0,0,61,52Z" fill="#076df3"/>
      <path id="Trazado_1001592" data-name="Trazado 1001592" d="M52.95,9H11.05A1.061,1.061,0,0,0,10,10.07V39.94a1.061,1.061,0,0,0,1.05,1.07h41.9A1.061,1.061,0,0,0,54,39.94V10.07A1.061,1.061,0,0,0,52.95,9Z" fill="#fff"/>
      <rect id="Rectángulo_456380" data-name="Rectángulo 456380" width="12" height="2" rx="1" transform="translate(26 54)" fill="#282572"/>
      <path id="Trazado_1001593" data-name="Trazado 1001593" d="M52,49H12a1,1,0,0,1,0-2H52a1,1,0,0,1,0,2Z" fill="#fff"/>
      <path id="Trazado_1001594" data-name="Trazado 1001594" d="M33,24V9H31V24H10v2H31V41h2V26H54V24Z" fill="#076df3"/>
      <path id="Trazado_1001595" data-name="Trazado 1001595" d="M21,33a5,5,0,0,0-5,5v1a1,1,0,0,0,1,1h8a1,1,0,0,0,1-1V38A5,5,0,0,0,21,33Z" fill="#f37781"/>
      <path id="Trazado_1001596" data-name="Trazado 1001596" d="M21,28a3.009,3.009,0,0,0-3,3v1a3,3,0,0,0,6,0V31A3.009,3.009,0,0,0,21,28Z" fill="#f29494"/>
      <path id="Trazado_1001597" data-name="Trazado 1001597" d="M43,33a5,5,0,0,0-5,5v1a1,1,0,0,0,1,1h8a1,1,0,0,0,1-1V38A5,5,0,0,0,43,33Z" fill="#f37781"/>
      <path id="Trazado_1001598" data-name="Trazado 1001598" d="M43,28a3.009,3.009,0,0,0-3,3v1a3,3,0,0,0,6,0V31A3.009,3.009,0,0,0,43,28Z" fill="#f29494"/>
      <path id="Trazado_1001599" data-name="Trazado 1001599" d="M21,16a5,5,0,0,0-5,5v1a1,1,0,0,0,1,1h8a1,1,0,0,0,1-1V21A5,5,0,0,0,21,16Z" fill="#f37781"/>
      <path id="Trazado_1001600" data-name="Trazado 1001600" d="M21,11a3.009,3.009,0,0,0-3,3v1a3,3,0,0,0,6,0V14A3.009,3.009,0,0,0,21,11Z" fill="#f29494"/>
      <path id="Trazado_1001601" data-name="Trazado 1001601" d="M43,16a5,5,0,0,0-5,5v1a1,1,0,0,0,1,1h8a1,1,0,0,0,1-1V21A5,5,0,0,0,43,16Z" fill="#f37781"/>
      <path id="Trazado_1001602" data-name="Trazado 1001602" d="M43,11a3.009,3.009,0,0,0-3,3v1a3,3,0,0,0,6,0V14A3.009,3.009,0,0,0,43,11Z" fill="#f29494"/>
    </g>
  </g>
</svg>
