<svg xmlns="http://www.w3.org/2000/svg" xmlns:xlink="http://www.w3.org/1999/xlink" width="346" height="308.507" viewBox="0 0 346 308.507">
  <defs>
    <clipPath id="clip-path">
      <rect id="Rectángulo_456369" data-name="Rectángulo 456369" width="310.55" height="301.799" fill="none"/>
    </clipPath>
  </defs>
  <g id="Grupo_1179604" data-name="Grupo 1179604" transform="translate(-548 -2031.242)">
    <path id="Rectángulo_456208" data-name="Rectángulo 456208" d="M120,0H301a45,45,0,0,1,45,45V205a45,45,0,0,1-45,45H45A45,45,0,0,1,0,205V120A120,120,0,0,1,120,0Z" transform="translate(548 2031.242)" fill="#062f18" opacity="0.07"/>
    <g id="Grupo_1179395" data-name="Grupo 1179395" transform="translate(576.999 2037.95)">
      <g id="Grupo_1179394" data-name="Grupo 1179394" clip-path="url(#clip-path)">
        <path id="Trazado_1000875" data-name="Trazado 1000875" d="M290.914,16.565V174.853a4.71,4.71,0,0,1-4.459,4.925H56.937a4.71,4.71,0,0,1-4.459-4.925V16.565a4.71,4.71,0,0,1,4.459-4.927H286.455a4.71,4.71,0,0,1,4.459,4.927" fill="#efe5d6"/>
        <path id="Trazado_1000876" data-name="Trazado 1000876" d="M149.536,85.564H134.369a.646.646,0,1,1,0-1.293h15.167a.646.646,0,0,1,0,1.293" fill="#c8c0a5"/>
        <path id="Trazado_1000877" data-name="Trazado 1000877" d="M149.536,89.02H134.369a.646.646,0,1,1,0-1.293h15.167a.646.646,0,0,1,0,1.293" fill="#c8c0a5"/>
        <path id="Trazado_1000878" data-name="Trazado 1000878" d="M71.351,69.858H91.442V49.767H71.351Zm23.51,3.419H67.931V46.347h26.93Z" fill="#c8c0a5"/>
        <path id="Trazado_1000879" data-name="Trazado 1000879" d="M101.629,69.858H121.72V49.767H101.629Zm23.51,3.419H98.209V46.347h26.93Z" fill="#c8c0a5"/>
        <path id="Trazado_1000880" data-name="Trazado 1000880" d="M119.032,53.9H104.791a.607.607,0,1,1,0-1.214h14.241a.607.607,0,1,1,0,1.214" fill="#c8c0a5"/>
        <path id="Trazado_1000881" data-name="Trazado 1000881" d="M119.032,57.146H104.791a.607.607,0,1,1,0-1.214h14.241a.607.607,0,1,1,0,1.214" fill="#c8c0a5"/>
        <path id="Trazado_1000882" data-name="Trazado 1000882" d="M131.907,69.858H152V49.767H131.907Zm23.51,3.419h-26.93V46.347h26.93Z" fill="#d69742"/>
        <path id="Trazado_1000883" data-name="Trazado 1000883" d="M162.185,69.858h20.091V49.767H162.185Zm23.51,3.419h-26.93V46.347H185.7Z" fill="#c8c0a5"/>
        <path id="Trazado_1000884" data-name="Trazado 1000884" d="M179.35,53.9H165.109a.607.607,0,0,1,0-1.214H179.35a.607.607,0,0,1,0,1.214" fill="#c8c0a5"/>
        <path id="Trazado_1000885" data-name="Trazado 1000885" d="M179.35,57.146H165.109a.607.607,0,0,1,0-1.214H179.35a.607.607,0,0,1,0,1.214" fill="#c8c0a5"/>
        <path id="Trazado_1000886" data-name="Trazado 1000886" d="M192.463,69.858h20.091V49.767H192.463Zm23.51,3.419h-26.93V46.347h26.93Z" fill="#c8c0a5"/>
        <path id="Trazado_1000887" data-name="Trazado 1000887" d="M253.019,69.858H273.11V49.767H253.019Zm23.51,3.419H249.6V46.347h26.93Z" fill="#c8c0a5"/>
        <path id="Trazado_1000888" data-name="Trazado 1000888" d="M222.74,69.858h20.091V49.767H222.74Zm23.511,3.419H219.322V46.347h26.929Zm-19.694-8.083a39.054,39.054,0,0,0,5.576-4.292,34.887,34.887,0,0,1-4.527-6.875.946.946,0,0,1,1.718-.791,34.036,34.036,0,0,0,4.181,6.341,32.86,32.86,0,0,0,4.2-5.09.946.946,0,1,1,1.611.991,33.632,33.632,0,0,1-4.57,5.551,38.789,38.789,0,0,0,4.362,4.173.946.946,0,1,1-1.2,1.466,41.139,41.139,0,0,1-4.538-4.324,41.16,41.16,0,0,1-5.8,4.448.945.945,0,0,1-1.3-.293.946.946,0,0,1,.293-1.305" fill="#ce663d"/>
        <path id="Trazado_1000889" data-name="Trazado 1000889" d="M71.351,101.61H91.442V81.519H71.351Zm23.51,3.419H67.931V78.1h26.93Z" fill="#c8c0a5"/>
        <path id="Trazado_1000890" data-name="Trazado 1000890" d="M101.629,101.61H121.72V81.519H101.629Zm23.51,3.419H98.209V78.1h26.93Z" fill="#48633a"/>
        <path id="Trazado_1000891" data-name="Trazado 1000891" d="M107.931,96.966a1.052,1.052,0,0,1-.185-.017,1.023,1.023,0,0,1-.723-.533l-2.059-3.939a1.024,1.024,0,0,1,1.815-.949l1.452,2.778,9.7-8.611a1.024,1.024,0,1,1,1.359,1.531l-10.683,9.482a1.024,1.024,0,0,1-.68.258" fill="#48633a"/>
        <path id="Trazado_1000892" data-name="Trazado 1000892" d="M131.907,101.61H152V81.519H131.907Zm23.51,3.419h-26.93V78.1h26.93Z" fill="#c8c0a5"/>
        <path id="Trazado_1000893" data-name="Trazado 1000893" d="M162.185,101.61h20.091V81.519H162.185Zm23.51,3.419h-26.93V78.1H185.7Z" fill="#48633a"/>
        <path id="Trazado_1000894" data-name="Trazado 1000894" d="M169.012,96.966a1.052,1.052,0,0,1-.185-.017,1.023,1.023,0,0,1-.723-.533l-2.059-3.939a1.024,1.024,0,0,1,1.815-.949l1.453,2.778,9.7-8.611a1.024,1.024,0,1,1,1.36,1.531l-10.684,9.482a1.024,1.024,0,0,1-.68.258" fill="#48633a"/>
        <path id="Trazado_1000895" data-name="Trazado 1000895" d="M192.463,101.61h20.091V81.519H192.463Zm23.51,3.419h-26.93V78.1h26.93Z" fill="#c8c0a5"/>
        <path id="Trazado_1000896" data-name="Trazado 1000896" d="M222.741,101.61h20.091V81.519H222.741Zm23.51,3.419h-26.93V78.1h26.93Z" fill="#c8c0a5"/>
        <path id="Trazado_1000897" data-name="Trazado 1000897" d="M253.019,101.61H273.11V81.519H253.019Zm23.51,3.419H249.6V78.1h26.93Z" fill="#c8c0a5"/>
        <path id="Trazado_1000898" data-name="Trazado 1000898" d="M270.185,85.031H255.944a.607.607,0,0,1,0-1.214h14.241a.607.607,0,0,1,0,1.214" fill="#c8c0a5"/>
        <path id="Trazado_1000899" data-name="Trazado 1000899" d="M270.185,88.277H255.944a.607.607,0,0,1,0-1.214h14.241a.607.607,0,0,1,0,1.214" fill="#c8c0a5"/>
        <path id="Trazado_1000900" data-name="Trazado 1000900" d="M71.351,133.362H91.442V113.271H71.351Zm23.51,3.419H67.931v-26.93h26.93Z" fill="#c8c0a5"/>
        <path id="Trazado_1000901" data-name="Trazado 1000901" d="M101.629,133.362H121.72V113.271H101.629Zm23.51,3.419H98.209v-26.93h26.93Z" fill="#d69742"/>
        <path id="Trazado_1000902" data-name="Trazado 1000902" d="M131.907,133.362H152V113.271H131.907Zm23.51,3.419h-26.93v-26.93h26.93Z" fill="#c8c0a5"/>
        <path id="Trazado_1000903" data-name="Trazado 1000903" d="M162.185,133.362h20.091V113.271H162.185Zm23.51,3.419h-26.93v-26.93H185.7Z" fill="#c8c0a5"/>
        <path id="Trazado_1000904" data-name="Trazado 1000904" d="M192.463,133.362h20.091V113.271H192.463Zm23.51,3.419h-26.93v-26.93h26.93Z" fill="#c8c0a5"/>
        <path id="Trazado_1000905" data-name="Trazado 1000905" d="M209.629,117.164H195.388a.607.607,0,0,1,0-1.214h14.241a.607.607,0,0,1,0,1.214" fill="#c8c0a5"/>
        <path id="Trazado_1000906" data-name="Trazado 1000906" d="M209.629,120.409H195.388a.607.607,0,0,1,0-1.214h14.241a.607.607,0,0,1,0,1.214" fill="#c8c0a5"/>
        <path id="Trazado_1000907" data-name="Trazado 1000907" d="M222.74,133.362h20.091V113.271H222.74Zm23.511,3.42H219.322v-26.93h26.929ZM226.557,128.7a39.125,39.125,0,0,0,5.576-4.291,34.908,34.908,0,0,1-4.527-6.876.946.946,0,0,1,1.718-.791,34.036,34.036,0,0,0,4.181,6.341,32.86,32.86,0,0,0,4.2-5.09.946.946,0,1,1,1.611.991,33.632,33.632,0,0,1-4.57,5.551,38.881,38.881,0,0,0,4.362,4.174.945.945,0,1,1-1.2,1.465,41.138,41.138,0,0,1-4.538-4.324,41.16,41.16,0,0,1-5.8,4.448.946.946,0,0,1-1.012-1.6" fill="#ce663d"/>
        <path id="Trazado_1000908" data-name="Trazado 1000908" d="M253.019,133.362H273.11V113.271H253.019Zm23.51,3.419H249.6v-26.93h26.93Z" fill="#c8c0a5"/>
        <path id="Trazado_1000909" data-name="Trazado 1000909" d="M71.351,165.113H91.442V145.022H71.351Zm23.51,3.42H67.931V141.6h26.93Z" fill="#c8c0a5"/>
        <path id="Trazado_1000910" data-name="Trazado 1000910" d="M101.629,165.113H121.72V145.022H101.629Zm23.51,3.42H98.209V141.6h26.93Z" fill="#c8c0a5"/>
        <path id="Trazado_1000911" data-name="Trazado 1000911" d="M131.907,165.113H152V145.022H131.907Zm23.51,3.42h-26.93V141.6h26.93Z" fill="#c8c0a5"/>
        <path id="Trazado_1000912" data-name="Trazado 1000912" d="M162.185,165.113h20.091V145.022H162.185Zm23.51,3.42h-26.93V141.6H185.7Z" fill="#c8c0a5"/>
        <path id="Trazado_1000913" data-name="Trazado 1000913" d="M179.35,148.861H165.109a.607.607,0,0,1,0-1.214H179.35a.607.607,0,0,1,0,1.214" fill="#c8c0a5"/>
        <path id="Trazado_1000914" data-name="Trazado 1000914" d="M179.35,152.107H165.109a.607.607,0,0,1,0-1.214H179.35a.607.607,0,1,1,0,1.214" fill="#c8c0a5"/>
        <path id="Trazado_1000915" data-name="Trazado 1000915" d="M192.463,165.113h20.091V145.022H192.463Zm23.51,3.42h-26.93V141.6h26.93Z" fill="#c8c0a5"/>
        <path id="Trazado_1000916" data-name="Trazado 1000916" d="M222.741,165.113h20.091V145.022H222.741Zm23.51,3.42h-26.93V141.6h26.93Z" fill="#c8c0a5"/>
        <path id="Trazado_1000917" data-name="Trazado 1000917" d="M253.019,165.113H273.11V145.022H253.019Zm23.51,3.42H249.6V141.6h26.93Z" fill="#d69742"/>
        <rect id="Rectángulo_456362" data-name="Rectángulo 456362" width="27.24" height="4.477" transform="translate(67.769 36.387)" fill="#48633a"/>
        <rect id="Rectángulo_456363" data-name="Rectángulo 456363" width="27.24" height="4.477" transform="translate(98.048 36.387)" fill="#d69742"/>
        <rect id="Rectángulo_456364" data-name="Rectángulo 456364" width="27.24" height="4.477" transform="translate(128.327 36.387)" fill="#ce663d"/>
        <rect id="Rectángulo_456365" data-name="Rectángulo 456365" width="27.24" height="4.477" transform="translate(158.606 36.387)" fill="#48633a"/>
        <rect id="Rectángulo_456366" data-name="Rectángulo 456366" width="27.24" height="4.477" transform="translate(249.444 36.387)" fill="#48633a"/>
        <rect id="Rectángulo_456367" data-name="Rectángulo 456367" width="27.24" height="4.477" transform="translate(188.886 36.387)" fill="#d69742"/>
        <rect id="Rectángulo_456368" data-name="Rectángulo 456368" width="27.24" height="4.477" transform="translate(219.165 36.387)" fill="#ce663d"/>
        <path id="Trazado_1000918" data-name="Trazado 1000918" d="M290.914,16.1v12.33H52.478V16.1a4.46,4.46,0,0,1,4.459-4.461H286.455a4.46,4.46,0,0,1,4.459,4.461" fill="#14221f"/>
        <path id="Trazado_1000919" data-name="Trazado 1000919" d="M261.856,20.034a3.306,3.306,0,1,1-3.306-3.306,3.306,3.306,0,0,1,3.306,3.306" fill="#efe5d6"/>
        <path id="Trazado_1000920" data-name="Trazado 1000920" d="M282.173,20.034a3.306,3.306,0,1,1-3.306-3.306,3.306,3.306,0,0,1,3.306,3.306" fill="#ce663d"/>
        <path id="Trazado_1000921" data-name="Trazado 1000921" d="M272.007,20.034a3.306,3.306,0,1,1-3.306-3.306,3.306,3.306,0,0,1,3.306,3.306" fill="#d69742"/>
        <path id="Trazado_1000922" data-name="Trazado 1000922" d="M201.955,291.325c0,5.785-42.771,10.474-95.533,10.474S10.89,297.11,10.89,291.325s42.771-10.474,95.532-10.474,95.533,4.689,95.533,10.474" fill="#e7ddcd"/>
        <path id="Trazado_1000923" data-name="Trazado 1000923" d="M167.311,267.906a51.848,51.848,0,0,1-5.11,4.471c-9.222,7.08-21.968,12.156-38.9,13.85C36.7,294.893,8.091,254.271,1.1,191.771c-3.115-27.854,4.178-46.231,13.223-58.051q1.419-1.851,2.883-3.491.825-.927,1.69-1.811a51.528,51.528,0,0,1,45.1-14.816c13.02,2.143,24.85,9.1,34.448,23,15.35,22.227-1.257,42.937,40.756,55.638,28.112,8.5,58.8,45.049,28.112,75.668" fill="#ffb900"/>
        <path id="Trazado_1000924" data-name="Trazado 1000924" d="M34.738,132.946s-10.24,21.909,1.583,62.128,27.484,37.05,37.6,37.05c17.674,0,53.467-16.649,60.462-29.764s-6.2-13.9-30.92-15.838S60.3,124.268,34.738,132.946" fill="#b47427"/>
        <path id="Trazado_1000925" data-name="Trazado 1000925" d="M56.945,249.053a.782.782,0,0,0,.542-.217c16.628-15.81,31.987-19.457,32.141-19.492a.787.787,0,0,0-.351-1.534,52.286,52.286,0,0,0-10.054,3.85A91.2,91.2,0,0,0,56.4,247.7a.787.787,0,0,0,.542,1.357" fill="#b47427"/>
        <path id="Trazado_1000926" data-name="Trazado 1000926" d="M59.864,239.208a.777.777,0,0,0,.438-.134,50.238,50.238,0,0,1,20.622-6.827.787.787,0,1,0-.171-1.564,50.816,50.816,0,0,0-21.329,7.086.787.787,0,0,0,.44,1.439" fill="#b47427"/>
        <path id="Trazado_1000927" data-name="Trazado 1000927" d="M167.311,267.906a51.848,51.848,0,0,1-5.11,4.471c-10.658,6.4-23.659,10.609-37.981,12.255a117.471,117.471,0,0,1-13.413.763,118.709,118.709,0,0,1-36.448-5.712c-30.4-9.846-52.327-30.908-61.754-59.31C7.436,204.8,4.9,189.659,5.062,175.364a102.036,102.036,0,0,1,5.506-32.5,91.073,91.073,0,0,1,3.751-9.146q1.419-1.851,2.883-3.491.825-.927,1.69-1.811a85.8,85.8,0,0,0-6.886,15.045c-5.432,15.641-9.484,41.6,2.075,76.42,9.267,27.92,30.845,48.631,60.758,58.321,31.779,10.293,68.535,6.121,91.464-10.384a.779.779,0,0,1,1.008.086" fill="#b47427"/>
        <path id="Trazado_1000928" data-name="Trazado 1000928" d="M95.051,140.855s13.825,32.323,8.861,40.2c-3.369,5.344-8.973,4.2-13.579-5.554a179.473,179.473,0,0,1-10.189-28.27Z" fill="#ecb886"/>
        <path id="Trazado_1000929" data-name="Trazado 1000929" d="M82.565,114.713s7.564,5,16.1,31c0,0-3.308,5.464-13.691,5.365,0,0-6.173-12.2-7.376-20.57s-.227-13.56,4.97-15.792" fill="#9db8a9"/>
        <path id="Trazado_1000930" data-name="Trazado 1000930" d="M49.877,202.454s3.873,14.577,6.8,18.362c7.32,9.477,47.336-.054,50.382-9.929s-5.258-20.664-5.258-20.664Z" fill="#14221f"/>
        <path id="Trazado_1000931" data-name="Trazado 1000931" d="M105.212,191.978a27.968,27.968,0,0,1-2.925,3.45c-.033.036-.07.07-.105.1-.779.783-1.623,1.551-2.521,2.3-.323.266-.651.531-.984.79a50.329,50.329,0,0,1-9.123,5.6q-.46.227-.935.439c-.906.418-1.832.817-2.777,1.19-.315.129-.635.251-.955.372a59.8,59.8,0,0,1-11.632,3.107q-.714.115-1.432.211-1.913.263-3.853.385c-.031,0-.061,0-.093.008-.389.023-.78.044-1.171.06a51.5,51.5,0,0,1-6.331-.126,45.709,45.709,0,0,1-5.5-.782c-.31-.06-.618-.129-.927-.195-.386-.089-.77-.181-1.152-.28-.034-.008-.071-.015-.108-.025-3.227-5.229-9.635-24.94-11.477-30.847-.371-1.176-.713-2.358-1.041-3.542-.735-2.682-1.369-5.391-1.938-8.152-.074-.362-.147-.721-.216-1.087-.041-.2-.083-.4-.122-.608-.5-2.571-.947-5.186-1.369-7.862-.053-.334-.1-.668-.158-1q-.371-2.437-.729-4.94c-.505-3.542-1-7.2-1.531-11-.855-6.118-.546-11.137.937-14.795a12.615,12.615,0,0,1,1.343-2.5,9.629,9.629,0,0,1,4.573-3.566,28.029,28.029,0,0,0,3.144-1.4c.176-.089.343-.179.51-.272.527-.288,1.017-.583,1.473-.873.526-.338,1.005-.674,1.436-1l.205-.151c.114-.091.229-.176.337-.266a22.36,22.36,0,0,0,2.553-2.36,1.167,1.167,0,0,1,.629-.357l13.172-2.7a1.171,1.171,0,0,1,1.01.274l0,0c.014.009.022.019.032.026a10.809,10.809,0,0,0,3.912,2.135c.259.082.521.152.778.217.2.054.4.1.607.141s.42.082.63.118c.5.086,1,.152,1.5.209.005,0,.011,0,.017,0,3.65.392,7.228.148,9.657,2.287a6.5,6.5,0,0,1,1.025,1.153,8.267,8.267,0,0,1,.841,1.548,6.863,6.863,0,0,1,.353,1.1c.99,4.118.2,12.379,3.427,26.742q.3,1.343.651,2.75c.069.28.139.563.212.846.145.58.3,1.166.461,1.764v0c.163.6.329,1.205.5,1.82.323,1.147.674,2.33,1.051,3.536q.489,1.593,1.05,3.258.57,1.7,1.206,3.489c1.7,4.736,5.244,14.1,8.557,21.9.52,1.227,1.037,2.414,1.538,3.539.054.119.1.235.158.351.559,1.252,1.1,2.42,1.611,3.469" fill="#9db8a9"/>
        <path id="Trazado_1000932" data-name="Trazado 1000932" d="M63.972,130.745c-7.969,0-15.121-15.5-15.425-16.166a.5.5,0,0,1,.91-.415c.071.158,7.186,15.581,14.512,15.581.08,0,.162,0,.244-.006a3.225,3.225,0,0,0,2.583-1.37c3.214-4.348.013-17.074-.021-17.2a.5.5,0,1,1,.969-.247c.138.541,3.351,13.315-.143,18.043a4.225,4.225,0,0,1-3.342,1.775c-.1,0-.193.007-.287.007" fill="#fff"/>
        <path id="Trazado_1000933" data-name="Trazado 1000933" d="M89.438,149.13a.375.375,0,0,1-.369-.312,179.827,179.827,0,0,0-5.991-25.083.375.375,0,0,1,.713-.233,180.6,180.6,0,0,1,6.017,25.189.375.375,0,0,1-.306.434.471.471,0,0,1-.064.005" fill="#26443b"/>
        <path id="Trazado_1000934" data-name="Trazado 1000934" d="M68.139,136.294,80.6,132.727s7.074,15.821-.654,18.26c-8.958,2.827-11.8-14.693-11.8-14.693" fill="#26443b"/>
        <path id="Trazado_1000935" data-name="Trazado 1000935" d="M65.174,132.123a18.117,18.117,0,0,1-8.026-.368A33.139,33.139,0,0,1,48,127.784a.361.361,0,0,1-.113-.467.3.3,0,0,1,.43-.106,32.524,32.524,0,0,0,8.965,3.888c6.571,1.641,11.637.18,15.056-4.344a.3.3,0,0,1,.442-.039.361.361,0,0,1,.05.478A12.572,12.572,0,0,1,65.28,132.1l-.106.022" fill="#26443b"/>
        <path id="Trazado_1000936" data-name="Trazado 1000936" d="M63.8,126.28c-3.331.682-7.794-1.389-8.04-1.5a.36.36,0,0,1-.173-.448.3.3,0,0,1,.409-.172c.075.035,7.531,3.5,9.968.058a.3.3,0,0,1,.439-.054.36.36,0,0,1,.064.476A4.15,4.15,0,0,1,63.8,126.28" fill="#26443b"/>
        <path id="Trazado_1000937" data-name="Trazado 1000937" d="M83.623,178.851a22.741,22.741,0,0,1-3.878.564A32.471,32.471,0,0,1,69,178.1a48.71,48.71,0,0,1-11.445-4.938.36.36,0,0,1-.123-.464.3.3,0,0,1,.427-.116,48.069,48.069,0,0,0,11.294,4.868c5.882,1.658,14.329,2.59,21.169-2.382a.305.305,0,0,1,.438.1.35.35,0,0,1-.073.469,19.6,19.6,0,0,1-7.066,3.222" fill="#26443b"/>
        <path id="Trazado_1000938" data-name="Trazado 1000938" d="M81.981,167.4a22.867,22.867,0,0,1-3.556,1.648,32.521,32.521,0,0,1-10.673,1.8,48.718,48.718,0,0,1-12.377-1.465.361.361,0,0,1-.251-.41.3.3,0,0,1,.376-.233,48.053,48.053,0,0,0,12.214,1.441c6.111-.091,14.472-1.609,19.607-8.326a.306.306,0,0,1,.448-.033.35.35,0,0,1,.064.471,19.615,19.615,0,0,1-5.852,5.105" fill="#26443b"/>
        <path id="Trazado_1000939" data-name="Trazado 1000939" d="M108.165,267.427l-2.486,14.419,10.912.66,5.37-15.617Z" fill="#ecb886"/>
        <path id="Trazado_1000940" data-name="Trazado 1000940" d="M142.172,298.583l-39,.322a5.473,5.473,0,0,1-.531-2.162c-.271-3.3.738-8.571,1.225-11.9.06-.388.11-.751.149-1.079a11.249,11.249,0,0,0,.1-1.357,1.989,1.989,0,0,1,2.38-2.264c3.979,3.837,8.4-2,11.025-.121,0,0,1.13.8,4.25,3.556s8.4,4.556,12.9,6.395c5.808,2.371,7.469,4.774,7.8,6.436a3.048,3.048,0,0,1-.3,2.169" fill="#f6e9e5"/>
        <path id="Trazado_1000941" data-name="Trazado 1000941" d="M142.172,298.583l-39,.322a5.473,5.473,0,0,1-.531-2.162l39.836-.329a3.048,3.048,0,0,1-.3,2.169" fill="#ab4425"/>
        <path id="Trazado_1000942" data-name="Trazado 1000942" d="M107.149,298.872l-1.158.01a8.562,8.562,0,0,0,2.044-6.263,10.994,10.994,0,0,0-4.171-7.771c.06-.388.11-.751.149-1.079a11.95,11.95,0,0,1,4.951,8.8,9.47,9.47,0,0,1-1.815,6.307" fill="#ab4425"/>
        <path id="Trazado_1000943" data-name="Trazado 1000943" d="M121.13,285.89a.643.643,0,0,1-.165-1.265L123.4,284a.643.643,0,0,1,.32,1.245l-2.432.624a.6.6,0,0,1-.155.021" fill="#ab4425"/>
        <path id="Trazado_1000944" data-name="Trazado 1000944" d="M118.892,284.021a.643.643,0,0,1-.165-1.265l2.432-.625a.643.643,0,1,1,.319,1.245l-2.431.625a.64.64,0,0,1-.155.02" fill="#ab4425"/>
        <path id="Trazado_1000945" data-name="Trazado 1000945" d="M123.578,287.286a.643.643,0,0,1-.165-1.265l2.432-.625a.643.643,0,1,1,.32,1.245l-2.432.624a.591.591,0,0,1-.155.021" fill="#ab4425"/>
        <path id="Trazado_1000946" data-name="Trazado 1000946" d="M126.026,288.627a.643.643,0,0,1-.165-1.266l2.432-.624a.642.642,0,0,1,.32,1.244l-2.432.625a.59.59,0,0,1-.155.021" fill="#ab4425"/>
        <path id="Trazado_1000947" data-name="Trazado 1000947" d="M128.693,289.864a.643.643,0,0,1-.165-1.265l2.432-.625a.643.643,0,0,1,.32,1.245l-2.432.625a.64.64,0,0,1-.155.02" fill="#ab4425"/>
        <path id="Trazado_1000948" data-name="Trazado 1000948" d="M131.583,290.914a.643.643,0,0,1-.165-1.265l2.432-.625a.643.643,0,0,1,.32,1.245l-2.432.625a.64.64,0,0,1-.155.02" fill="#ab4425"/>
        <path id="Trazado_1000949" data-name="Trazado 1000949" d="M101.548,188.687s35.606,2.9,37.526,17.985-18.833,66.674-18.833,66.674l-13.41.994.26-25.416c.313-14.191,0-21.987,3.4-29.069l-27.95,2.739s-.667-28.509,19.007-33.907" fill="#14221f"/>
        <path id="Trazado_1000950" data-name="Trazado 1000950" d="M109.871,270.137a.552.552,0,0,1-.141.006.512.512,0,0,1-.46-.558c.018-.188,1.822-18.944,1.738-32.157a41.972,41.972,0,0,1,6.461-22.116c-3.1.489-8.367.71-8.622.72a.511.511,0,1,1-.042-1.021,77.072,77.072,0,0,0,9.658-.934.512.512,0,0,1,.533.8,40.516,40.516,0,0,0-6.966,22.541c.085,13.266-1.724,32.073-1.742,32.261a.512.512,0,0,1-.417.454" fill="#43574f"/>
        <path id="Trazado_1000951" data-name="Trazado 1000951" d="M121.623,269.989a.537.537,0,0,1-.07.008l-14.382.628a.511.511,0,1,1-.044-1.021l14.381-.628a.511.511,0,0,1,.115,1.013" fill="#43574f"/>
        <path id="Trazado_1000952" data-name="Trazado 1000952" d="M170.213,240l11.264,8.35,7.1-8.308L177.26,228.907Z" fill="#ecb886"/>
        <path id="Trazado_1000953" data-name="Trazado 1000953" d="M216.831,229.325l-23.256,31.312a5.441,5.441,0,0,1-2.045-.879c-2.794-1.772-6.394-5.756-8.752-8.149-.274-.281-.533-.54-.771-.769a11.305,11.305,0,0,0-1.019-.9,1.99,1.99,0,0,1-.373-3.264c5.461-.861,3.466-7.909,6.55-8.869,0,0,1.317-.422,5.4-1.247s8.7-3.956,12.878-6.436c5.394-3.2,8.313-3.081,9.84-2.346a3.044,3.044,0,0,1,1.548,1.549" fill="#f6e9e5"/>
        <path id="Trazado_1000954" data-name="Trazado 1000954" d="M216.831,229.325l-23.256,31.312a5.441,5.441,0,0,1-2.045-.879l23.753-31.982a3.044,3.044,0,0,1,1.548,1.549" fill="#ab4425"/>
        <path id="Trazado_1000955" data-name="Trazado 1000955" d="M195.947,257.442l-.691.93a8.56,8.56,0,0,0-3.763-5.407,11,11,0,0,0-8.716-1.357c-.273-.281-.532-.54-.77-.769a11.949,11.949,0,0,1,10,1.353,9.462,9.462,0,0,1,3.938,5.25" fill="#ab4425"/>
        <path id="Trazado_1000956" data-name="Trazado 1000956" d="M194.018,238.461a.643.643,0,0,1-1.109-.631l.967-2.317a.643.643,0,1,1,1.186.495l-.967,2.317a.647.647,0,0,1-.077.136" fill="#ab4425"/>
        <path id="Trazado_1000957" data-name="Trazado 1000957" d="M191.178,239.121a.643.643,0,0,1-1.109-.631l.967-2.317a.643.643,0,1,1,1.186.495l-.967,2.317a.647.647,0,0,1-.077.136" fill="#ab4425"/>
        <path id="Trazado_1000958" data-name="Trazado 1000958" d="M196.608,237.349a.643.643,0,0,1-1.109-.632l.967-2.316a.643.643,0,1,1,1.186.495l-.967,2.317a.647.647,0,0,1-.077.136" fill="#ab4425"/>
        <path id="Trazado_1000959" data-name="Trazado 1000959" d="M199.154,236.205a.643.643,0,0,1-1.109-.632l.967-2.316a.643.643,0,1,1,1.186.495l-.967,2.317a.606.606,0,0,1-.077.136" fill="#ab4425"/>
        <path id="Trazado_1000960" data-name="Trazado 1000960" d="M201.749,234.823a.643.643,0,0,1-1.109-.631l.967-2.317a.643.643,0,1,1,1.186.495l-.967,2.317a.605.605,0,0,1-.077.136" fill="#ab4425"/>
        <path id="Trazado_1000961" data-name="Trazado 1000961" d="M204.328,233.15a.643.643,0,0,1-1.109-.631l.967-2.317a.643.643,0,0,1,1.186.5l-.967,2.317a.605.605,0,0,1-.077.136" fill="#ab4425"/>
        <path id="Trazado_1000962" data-name="Trazado 1000962" d="M51.426,207.97s55.333-25.488,70.8-24.14,62.526,50.757,62.526,50.757l-9.4,10.049s-10.9-5.921-24.258-12.793-26.411-15.662-32.856-23.185c0,0-28.6,22.064-46.9,23.045s-19.91-23.733-19.91-23.733" fill="#14221f"/>
        <path id="Trazado_1000963" data-name="Trazado 1000963" d="M135.918,223.521a.5.5,0,0,1-.295-.034c-9.484-4.117-16.026-11.978-17.609-14.011-3.533,3.459-15.273,10.434-15.793,10.742a.511.511,0,1,1-.522-.879c.132-.079,13.21-7.847,15.977-10.987a.511.511,0,0,1,.8.04c.068.1,6.925,9.542,17.556,14.157a.511.511,0,0,1-.113.972" fill="#43574f"/>
        <path id="Trazado_1000964" data-name="Trazado 1000964" d="M172.3,242.812a.511.511,0,0,1-.47-.847l9.515-10.432a.511.511,0,1,1,.755.688l-9.514,10.433a.516.516,0,0,1-.286.158" fill="#43574f"/>
        <path id="Trazado_1000965" data-name="Trazado 1000965" d="M174.227,240.468a.513.513,0,0,1-.35-.062c-.236-.138-23.657-13.888-34.711-19.567-9.981-5.127-17.758-15.057-19.369-17.209-3.008,2.169-21.82,15.411-40.912,21.414-8.642,2.717-14.8,1.563-18.44.115a15.721,15.721,0,0,1-5.96-3.9.511.511,0,0,1,.782-.659,15.071,15.071,0,0,0,5.615,3.631c3.48,1.369,9.374,2.452,17.7-.164,20.56-6.464,40.822-21.412,41.024-21.562a.512.512,0,0,1,.722.115c.082.116,8.358,11.682,19.309,17.308,11.08,5.692,34.526,19.456,34.761,19.594a.511.511,0,0,1-.167.944" fill="#43574f"/>
        <path id="Trazado_1000966" data-name="Trazado 1000966" d="M74.492,93.867S77.184,91.15,77,87.922s-2.508-3.911-2.508-3.911,7.064-3.6,5.684-6.76-5.956.383-5.956.383,3.683-5.693-.3-6.071-7.594,3.091-7.594,3.091-2.275-2.711-7.515-.594-5.929,3.848-5.929,3.848-4.657-1.963-6.4.363,2.89,3.29,2.89,3.29-6.93,1.866-5.374,3.792,4.655.657,4.655.657a14.486,14.486,0,0,0-.724,13.712c3.493,7.63,5.659,7.185,5.659,7.185s9.184-15.81,20.911-13.04" fill="#d69742"/>
        <path id="Trazado_1000967" data-name="Trazado 1000967" d="M69.671,95.89s1.609-4.124,4.975-2.941,2.75,12.6-3.752,11.818Z" fill="#cd8055"/>
        <path id="Trazado_1000968" data-name="Trazado 1000968" d="M67.746,109.029s-.03.054-.079.165c-.007.02-.015.037-.021.055a16.366,16.366,0,0,0-1.107,6.9q.018.814.107,1.713a12.747,12.747,0,0,1-1.384.706c-2.15.961-4.213,1.976-8.569.188-6.123-2.516-5.765-5.861-5.765-5.861l1.225-13.949Z" fill="#ecb886"/>
        <path id="Trazado_1000969" data-name="Trazado 1000969" d="M67.645,109.249a16.377,16.377,0,0,0-1.106,6.9A13.522,13.522,0,0,1,53.765,105.7l13.9,3.5c-.007.019-.015.037-.022.054" fill="#292a2e"/>
        <path id="Trazado_1000970" data-name="Trazado 1000970" d="M59.531,112.117c6.669,2.025,12.394-.343,13.645-6.112.3-1.391.587-3.42.832-5.54,0-.022,0-.042.008-.064.051-.45.1-.907.151-1.361q.054-.5.1-.986c.386-3.786.629-7.228.629-7.228-.015-9.5-8.965-13.961-16.788-11.156s-6.126,14.544-6.676,20.135a11.215,11.215,0,0,0,8.1,12.312" fill="#ecb886"/>
        <path id="Trazado_1000971" data-name="Trazado 1000971" d="M63.887,93.931c-.051.651-.4,1.155-.784,1.125s-.65-.583-.6-1.234.4-1.155.784-1.125.65.583.6,1.234" fill="#292a2e"/>
        <path id="Trazado_1000972" data-name="Trazado 1000972" d="M71.049,94.483c-.051.651-.4,1.155-.784,1.125s-.65-.583-.6-1.234.4-1.155.784-1.125.65.583.6,1.234" fill="#292a2e"/>
        <path id="Trazado_1000973" data-name="Trazado 1000973" d="M66.287,103.531a4.311,4.311,0,0,1-1.086-.288,6.9,6.9,0,0,1-3.166-3.036.279.279,0,1,1,.5-.251,6.45,6.45,0,0,0,2.876,2.769,2.615,2.615,0,0,0,2.832-.258.279.279,0,0,1,.4.394,2.892,2.892,0,0,1-2.351.67" fill="#292a2e"/>
        <path id="Trazado_1000974" data-name="Trazado 1000974" d="M66.311,105.209a2.539,2.539,0,0,0,.263-.105.37.37,0,0,0-.325-.664,2.369,2.369,0,0,1-2.342-.223.369.369,0,1,0-.443.591,3.051,3.051,0,0,0,2.847.4" fill="#cd8055"/>
        <path id="Trazado_1000975" data-name="Trazado 1000975" d="M74.7,93.362a46.7,46.7,0,0,1-.586-6.457c-.016-1.116-1.444-2.014-2.513-2.337a2.527,2.527,0,0,0-1.282-.1c-1.3.312-1.676,1.737-3.322.982s-3.444-3.514-6.27-2.736-2.154,2.5-3.392,4.234-.317,5.338-1.9,7.618-3.931-5.038-3.931-5.038,1.385-11.223,9.1-12.4,16.308,4.9,14.1,16.233" fill="#d69742"/>
        <path id="Trazado_1000976" data-name="Trazado 1000976" d="M55.514,97.19c-.025.695,1.352,1.309,3.076,1.372s3.143-.449,3.169-1.143-1.352-1.309-3.077-1.372-3.143.448-3.168,1.143" fill="#cd8055"/>
        <path id="Trazado_1000977" data-name="Trazado 1000977" d="M73.227,100.477a7.466,7.466,0,0,0,.781-.011c0-.023.006-.043.008-.065.051-.45.1-.907.152-1.361q.053-.5.1-.986a7.8,7.8,0,0,0-.951-.092c-1.724-.063-3.141.448-3.167,1.142s1.351,1.31,3.076,1.373" fill="#cd8055"/>
        <path id="Trazado_1000978" data-name="Trazado 1000978" d="M67.17,100.525a.311.311,0,0,0,.156-.036c1.654-.884,2.01-1.409,2.065-1.5a.306.306,0,0,0,.006-.291l-1.846-3.6c-.006-.01-.012-.021-.019-.031a5.782,5.782,0,0,1-.28-3.141.307.307,0,1,0-.613-.041c-.1,1.46-.137,2.732.374,3.509l1.745,3.4a7.373,7.373,0,0,1-1.722,1.155.307.307,0,0,0,.134.577" fill="#292a2e"/>
        <path id="Trazado_1000979" data-name="Trazado 1000979" d="M53.592,92.271s-1.621-3.344-4.983-2.149S45.9,102.73,52.4,101.927Z" fill="#ecb886"/>
        <path id="Trazado_1000980" data-name="Trazado 1000980" d="M51.546,97.82a.294.294,0,0,0,.066,0,.306.306,0,0,0,.247-.356c-.025-.142-.664-3.488-3.574-4.273a.306.306,0,1,0-.159.592c2.539.686,3.124,3.759,3.13,3.79a.306.306,0,0,0,.29.252" fill="#292a2e"/>
        <path id="Trazado_1000981" data-name="Trazado 1000981" d="M48.913,96.518a.3.3,0,0,0,.217-.079c.006-.006.651-.586,1.407-1.154a.307.307,0,0,0-.368-.491c-.779.586-1.423,1.165-1.45,1.19a.306.306,0,0,0,.194.534" fill="#292a2e"/>
        <path id="Trazado_1000982" data-name="Trazado 1000982" d="M63.645,87.259s-2.465-.492-3.725.995c-1.159,1.368.364,1.929.988,1.486a4.718,4.718,0,0,1,2.752-.86c1.155-.052.924-1.484-.015-1.621" fill="#d69742"/>
        <path id="Trazado_1000983" data-name="Trazado 1000983" d="M70.165,87.868s2.514.031,3.437,1.747c.85,1.578-.757,1.811-1.275,1.249a4.723,4.723,0,0,0-2.513-1.414c-1.12-.29-.6-1.644.351-1.582" fill="#d69742"/>
        <path id="Trazado_1000984" data-name="Trazado 1000984" d="M25.65,148.648s-6.364,34.575.214,41.162c4.464,4.471,9.678,2.122,12.021-8.409a179.4,179.4,0,0,0,3.71-29.82Z" fill="#ecb886"/>
        <path id="Trazado_1000985" data-name="Trazado 1000985" d="M65.611,180.854c-6.367-.454-14.1-.848-17.466-1.538-4.947-1.014-11.966-2.219-17.417-1.6a7.421,7.421,0,0,0-5.231,11.61A11.131,11.131,0,0,0,33.382,194c9.423,1.31,25.04-.975,33.049-2.764a11.662,11.662,0,0,0-.82-10.386" fill="#ecb886"/>
        <path id="Trazado_1000986" data-name="Trazado 1000986" d="M62.961,179.777s8.97-1.413,11.036.734a14.219,14.219,0,0,1,2.593,3.3Z" fill="#e38f76"/>
        <path id="Trazado_1000987" data-name="Trazado 1000987" d="M57.628,183.469a7.358,7.358,0,0,1,7.366-3.943,42.758,42.758,0,0,1,10.49,2.237c5.207,2.047,9.5,7.118,8.553,8.487s-4.391-4.11-7.176-4.3c0,0,7.591,4.926,7.205,6.855-.415,2.082-5.156-3.673-8.177-4.245,0,0,6.972,5.019,6.229,6-1.145,1.508-3.921-2.427-6.951-2.768,0,0,5.037,3.059,4.453,4.46s-6.917-4.023-10.456-3.513-6.447,1.412-9.057-.528c-1.911-1.42-4.371-4.943-2.479-8.742" fill="#ecb886"/>
        <path id="Trazado_1000988" data-name="Trazado 1000988" d="M38.4,177.82a.386.386,0,0,1-.216.135,27.418,27.418,0,0,0-7.55,3.346.392.392,0,0,1-.432-.655,27.789,27.789,0,0,1,7.8-3.455.393.393,0,0,1,.4.629" fill="#e38f76"/>
        <path id="Trazado_1000989" data-name="Trazado 1000989" d="M37.592,178.029a.392.392,0,0,1-.488.1c-1.565-.827-4.235-.056-4.261-.048a.393.393,0,0,1-.222-.753c.122-.036,3.006-.867,4.849.107a.392.392,0,0,1,.164.53.354.354,0,0,1-.042.064" fill="#e38f76"/>
        <path id="Trazado_1000990" data-name="Trazado 1000990" d="M39.526,119.5s-11.866,5.831-17.238,32.66c0,0,11.54,5.006,21.837,3.67,0,0,4.675-12.846,4.87-21.3s-4.043-13.43-9.469-15.026" fill="#9db8a9"/>
        <path id="Trazado_1000991" data-name="Trazado 1000991" d="M44.565,155.449A.426.426,0,0,1,44,154.89c.05-.116,4.96-11.6,4.2-20.24a.426.426,0,0,1,.849-.074c.775,8.853-4.065,20.174-4.271,20.651a.424.424,0,0,1-.221.222" fill="#26443b"/>
        <path id="Trazado_1000992" data-name="Trazado 1000992" d="M48.834,140.82a.426.426,0,0,1-.455-.707,14.506,14.506,0,0,0,2.8-3.441.426.426,0,1,1,.767.37,15.074,15.074,0,0,1-3,3.7.443.443,0,0,1-.115.074" fill="#26443b"/>
        <path id="Trazado_1000993" data-name="Trazado 1000993" d="M69.27,200.7l51.514-11.181a.269.269,0,0,0,.205-.319l-1.358-6.257a.268.268,0,0,0-.319-.205L67.8,193.915a.269.269,0,0,0-.2.32l1.358,6.257a.269.269,0,0,0,.319.205" fill="#14221f"/>
        <path id="Trazado_1000994" data-name="Trazado 1000994" d="M98.481,194.557a.387.387,0,0,0-.464-.4l-25.762,5.3a.389.389,0,0,0-.3.46.361.361,0,0,0,.028.086.388.388,0,0,0,.431.216l25.76-5.295a.386.386,0,0,0,.309-.355v-.008" fill="#43574f"/>
        <path id="Trazado_1000995" data-name="Trazado 1000995" d="M126.477,188.281a4.424,4.424,0,0,0,3.481-4.115l1.822-38.558a3.59,3.59,0,0,0-4.347-3.677l-23.3,5.057a3.59,3.59,0,0,0-2.822,3.292l-2.651,44.038Z" fill="#14221f"/>
        <path id="Trazado_1000996" data-name="Trazado 1000996" d="M128.49,187.9a.387.387,0,0,0-.464-.4l-25.761,5.3a.388.388,0,0,0-.3.46.413.413,0,0,0,.028.086.388.388,0,0,0,.431.216l25.76-5.3a.386.386,0,0,0,.309-.355V187.9" fill="#43574f"/>
        <path id="Trazado_1000997" data-name="Trazado 1000997" d="M120.229,166.8c-.119,2.527-1.956,5.038-4.1,5.609s-3.793-1.015-3.674-3.542,1.957-5.039,4.105-5.61,3.793,1.016,3.674,3.543" fill="#d69742"/>
        <path id="Trazado_1000998" data-name="Trazado 1000998" d="M115.738,167.132c-.024.506-.195.956-.381,1s-.319-.32-.3-.825.194-.956.381-1,.319.32.295.825" fill="#14221f"/>
        <path id="Trazado_1000999" data-name="Trazado 1000999" d="M117.767,166.593c-.024.505-.195.955-.381,1.005s-.319-.32-.295-.825.194-.956.381-1,.319.32.295.825" fill="#14221f"/>
        <path id="Trazado_1001000" data-name="Trazado 1001000" d="M116.269,170.056c-1.673.444-1.963-1.421-1.966-1.44a.28.28,0,0,1,.141-.271.125.125,0,0,1,.194.1c.01.068.254,1.586,1.65,1.215a2.947,2.947,0,0,0,1.807-2.133.249.249,0,0,1,.209-.2c.09,0,.142.089.118.2,0,.021-.48,2.09-2.153,2.534" fill="#14221f"/>
        <path id="Trazado_1001001" data-name="Trazado 1001001" d="M101.31,150.281l-2.628,43.675-2.662.577,2.628-43.674a3.594,3.594,0,0,1,2.822-3.295l2.663-.578a3.6,3.6,0,0,0-2.823,3.3" fill="#14221f"/>
        <path id="Trazado_1001002" data-name="Trazado 1001002" d="M98.938,191.22a.388.388,0,0,0,.321-.36L101.7,150.3a.389.389,0,0,0-.777-.047l-2.44,40.556a.39.39,0,0,0,.456.407" fill="#43574f"/>
        <path id="Trazado_1001003" data-name="Trazado 1001003" d="M290.4,292.593c0,3-16.231,5.424-36.252,5.424s-36.252-2.428-36.252-5.424,16.23-5.424,36.252-5.424S290.4,289.6,290.4,292.593" fill="#e7ddcd"/>
        <path id="Trazado_1001004" data-name="Trazado 1001004" d="M259.041,264.684a.945.945,0,0,1-.944-.927,16.08,16.08,0,0,1,8.031-14.259.945.945,0,0,1,.881,1.671A14.214,14.214,0,0,0,263.4,254.2a13.762,13.762,0,0,0-3.419,9.519.944.944,0,0,1-.926.961h-.018" fill="#406f5d"/>
        <path id="Trazado_1001005" data-name="Trazado 1001005" d="M255.995,240.285s-10.965-20.68,28.37-35.18a2.717,2.717,0,0,1,3.6,3.153c-2.481,10.766-10.623,35.938-31.965,32.027" fill="#26443b"/>
        <path id="Trazado_1001006" data-name="Trazado 1001006" d="M245.205,262.813a.913.913,0,0,1-.137-.01.945.945,0,0,1-.8-1.07,40.7,40.7,0,0,1,18.334-28.5.95.95,0,0,1,1.3.325.938.938,0,0,1-.322,1.291l-.02.012a35.588,35.588,0,0,0-7.922,6.773,38.414,38.414,0,0,0-9.5,20.369.944.944,0,0,1-.933.809" fill="#26443b"/>
        <path id="Trazado_1001007" data-name="Trazado 1001007" d="M250.982,262.813h-.044a.946.946,0,0,1-.9-.988c.381-8.05-4.729-15.394-4.781-15.468a.944.944,0,1,1,1.543-1.088c.227.321,5.535,7.954,5.125,16.645a.944.944,0,0,1-.943.9" fill="#26443b"/>
        <path id="Trazado_1001008" data-name="Trazado 1001008" d="M253.7,264.194h-.025a.944.944,0,0,1-.919-.969l.8-30.621a.944.944,0,1,1,1.888.05l-.8,30.621a.944.944,0,0,1-.943.919" fill="#406f5d"/>
        <path id="Trazado_1001009" data-name="Trazado 1001009" d="M247.128,246.879s-22.308,7.091-29.541-34.2a2.716,2.716,0,0,1,3.744-2.973c10.149,4.366,33.461,16.878,25.8,37.176" fill="#26443b"/>
        <path id="Trazado_1001010" data-name="Trazado 1001010" d="M261.579,254.827s20.053,12.074,36.671-26.414a2.716,2.716,0,0,0-2.951-3.761c-10.886,1.892-36.464,8.652-33.72,30.175" fill="#406f5d"/>
        <path id="Trazado_1001011" data-name="Trazado 1001011" d="M257.9,243.2a3.941,3.941,0,0,1-7.306-.546c-4.757-15.189-12.727-47.384,3.776-51.079,18.517-4.145,12.312,33.457,3.53,51.625" fill="#406f5d"/>
        <path id="Trazado_1001012" data-name="Trazado 1001012" d="M254.1,245.256h-.021a.517.517,0,0,1-.494-.536l1.743-43.044a.515.515,0,0,1,1.029.042l-1.743,43.044a.514.514,0,0,1-.514.494" fill="#26443b"/>
        <path id="Trazado_1001013" data-name="Trazado 1001013" d="M262.131,254.89a.515.515,0,0,1-.327-.913l23.837-19.508a.515.515,0,0,1,.653.8l-23.837,19.507a.51.51,0,0,1-.326.117" fill="#26443b"/>
        <path id="Trazado_1001014" data-name="Trazado 1001014" d="M279.331,260.791,278,266.884l-.432,1.988-.919,4.205-.434,1.988-3.858,17.807H237.579l-3.857-17.807-.435-1.988-.918-4.205-.433-1.988-1.33-6.093Z" fill="#d69742"/>
        <path id="Trazado_1001015" data-name="Trazado 1001015" d="M278,266.884l-.433,1.988h-45.2l-.432-1.988Z" fill="#b47427"/>
        <path id="Trazado_1001016" data-name="Trazado 1001016" d="M276.649,273.077l-.434,1.988H233.721l-.434-1.988Z" fill="#b47427"/>
        <path id="Trazado_1001017" data-name="Trazado 1001017" d="M223.136,188.489H140.644a.625.625,0,0,1,0-1.25h82.492a.625.625,0,0,1,0,1.25" fill="#c8c0a5"/>
        <path id="Trazado_1001018" data-name="Trazado 1001018" d="M231.124,191.452a3.711,3.711,0,1,1,3.711-3.711,3.716,3.716,0,0,1-3.711,3.711m0-6.172a2.461,2.461,0,1,0,2.461,2.461,2.464,2.464,0,0,0-2.461-2.461" fill="#c8c0a5"/>
        <path id="Trazado_1001019" data-name="Trazado 1001019" d="M294.171,4.46h-87.52a.625.625,0,0,1,0-1.25h87.52a.625.625,0,1,1,0,1.25" fill="#c8c0a5"/>
        <path id="Trazado_1001020" data-name="Trazado 1001020" d="M199.194,7.422A3.711,3.711,0,1,1,202.9,3.711a3.716,3.716,0,0,1-3.711,3.711m0-6.172a2.461,2.461,0,1,0,2.461,2.461,2.464,2.464,0,0,0-2.461-2.461" fill="#c8c0a5"/>
        <path id="Trazado_1001021" data-name="Trazado 1001021" d="M301.66,79.891a3.7,3.7,0,1,1,3.7-3.7,3.707,3.707,0,0,1-3.7,3.7m0-6.172a2.469,2.469,0,1,0,2.469,2.469,2.472,2.472,0,0,0-2.469-2.469" fill="#c8c0a5"/>
        <path id="Trazado_1001022" data-name="Trazado 1001022" d="M26.375,47.337a9.454,9.454,0,1,1,9.454-9.454,9.465,9.465,0,0,1-9.454,9.454m0-17.619a8.165,8.165,0,1,0,8.165,8.165,8.174,8.174,0,0,0-8.165-8.165" fill="#c8c0a5"/>
        <path id="Trazado_1001023" data-name="Trazado 1001023" d="M26.375,38.528a.646.646,0,0,1-.645-.645V31.621a.645.645,0,0,1,1.29,0v5.536l4.626-.553a.645.645,0,0,1,.152,1.281l-5.346.639a.673.673,0,0,1-.077,0" fill="#c8c0a5"/>
        <path id="Trazado_1001024" data-name="Trazado 1001024" d="M305.39,90.985a.55.55,0,0,1-.55-.55V87.2a.55.55,0,1,1,1.1,0v3.239a.55.55,0,0,1-.55.55" fill="#c8c0a5"/>
        <path id="Trazado_1001025" data-name="Trazado 1001025" d="M305.39,96.965a.55.55,0,0,1-.55-.55V93.176a.55.55,0,1,1,1.1,0v3.239a.55.55,0,0,1-.55.55" fill="#c8c0a5"/>
        <path id="Trazado_1001026" data-name="Trazado 1001026" d="M304.019,92.356H300.78a.55.55,0,1,1,0-1.1h3.239a.55.55,0,0,1,0,1.1" fill="#c8c0a5"/>
        <path id="Trazado_1001027" data-name="Trazado 1001027" d="M310,92.356h-3.24a.55.55,0,0,1,0-1.1H310a.55.55,0,0,1,0,1.1" fill="#c8c0a5"/>
        <path id="Trazado_1001028" data-name="Trazado 1001028" d="M39.164,54.107a.55.55,0,0,1-.55-.55V50.318a.55.55,0,0,1,1.1,0v3.239a.55.55,0,0,1-.55.55" fill="#c8c0a5"/>
        <path id="Trazado_1001029" data-name="Trazado 1001029" d="M39.164,60.087a.55.55,0,0,1-.55-.55V56.3a.55.55,0,1,1,1.1,0v3.239a.55.55,0,0,1-.55.55" fill="#c8c0a5"/>
        <path id="Trazado_1001030" data-name="Trazado 1001030" d="M37.793,55.477H34.554a.55.55,0,1,1,0-1.1h3.239a.55.55,0,0,1,0,1.1" fill="#c8c0a5"/>
        <path id="Trazado_1001031" data-name="Trazado 1001031" d="M43.773,55.477H40.534a.55.55,0,0,1,0-1.1h3.239a.55.55,0,1,1,0,1.1" fill="#c8c0a5"/>
        <path id="Trazado_1001032" data-name="Trazado 1001032" d="M4.606,96.762a10.893,10.893,0,0,1,0-17.791,17.539,17.539,0,0,1,10.929-3.614,17.537,17.537,0,0,1,10.929,3.614,11.358,11.358,0,0,1,4.606,8.895,10.309,10.309,0,0,1-.8,3.988l3.8,6.777a.667.667,0,0,1-.743.973l-8.029-2a18.046,18.046,0,0,1-9.755,2.768A17.544,17.544,0,0,1,4.606,96.762m20.721-.52,6.819,1.7-3.2-5.721a.666.666,0,0,1-.026-.6,9.014,9.014,0,0,0,.821-3.749c0-6.162-6.371-11.176-14.2-11.176S1.333,81.7,1.333,87.866,7.7,99.042,15.535,99.042a16.617,16.617,0,0,0,9.257-2.705.663.663,0,0,1,.535-.1" fill="#c8c0a5"/>
        <path id="Trazado_1001033" data-name="Trazado 1001033" d="M5.911,88.174a2.8,2.8,0,1,1,2.8,2.8,2.806,2.806,0,0,1-2.8-2.8m1.3,0a1.5,1.5,0,1,0,1.5-1.5,1.5,1.5,0,0,0-1.5,1.5" fill="#c8c0a5"/>
        <path id="Trazado_1001034" data-name="Trazado 1001034" d="M12.723,88.174a2.8,2.8,0,1,1,2.8,2.8,2.806,2.806,0,0,1-2.8-2.8m1.3,0a1.5,1.5,0,1,0,1.5-1.5,1.5,1.5,0,0,0-1.5,1.5" fill="#c8c0a5"/>
        <path id="Trazado_1001035" data-name="Trazado 1001035" d="M19.535,88.174a2.8,2.8,0,1,1,2.8,2.8,2.806,2.806,0,0,1-2.8-2.8m1.3,0a1.5,1.5,0,1,0,1.5-1.5,1.5,1.5,0,0,0-1.5,1.5" fill="#c8c0a5"/>
      </g>
    </g>
  </g>
</svg>
