<svg xmlns="http://www.w3.org/2000/svg" width="144" height="144" viewBox="0 0 144 144">
  <g id="Grupo_1179606" data-name="Grupo 1179606" transform="translate(-377.828 -3314.761)">
    <circle id="Elipse_13613" data-name="Elipse 13613" cx="72" cy="72" r="72" transform="translate(377.828 3314.761)" fill="#e5edf3"/>
    <circle id="Elipse_13614" data-name="Elipse 13614" cx="65" cy="65" r="65" transform="translate(384.828 3321.761)" fill="#fff"/>
    <g id="Grupo_1179420" data-name="Grupo 1179420" transform="translate(386.875 3347.887)">
      <g id="Grupo_1179396" data-name="Grupo 1179396" transform="translate(29.77 21.258)">
        <path id="Trazado_1001036" data-name="Trazado 1001036" d="M99.964,187.842a3.88,3.88,0,0,0,3.871-3.867v-43.98H37.472v43.98a3.88,3.88,0,0,0,3.871,3.867Z" transform="translate(-37.472 -139.995)" fill="#eff6ff" fill-rule="evenodd"/>
      </g>
      <g id="Grupo_1179397" data-name="Grupo 1179397" transform="translate(28.391 14.895)">
        <path id="Trazado_1001037" data-name="Trazado 1001037" d="M29.77,106.014H96.146a1.372,1.372,0,0,0,1.366-1.366l0-3.694L62.951,98.09l-34.56,2.865v3.694a1.373,1.373,0,0,0,1.37,1.366h.009Z" transform="translate(-28.391 -98.09)" fill="#9fd4fe" fill-rule="evenodd"/>
      </g>
      <g id="Grupo_1179398" data-name="Grupo 1179398" transform="translate(28.391 6.966)">
        <path id="Trazado_1001038" data-name="Trazado 1001038" d="M28.391,56.67H97.512V47.247a1.373,1.373,0,0,0-1.366-1.37H29.761a1.374,1.374,0,0,0-1.37,1.37V56.67Z" transform="translate(-28.391 -45.877)" fill="#eb5468" fill-rule="evenodd"/>
      </g>
      <g id="Grupo_1179399" data-name="Grupo 1179399" transform="translate(35.495)">
        <path id="Trazado_1001039" data-name="Trazado 1001039" d="M81.459,6.966V3.14a3.144,3.144,0,0,0-6.288,0v6.7a3.144,3.144,0,0,0,6.288,0V6.966Z" transform="translate(-75.171)" fill="#ffe07d" fill-rule="evenodd"/>
      </g>
      <g id="Grupo_1179400" data-name="Grupo 1179400" transform="translate(51.706 0)">
        <path id="Trazado_1001040" data-name="Trazado 1001040" d="M181.931,3.14v6.7a3.142,3.142,0,0,0,6.283,0V3.14a3.142,3.142,0,0,0-6.283,0Z" transform="translate(-181.931 0)" fill="#ffe07d" fill-rule="evenodd"/>
      </g>
      <g id="Grupo_1179401" data-name="Grupo 1179401" transform="translate(67.913 0)">
        <path id="Trazado_1001041" data-name="Trazado 1001041" d="M288.662,3.14v6.7a3.142,3.142,0,0,0,6.283,0V3.14a3.142,3.142,0,0,0-6.283,0Z" transform="translate(-288.662 0)" fill="#ffe07d" fill-rule="evenodd"/>
      </g>
      <g id="Grupo_1179402" data-name="Grupo 1179402" transform="translate(84.12 0)">
        <path id="Trazado_1001042" data-name="Trazado 1001042" d="M395.392,3.14v6.7a3.144,3.144,0,0,0,6.288,0V3.14a3.144,3.144,0,0,0-6.288,0Z" transform="translate(-395.392 0)" fill="#ffe07d" fill-rule="evenodd"/>
      </g>
      <g id="Grupo_1179403" data-name="Grupo 1179403" transform="translate(77.589 6.966)">
        <path id="Trazado_1001043" data-name="Trazado 1001043" d="M365.2,48.754a3.144,3.144,0,0,1-6.288,0V45.876h-6.532a19.485,19.485,0,0,1,2.355,9.246c0,.519-.018,1.033-.062,1.548H372.3V47.246a1.373,1.373,0,0,0-1.366-1.37H365.2Z" transform="translate(-352.379 -45.876)" fill="#e5384f" fill-rule="evenodd"/>
      </g>
      <g id="Grupo_1179404" data-name="Grupo 1179404" transform="translate(78.768 17.76)">
        <path id="Trazado_1001044" data-name="Trazado 1001044" d="M378.89,116.954h-17.63a18.879,18.879,0,0,1-.612,3.5c-.146.528-.31,1.051-.5,1.561h17.378a1.372,1.372,0,0,0,1.366-1.366Z" transform="translate(-360.146 -116.954)" fill="#85beef" fill-rule="evenodd"/>
      </g>
      <g id="Grupo_1179405" data-name="Grupo 1179405" transform="translate(58.486 28.606)">
        <path id="Trazado_1001045" data-name="Trazado 1001045" d="M226.583,194.914a4.136,4.136,0,0,0,4.15,2.483c1.57,0,3.989-.39,4.776-2.483v-2.062a4.465,4.465,0,1,0-8.931,0Z" transform="translate(-226.579 -188.382)" fill="#faf0b0" fill-rule="evenodd"/>
      </g>
      <g id="Grupo_1179406" data-name="Grupo 1179406" transform="translate(71.11 22.819)">
        <path id="Trazado_1001046" data-name="Trazado 1001046" d="M334.738,150.274H309.715a78.165,78.165,0,0,1,2.239,16.948,12.594,12.594,0,0,1,2.284,7.233v5.782c0,4.279,2.115,8.394,6.771,12.727v3.6h9.857a3.88,3.88,0,0,0,3.871-3.867V150.274Z" transform="translate(-309.715 -150.274)" fill="#d9eeff" fill-rule="evenodd"/>
      </g>
      <g id="Grupo_1179407" data-name="Grupo 1179407" transform="translate(43.498 34.322)">
        <path id="Trazado_1001047" data-name="Trazado 1001047" d="M160.014,244.484V238.7A12.732,12.732,0,0,0,151.8,226.84a12.615,12.615,0,0,0-8.926,0,12.723,12.723,0,0,0-8.217,11.862v5.782c0,4.279-2.12,8.394-6.776,12.727l20.078,2.47,18.828-2.47C162.129,252.879,160.014,248.763,160.014,244.484Z" transform="translate(-127.879 -226.024)" fill="#ffe07d" fill-rule="evenodd"/>
      </g>
      <g id="Grupo_1179408" data-name="Grupo 1179408" transform="translate(58.384 69.105)">
        <path id="Trazado_1001048" data-name="Trazado 1001048" d="M235.043,457.684l-4.567-2.6-4.567,2.6v1.477a4.567,4.567,0,1,0,9.134,0Z" transform="translate(-225.909 -455.086)" fill="#ffe07d" fill-rule="evenodd"/>
      </g>
      <g id="Grupo_1179409" data-name="Grupo 1179409" transform="translate(60.149 34.322)">
        <path id="Trazado_1001049" data-name="Trazado 1001049" d="M247.046,238.618V244.4c0,4.279,2.115,8.394,6.771,12.727v.089h5.969c-4.656-4.332-6.771-8.447-6.771-12.727V238.7A12.732,12.732,0,0,0,244.8,226.84a12.629,12.629,0,0,0-7.268-.5,13.1,13.1,0,0,1,1.3.412,12.736,12.736,0,0,1,8.212,11.866Z" transform="translate(-237.53 -226.024)" fill="#ffc250" fill-rule="evenodd"/>
      </g>
      <g id="Grupo_1179410" data-name="Grupo 1179410" transform="translate(61.253 71.704)">
        <path id="Trazado_1001050" data-name="Trazado 1001050" d="M251.068,473.675V472.2h-3.392v1.477a4.588,4.588,0,0,1-2.873,4.239,4.566,4.566,0,0,0,6.266-4.239Z" transform="translate(-244.802 -472.198)" fill="#ffc250" fill-rule="evenodd"/>
      </g>
      <g id="Grupo_1179411" data-name="Grupo 1179411" transform="translate(59.692 28.606)">
        <path id="Trazado_1001051" data-name="Trazado 1001051" d="M235.418,189.712a4.481,4.481,0,0,1,4.465,4.465v.093a12.476,12.476,0,0,1,2.363.643v-2.062a4.459,4.459,0,0,0-7.725-3.046A4.283,4.283,0,0,1,235.418,189.712Z" transform="translate(-234.522 -188.381)" fill="#ffe07d" fill-rule="evenodd"/>
      </g>
      <g id="Grupo_1179412" data-name="Grupo 1179412" transform="translate(37.073)">
        <path id="Trazado_1001052" data-name="Trazado 1001052" d="M90.276,3.14A3.145,3.145,0,0,0,85.567.417,3.148,3.148,0,0,1,87.146,3.14v6.7a3.148,3.148,0,0,1-1.579,2.723,3.145,3.145,0,0,0,4.709-2.723V3.14Z" transform="translate(-85.567)" fill="#ffc250" fill-rule="evenodd"/>
      </g>
      <g id="Grupo_1179413" data-name="Grupo 1179413" transform="translate(53.285 0)">
        <path id="Trazado_1001053" data-name="Trazado 1001053" d="M192.327.417a3.157,3.157,0,0,1,1.579,2.723v6.7a3.157,3.157,0,0,1-1.579,2.723,3.111,3.111,0,0,0,1.561.417,3.149,3.149,0,0,0,3.144-3.14V3.14A3.152,3.152,0,0,0,193.888,0a3.111,3.111,0,0,0-1.561.417Z" transform="translate(-192.327 0)" fill="#ffc250" fill-rule="evenodd"/>
      </g>
      <g id="Grupo_1179414" data-name="Grupo 1179414" transform="translate(69.492 0)">
        <path id="Trazado_1001054" data-name="Trazado 1001054" d="M299.057.417a3.157,3.157,0,0,1,1.579,2.723v6.7a3.157,3.157,0,0,1-1.579,2.723,3.141,3.141,0,0,0,4.7-2.723V3.14A3.148,3.148,0,0,0,300.622,0a3.115,3.115,0,0,0-1.565.417Z" transform="translate(-299.057 0)" fill="#ffc250" fill-rule="evenodd"/>
      </g>
      <g id="Grupo_1179415" data-name="Grupo 1179415" transform="translate(85.699 0)">
        <path id="Trazado_1001055" data-name="Trazado 1001055" d="M405.788.417a3.157,3.157,0,0,1,1.579,2.723v6.7a3.157,3.157,0,0,1-1.579,2.723A3.145,3.145,0,0,0,410.5,9.844V3.14A3.145,3.145,0,0,0,405.788.417Z" transform="translate(-405.788 0)" fill="#ffc250" fill-rule="evenodd"/>
      </g>
      <g id="Grupo_1179416" data-name="Grupo 1179416" transform="translate(43.498 65.509)">
        <path id="Trazado_1001056" data-name="Trazado 1001056" d="M127.879,431.4V436a1.6,1.6,0,0,0,1.6,1.6h35.713a1.6,1.6,0,0,0,1.6-1.6v-4.6Z" transform="translate(-127.879 -431.402)" fill="#faf0b0" fill-rule="evenodd"/>
      </g>
      <g id="Grupo_1179417" data-name="Grupo 1179417" transform="translate(74.84 65.509)">
        <path id="Trazado_1001057" data-name="Trazado 1001057" d="M335.87,432.187V436a1.6,1.6,0,0,1-1.6,1.6h5.969a1.6,1.6,0,0,0,1.6-1.6v-4.6H335.87v.785Z" transform="translate(-334.274 -431.402)" fill="#ffe07d" fill-rule="evenodd"/>
      </g>
      <g id="Grupo_1179418" data-name="Grupo 1179418" transform="translate(75.324 27.987)">
        <path id="Trazado_1001058" data-name="Trazado 1001058" d="M348.59,203.572a1.174,1.174,0,0,1-1.112-1.549,12.192,12.192,0,0,0-7.64-15.435,1.173,1.173,0,1,1,.75-2.223,14.541,14.541,0,0,1,9.113,18.408A1.174,1.174,0,0,1,348.59,203.572ZM343.934,202a1.174,1.174,0,0,1-1.112-1.549,7.256,7.256,0,0,0-4.558-9.208,1.173,1.173,0,0,1,.75-2.224,9.6,9.6,0,0,1,6.031,12.183A1.173,1.173,0,0,1,343.934,202Z" transform="translate(-337.466 -184.304)" fill="#375e7d"/>
      </g>
      <g id="Grupo_1179419" data-name="Grupo 1179419" transform="translate(37.572 27.987)">
        <path id="Trazado_1001059" data-name="Trazado 1001059" d="M90.732,203.573a1.173,1.173,0,0,1-1.111-.8,14.52,14.52,0,0,1,9.117-18.408,1.173,1.173,0,0,1,.75,2.223,12.174,12.174,0,0,0-7.644,15.435,1.174,1.174,0,0,1-1.112,1.549ZM95.388,202a1.173,1.173,0,0,1-1.111-.8,9.6,9.6,0,0,1,6.031-12.183,1.173,1.173,0,1,1,.75,2.224,7.256,7.256,0,0,0-4.558,9.208A1.174,1.174,0,0,1,95.388,202Z" transform="translate(-88.85 -184.304)" fill="#375e7d"/>
      </g>
    </g>
  </g>
</svg>
