<svg xmlns="http://www.w3.org/2000/svg" width="83.095" height="83.095" viewBox="0 0 83.095 83.095">
  <g id="Grupo_1179601" data-name="Grupo 1179601" transform="translate(-700.581 -2775.91)">
    <rect id="Rectángulo_456230" data-name="Rectángulo 456230" width="83.095" height="83.095" rx="5" transform="translate(700.581 2775.91)" fill="#ffb900"/>
    <g id="Grupo_1179586" data-name="Grupo 1179586" transform="translate(709.58 2784.91)">
      <path id="Trazado_1001606" data-name="Trazado 1001606" d="M48.466,43.4H13.974A13.826,13.826,0,0,1,12.485,15.81a20.664,20.664,0,0,1,38.162-5.159A16.434,16.434,0,0,1,48.466,43.4Z" transform="translate(0 0)" fill="#cfd8dc"/>
      <path id="Trazado_1001607" data-name="Trazado 1001607" d="M42.972,33.7H5V12H42.972Z" transform="translate(8.562 20.548)" fill="#fff"/>
      <path id="Trazado_1001608" data-name="Trazado 1001608" d="M25.452,30.849H10.534A2.036,2.036,0,0,1,9.1,27.377c1.47-1.47,2.373-4.174,2.861-5.625l.125-.372A2.031,2.031,0,0,1,14.006,20h7.947a2.036,2.036,0,0,1,1.912,1.337l.212.6c.529,1.508,1.413,4.033,2.813,5.435A2.036,2.036,0,0,1,25.452,30.849Z" transform="translate(14.555 34.246)" fill="#90a4ae"/>
      <path id="Trazado_1001609" data-name="Trazado 1001609" d="M42.65,11H8.747A4.769,4.769,0,0,0,4,15.747V34.733a4.769,4.769,0,0,0,4.747,4.747h33.9A4.769,4.769,0,0,0,47.4,34.733V15.747A4.769,4.769,0,0,0,42.65,11Zm.678,21.7H8.068V15.747a.671.671,0,0,1,.678-.678h33.9a.671.671,0,0,1,.678.678Z" transform="translate(6.849 18.835)" fill="#607d8b"/>
      <path id="Trazado_1001610" data-name="Trazado 1001610" d="M32.548,0A20.627,20.627,0,0,0,12.485,15.81a13.811,13.811,0,0,0-1.636,27.237V34.582A4.769,4.769,0,0,1,15.6,29.835H32.548Z" transform="translate(0 0)" fill="#b4bcc0"/>
      <path id="Trazado_1001611" data-name="Trazado 1001611" d="M17.993,21.5H11.107a10.527,10.527,0,0,1-2.013,3.309,2.037,2.037,0,0,0,1.44,3.472h7.459Z" transform="translate(14.554 36.815)" fill="#7d8f97"/>
      <path id="Trazado_1001612" data-name="Trazado 1001612" d="M23.13,12.5H6.178a.671.671,0,0,0-.678.678V30.13H23.13Z" transform="translate(9.418 21.404)" fill="#dedede"/>
      <path id="Trazado_1001613" data-name="Trazado 1001613" d="M25.7,11H8.747A4.769,4.769,0,0,0,4,15.747V34.733a4.769,4.769,0,0,0,4.747,4.747H25.7V32.7H8.068V15.747a.671.671,0,0,1,.678-.678H25.7Z" transform="translate(6.849 18.835)" fill="#546d79"/>
      <path id="Trazado_1001614" data-name="Trazado 1001614" d="M17.317,18.815H15.961V12.034a2.034,2.034,0,1,0-4.068,0v6.781H10.536A2.034,2.034,0,0,0,9.1,22.287l3.39,3.39a2.03,2.03,0,0,0,2.875,0l3.39-3.39A2.034,2.034,0,0,0,17.317,18.815Z" transform="translate(14.553 17.123)" fill="#2196f3"/>
      <path id="Trazado_1001615" data-name="Trazado 1001615" d="M13.927,10a2.035,2.035,0,0,0-2.034,2.034v6.781H10.536A2.034,2.034,0,0,0,9.1,22.287l3.39,3.39a2.018,2.018,0,0,0,1.438.6Z" transform="translate(14.553 17.123)" fill="#1d83d4"/>
      <path id="Trazado_1001616" data-name="Trazado 1001616" d="M21.756,10.987,18.366,7.6a2.035,2.035,0,0,0-2.878,0l-3.39,3.39a2.034,2.034,0,0,0,1.438,3.472h1.356v6.781a2.034,2.034,0,0,0,4.068,0V14.458h1.356A2.034,2.034,0,0,0,21.756,10.987Z" transform="translate(19.688 11.987)" fill="#2196f3"/>
      <path id="Trazado_1001617" data-name="Trazado 1001617" d="M16.927,7a2.018,2.018,0,0,0-1.438.6l-3.39,3.39a2.034,2.034,0,0,0,1.438,3.472h1.356V21.24a2.035,2.035,0,0,0,2.034,2.034Z" transform="translate(19.689 11.986)" fill="#1d83d4"/>
    </g>
  </g>
</svg>
