<svg xmlns="http://www.w3.org/2000/svg" width="84" height="84" viewBox="0 0 84 84">
  <g id="Grupo_1179603" data-name="Grupo 1179603" transform="translate(-706.082 -898.283)">
    <rect id="Rectángulo_454628" data-name="Rectángulo 454628" width="84" height="84" rx="5" transform="translate(706.082 898.283)" fill="#ffb900"/>
    <g id="Grupo_1179449" data-name="Grupo 1179449" transform="translate(716.03 915.729)">
      <path id="Trazado_1001475" data-name="Trazado 1001475" d="M64.094,24.481A10.447,10.447,0,0,0,50.986,14.89a.348.348,0,0,1-.435-.342v0a14.042,14.042,0,0,0-27.486-4.057,1.007,1.007,0,0,1-1.169.7,8.414,8.414,0,0,0-8.28,2.92,1.112,1.112,0,0,1-1.075.379,10.563,10.563,0,1,0-1.981,20.939h43.1A10.441,10.441,0,0,0,64.094,24.481Zm0,0" transform="translate(0 0)" fill="#4b98d4"/>
      <path id="Trazado_1001476" data-name="Trazado 1001476" d="M2.594,120.742a10.609,10.609,0,0,1,9.251-9.976,10.563,10.563,0,1,0-1.28,21.047h2.58A10.563,10.563,0,0,1,2.594,120.742Zm0,0" transform="translate(-0.003 -96.391)" fill="#2472b2"/>
      <path id="Trazado_1001477" data-name="Trazado 1001477" d="M183.129,11.185a1.007,1.007,0,0,0,1.169-.7A14.049,14.049,0,0,1,196.456.56C196.03.521,195.6.5,195.162.5a14.044,14.044,0,0,0-13.443,9.985,1.012,1.012,0,0,1-.359.517A8.471,8.471,0,0,1,183.129,11.185Zm0,0" transform="translate(-158.653)" fill="#2472b2"/>
      <path id="Trazado_1001478" data-name="Trazado 1001478" d="M108.8,87.862a1.111,1.111,0,0,0,1.075-.379,8.4,8.4,0,0,1,5.238-3,8.412,8.412,0,0,0-7.818,3,1.065,1.065,0,0,1-.209.195A10.742,10.742,0,0,1,108.8,87.862Zm0,0" transform="translate(-93.683 -73.377)" fill="#2472b2"/>
      <path id="Trazado_1001479" data-name="Trazado 1001479" d="M183.975,167.532H168.1a.76.76,0,0,1-.724-.529l-.843-2.638a.969.969,0,0,0-.923-.674h-9.988a.969.969,0,0,0-.968.969v25.708a1,1,0,0,0,1,1h28.323a1,1,0,0,0,1-1V168.533A1,1,0,0,0,183.975,167.532Zm0,0" transform="translate(-135.29 -142.758)" fill="#ffc964"/>
      <g id="Grupo_1179448" data-name="Grupo 1179448" transform="translate(19.362 20.933)">
        <path id="Trazado_1001480" data-name="Trazado 1001480" d="M157.228,190.368V164.66a.969.969,0,0,1,.969-.969h-2.58a.969.969,0,0,0-.969.969v25.708a1,1,0,0,0,1,1h2.58A1,1,0,0,1,157.228,190.368Zm0,0" transform="translate(-154.648 -163.691)" fill="#f3a334"/>
        <path id="Trazado_1001481" data-name="Trazado 1001481" d="M296.968,225.251h-8.723a.967.967,0,1,1,0-1.935h8.723a.967.967,0,1,1,0,1.935Zm0,0" transform="translate(-270.671 -215.851)" fill="#f3a334"/>
        <path id="Trazado_1001482" data-name="Trazado 1001482" d="M296.968,254.255h-8.723a.967.967,0,0,1,0-1.935h8.723a.967.967,0,1,1,0,1.935Zm0,0" transform="translate(-270.671 -241.223)" fill="#f3a334"/>
        <path id="Trazado_1001483" data-name="Trazado 1001483" d="M168.1,167.532a.76.76,0,0,1-.724-.529l-.843-2.638a.969.969,0,0,0-.923-.674h-9.988a.969.969,0,0,0-.968.969v2.872Zm0,0" transform="translate(-154.652 -163.691)" fill="#f3a334"/>
      </g>
      <path id="Trazado_1001484" data-name="Trazado 1001484" d="M157.228,164.66a.969.969,0,0,1,.969-.969h-2.58a.965.965,0,0,0-.462.117.934.934,0,0,0-.08.049.954.954,0,0,0-.144.118.965.965,0,0,0-.284.685v2.872h2.58Zm0,0" transform="translate(-135.287 -142.758)" fill="#ea7f2f"/>
    </g>
  </g>
</svg>
