<svg xmlns="http://www.w3.org/2000/svg" width="83.095" height="83.095" viewBox="0 0 83.095 83.095">
  <g id="Grupo_1179599" data-name="Grupo 1179599" transform="translate(-700.862 -328.263)">
    <rect id="Rectángulo_456230" data-name="Rectángulo 456230" width="83.095" height="83.095" rx="5" transform="translate(700.862 328.263)" fill="#ffb900"/>
    <g id="Icon" transform="translate(710.63 338)">
      <path id="Trazado_1001467" data-name="Trazado 1001467" d="M46.372,27.422h-2.21a18.429,18.429,0,0,0-2.092-5.083l1.553-1.553a3.646,3.646,0,0,0,0-5.131l-1.277-1.277a3.715,3.715,0,0,0-5.131,0L35.681,15.91a18.448,18.448,0,0,0-5.1-2.127V11.628A3.633,3.633,0,0,0,26.949,8h-1.9a3.633,3.633,0,0,0-3.628,3.628v2.155a18.448,18.448,0,0,0-5.1,2.127l-1.533-1.533a3.714,3.714,0,0,0-5.131,0L8.377,15.654a3.646,3.646,0,0,0,0,5.131l1.553,1.553a18.437,18.437,0,0,0-2.092,5.083H5.628A3.633,3.633,0,0,0,2,31.051v1.9a3.633,3.633,0,0,0,3.628,3.628H7.871A18.434,18.434,0,0,0,9.98,41.612l-1.6,1.6a3.646,3.646,0,0,0,0,5.131l1.277,1.277a3.715,3.715,0,0,0,5.131,0L16.408,48a18.472,18.472,0,0,0,5.014,2.078v2.294A3.633,3.633,0,0,0,25.051,56h1.9a3.633,3.633,0,0,0,3.628-3.628V50.078A18.472,18.472,0,0,0,35.592,48l1.623,1.623a3.716,3.716,0,0,0,5.131,0c2-1.486,3.389-4.386,1.277-6.408l-1.6-1.6a18.464,18.464,0,0,0,2.109-5.034h2.243A3.633,3.633,0,0,0,50,32.949v-1.9A3.633,3.633,0,0,0,46.372,27.422Z" fill="#1e88e5"/>
      <circle id="Elipse_13670" data-name="Elipse 13670" cx="11" cy="11" r="11" transform="translate(15 21)" fill="#eee"/>
      <path id="Trazado_1001468" data-name="Trazado 1001468" d="M62,19.78V56a3.009,3.009,0,0,1-3,3H28a3.009,3.009,0,0,1-3-3V8a3.009,3.009,0,0,1,3-3H48.12a3,3,0,0,1,2.21.97L61.2,17.75a2.953,2.953,0,0,1,.8,2.03Z" fill="#f5f5f5"/>
      <rect id="Rectángulo_456376" data-name="Rectángulo 456376" width="6" height="6" rx="2" transform="translate(29 22)" fill="#ff9800"/>
      <path id="Trazado_1001469" data-name="Trazado 1001469" d="M57,26H38a1,1,0,0,1,0-2H57a1,1,0,0,1,0,2Z" fill="#424242"/>
      <rect id="Rectángulo_456377" data-name="Rectángulo 456377" width="6" height="6" rx="2" transform="translate(29 30)" fill="#ff9800"/>
      <path id="Trazado_1001470" data-name="Trazado 1001470" d="M57,34H38a1,1,0,0,1,0-2H57a1,1,0,0,1,0,2Z" fill="#424242"/>
      <rect id="Rectángulo_456378" data-name="Rectángulo 456378" width="6" height="6" rx="2" transform="translate(29 38)" fill="#ff9800"/>
      <path id="Trazado_1001471" data-name="Trazado 1001471" d="M57,42H38a1,1,0,0,1,0-2H57a1,1,0,0,1,0,2Z" fill="#424242"/>
      <rect id="Rectángulo_456379" data-name="Rectángulo 456379" width="6" height="6" rx="2" transform="translate(29 46)" fill="#ff9800"/>
      <path id="Trazado_1001472" data-name="Trazado 1001472" d="M57,50H38a1,1,0,0,1,0-2H57a1,1,0,0,1,0,2Z" fill="#424242"/>
      <path id="Trazado_1001473" data-name="Trazado 1001473" d="M49,11H35a3,3,0,0,0-3,3v1a3,3,0,0,0,3,3H49a1,1,0,0,0,1-1V12A1,1,0,0,0,49,11Z" fill="#ff9800"/>
      <path id="Trazado_1001474" data-name="Trazado 1001474" d="M62,19.78V20H51a3.009,3.009,0,0,1-3-3V5h.12a3,3,0,0,1,2.21.97L61.2,17.75a2.953,2.953,0,0,1,.8,2.03Z" fill="#bdbdbd"/>
    </g>
  </g>
</svg>
