<svg xmlns="http://www.w3.org/2000/svg" width="144" height="144" viewBox="0 0 144 144">
  <g id="Grupo_1179610" data-name="Grupo 1179610" transform="translate(-381.254 -3749.761)">
    <circle id="Elipse_13651" data-name="Elipse 13651" cx="72" cy="72" r="72" transform="translate(381.254 3749.761)" fill="#e5edf3"/>
    <circle id="Elipse_13652" data-name="Elipse 13652" cx="65" cy="65" r="65" transform="translate(388.254 3756.761)" fill="#fff"/>
    <g id="Grupo_1179428" data-name="Grupo 1179428" transform="translate(401.465 3763.229)">
      <path id="Trazado_1001091" data-name="Trazado 1001091" d="M64.668,129.607a1.42,1.42,0,0,1-2.477-.014l-2.835-4.421a1.416,1.416,0,1,1,2.383-1.53l.275.429v-18.3a1.419,1.419,0,0,1,1.419-1.419H124.67a1.419,1.419,0,0,1,1.419,1.419v18.419l.346-.525a1.416,1.416,0,0,1,2.361,1.563l-2.892,4.38a1.419,1.419,0,0,1-2.477-.014l-2.835-4.421a1.416,1.416,0,0,1,2.383-1.53l.275.429V107.188H95.471v30.2l.346-.525a1.416,1.416,0,1,1,2.361,1.563l-2.892,4.38a1.42,1.42,0,0,1-2.477-.014l-2.835-4.421a1.416,1.416,0,0,1,2.383-1.53l.275.429V107.188H64.853v17l.346-.525a1.416,1.416,0,1,1,2.361,1.563Z" transform="translate(-41.873 -71.546)" fill="#a79ba7" fill-rule="evenodd"/>
      <g id="Grupo_1179424" data-name="Grupo 1179424" transform="translate(34.556 17.377)">
        <path id="Trazado_1001092" data-name="Trazado 1001092" d="M177.778,20.3a15.042,15.042,0,0,1,4.4,1.826l2.862-1.271,3.373,3.373-1.271,2.861a15.043,15.043,0,0,1,1.826,4.405l2.92,1.124v4.77l-2.921,1.124a15.042,15.042,0,0,1-1.826,4.4l1.271,2.862-3.373,3.373-2.861-1.271a15.043,15.043,0,0,1-4.405,1.826l-1.124,2.92h-4.77L170.759,49.7a15.045,15.045,0,0,1-4.4-1.826l-2.862,1.271-3.373-3.373,1.271-2.861a15.045,15.045,0,0,1-1.826-4.405l-2.92-1.124v-4.77l2.92-1.124a15.043,15.043,0,0,1,1.826-4.4l-1.271-2.861,3.373-3.373,2.862,1.271a15.037,15.037,0,0,1,4.4-1.826l1.124-2.921h4.77Z" transform="translate(-156.645 -17.377)" fill="#ffe177" fill-rule="evenodd"/>
        <path id="Trazado_1001093" data-name="Trazado 1001093" d="M196.061,47.879,193.2,49.15l-.443-.443,2.682-1.191Q195.745,47.7,196.061,47.879ZM207.483,20.3a15.036,15.036,0,0,1,4.349,1.792c.018.012.036.023.055.034l-.818.363a19.865,19.865,0,0,0-5.027-2.189l-1.124-2.921h1.44Zm-14.727,1,.443-.443,2.862,1.271q-.315.174-.623.363Zm21,0,1-.443,3.373,3.373-1.271,2.861a15.044,15.044,0,0,1,1.826,4.405l2.92,1.124v4.77l-2.921,1.124a15.042,15.042,0,0,1-1.826,4.4l1.271,2.862-3.373,3.373-1-.443,2.93-2.93-1.271-2.862a15.043,15.043,0,0,0,1.826-4.4l2.921-1.124v-4.77l-2.92-1.124a15.046,15.046,0,0,0-1.826-4.405l1.271-2.861Zm-1.919,26.617a15.045,15.045,0,0,1-4.35,1.792l-1.124,2.92h-1.44l1.124-2.92a19.868,19.868,0,0,0,5.028-2.189l.818.363C211.87,47.89,211.851,47.9,211.833,47.913Z" transform="translate(-186.351 -17.378)" fill="#ffd064" fill-rule="evenodd"/>
        <circle id="Elipse_13666" data-name="Elipse 13666" cx="10.246" cy="10.246" r="10.246" transform="translate(7.377 7.378)" fill="#eceff1"/>
        <path id="Trazado_1001094" data-name="Trazado 1001094" d="M208.482,58.969c.242,0,.482.009.72.026a10.246,10.246,0,0,0,0,20.441c-.238.016-.478.026-.72.026a10.246,10.246,0,0,1,0-20.492Z" transform="translate(-190.859 -51.591)" fill="#d1d1d6" fill-rule="evenodd"/>
      </g>
      <g id="Grupo_1179425" data-name="Grupo 1179425" transform="translate(8.23 62.563)">
        <circle id="Elipse_13667" data-name="Elipse 13667" cx="11.953" cy="11.953" r="11.953" transform="translate(0 2.916) rotate(-7.004)" fill="#837683"/>
        <path id="Trazado_1001095" data-name="Trazado 1001095" d="M88.286,291.632a11.9,11.9,0,0,1-1.994,6.612,11.967,11.967,0,0,1-8.9,5.294q.525.046,1.063.046a12.035,12.035,0,0,0,1.71-.122l.216-.033a11.954,11.954,0,0,0-1.926-23.751q-.537,0-1.062.047A11.954,11.954,0,0,1,88.286,291.632Z" transform="translate(-65.127 -278.338)" fill="#685e68" fill-rule="evenodd"/>
        <path id="Trazado_1001096" data-name="Trazado 1001096" d="M44.9,353.563a8.351,8.351,0,0,0-8.3,7.449,11.913,11.913,0,0,0,8.3,3.351,12.062,12.062,0,0,0,1.71-.121,11.916,11.916,0,0,0,6.588-3.23,8.348,8.348,0,0,0-8.3-7.448Z" transform="translate(-31.566 -339.116)" fill="#8ac9fe" fill-rule="evenodd"/>
        <path id="Trazado_1001097" data-name="Trazado 1001097" d="M77.4,353.63c4.969.631,6.971,4.391,7.431,8.9a12,12,0,0,0,1.93-1.515,8.348,8.348,0,0,0-8.3-7.449A8.435,8.435,0,0,0,77.4,353.63Z" transform="translate(-65.129 -339.116)" fill="#60b7ff" fill-rule="evenodd"/>
        <path id="Trazado_1001098" data-name="Trazado 1001098" d="M63.816,310.862a4.22,4.22,0,1,0-4.22-4.22A4.228,4.228,0,0,0,63.816,310.862Z" transform="translate(-50.485 -297.047)" fill="#f6dccd" fill-rule="evenodd"/>
        <path id="Trazado_1001099" data-name="Trazado 1001099" d="M84.081,306.642a4.221,4.221,0,0,1-3.689,4.187,4.269,4.269,0,0,0,.531.033,4.22,4.22,0,1,0,0-8.44,4.269,4.269,0,0,0-.531.033,4.221,4.221,0,0,1,3.689,4.187Z" transform="translate(-67.592 -297.047)" fill="#f1cbbc" fill-rule="evenodd"/>
      </g>
      <g id="Grupo_1179426" data-name="Grupo 1179426" transform="translate(35.265 73.173)">
        <circle id="Elipse_13668" data-name="Elipse 13668" cx="11.953" cy="11.953" r="11.953" transform="translate(0 16.901) rotate(-45)" fill="#837683"/>
        <path id="Trazado_1001100" data-name="Trazado 1001100" d="M260.9,371.8a11.9,11.9,0,0,1-1.994,6.612,11.968,11.968,0,0,1-8.9,5.294q.525.046,1.063.047a12.031,12.031,0,0,0,1.71-.122L253,383.6a11.954,11.954,0,0,0-1.926-23.751q-.537,0-1.063.047A11.954,11.954,0,0,1,260.9,371.8Z" transform="translate(-234.158 -354.9)" fill="#685e68" fill-rule="evenodd"/>
        <path id="Trazado_1001101" data-name="Trazado 1001101" d="M217.51,433.735a8.351,8.351,0,0,0-8.3,7.449,11.913,11.913,0,0,0,8.3,3.351,12.062,12.062,0,0,0,1.71-.121,11.916,11.916,0,0,0,6.588-3.23A8.348,8.348,0,0,0,217.51,433.735Z" transform="translate(-200.596 -415.678)" fill="#8ac9fe" fill-rule="evenodd"/>
        <path id="Trazado_1001102" data-name="Trazado 1001102" d="M250.011,433.8c4.969.631,6.971,4.391,7.431,8.9a12,12,0,0,0,1.93-1.515,8.348,8.348,0,0,0-8.3-7.449A8.433,8.433,0,0,0,250.011,433.8Z" transform="translate(-234.159 -415.678)" fill="#60b7ff" fill-rule="evenodd"/>
        <path id="Trazado_1001103" data-name="Trazado 1001103" d="M236.429,391.034a4.22,4.22,0,1,0-4.22-4.22A4.228,4.228,0,0,0,236.429,391.034Z" transform="translate(-219.515 -373.608)" fill="#f6dccd" fill-rule="evenodd"/>
        <path id="Trazado_1001104" data-name="Trazado 1001104" d="M256.694,386.814A4.221,4.221,0,0,1,253.005,391a4.269,4.269,0,0,0,.531.033,4.22,4.22,0,0,0,0-8.44,4.269,4.269,0,0,0-.531.033,4.221,4.221,0,0,1,3.689,4.187Z" transform="translate(-236.622 -373.608)" fill="#f1cbbc" fill-rule="evenodd"/>
      </g>
      <g id="Grupo_1179427" data-name="Grupo 1179427" transform="translate(69.163 62.159)">
        <circle id="Elipse_13669" data-name="Elipse 13669" cx="11.953" cy="11.953" r="11.953" transform="matrix(0.988, -0.157, 0.157, 0.988, 0, 3.753)" fill="#837683"/>
        <path id="Trazado_1001105" data-name="Trazado 1001105" d="M433.512,291.632a11.9,11.9,0,0,1-1.994,6.612,11.968,11.968,0,0,1-8.9,5.294q.525.046,1.063.046a12.036,12.036,0,0,0,1.71-.122l.216-.033a11.954,11.954,0,0,0-1.926-23.751q-.537,0-1.063.047A11.954,11.954,0,0,1,433.512,291.632Z" transform="translate(-410.051 -277.934)" fill="#685e68" fill-rule="evenodd"/>
        <path id="Trazado_1001106" data-name="Trazado 1001106" d="M390.123,353.563a8.351,8.351,0,0,0-8.3,7.449,11.913,11.913,0,0,0,8.3,3.351,12.062,12.062,0,0,0,1.71-.121,11.916,11.916,0,0,0,6.588-3.23A8.348,8.348,0,0,0,390.123,353.563Z" transform="translate(-376.489 -338.712)" fill="#8ac9fe" fill-rule="evenodd"/>
        <path id="Trazado_1001107" data-name="Trazado 1001107" d="M422.624,353.63c4.969.631,6.971,4.391,7.431,8.9a12,12,0,0,0,1.93-1.515,8.348,8.348,0,0,0-8.3-7.449A8.432,8.432,0,0,0,422.624,353.63Z" transform="translate(-410.052 -338.712)" fill="#60b7ff" fill-rule="evenodd"/>
        <path id="Trazado_1001108" data-name="Trazado 1001108" d="M409.042,310.862a4.22,4.22,0,1,0-4.22-4.22A4.228,4.228,0,0,0,409.042,310.862Z" transform="translate(-395.408 -296.642)" fill="#f6dccd" fill-rule="evenodd"/>
        <path id="Trazado_1001109" data-name="Trazado 1001109" d="M429.307,306.642a4.221,4.221,0,0,1-3.689,4.187,4.269,4.269,0,0,0,.531.033,4.22,4.22,0,0,0,0-8.44,4.269,4.269,0,0,0-.531.033,4.221,4.221,0,0,1,3.689,4.187Z" transform="translate(-412.515 -296.642)" fill="#f1cbbc" fill-rule="evenodd"/>
      </g>
    </g>
  </g>
</svg>
