<svg xmlns="http://www.w3.org/2000/svg" xmlns:xlink="http://www.w3.org/1999/xlink" width="393.025" height="441.018" viewBox="0 0 393.025 441.018">
  <defs>
    <clipPath id="clip-path">
      <rect id="Rectángulo_456342" data-name="Rectángulo 456342" width="393.025" height="441.018" fill="none"/>
    </clipPath>
    <clipPath id="clip-path-3">
      <rect id="Rectángulo_456297" data-name="Rectángulo 456297" width="360.254" height="402.869" fill="none"/>
    </clipPath>
    <clipPath id="clip-path-4">
      <path id="Trazado_1000459" data-name="Trazado 1000459" d="M167.136,0a38.127,38.127,0,1,0,38.127,38.127A38.128,38.128,0,0,0,167.136,0Z" transform="translate(-129.008)" fill="none"/>
    </clipPath>
    <clipPath id="clip-path-5">
      <rect id="Rectángulo_456303" data-name="Rectángulo 456303" width="2.293" height="7.493" fill="none"/>
    </clipPath>
    <clipPath id="clip-path-7">
      <path id="Trazado_1000474" data-name="Trazado 1000474" d="M129.477,321.624A38.128,38.128,0,1,0,167.6,283.5a38.128,38.128,0,0,0-38.127,38.127" transform="translate(-129.477 -283.497)" fill="none"/>
    </clipPath>
    <clipPath id="clip-path-8">
      <rect id="Rectángulo_456311" data-name="Rectángulo 456311" width="2.289" height="7.493" fill="none"/>
    </clipPath>
    <clipPath id="clip-path-10">
      <path id="Trazado_1000492" data-name="Trazado 1000492" d="M8.556,195.469a38.128,38.128,0,1,0,38.127-38.13,38.128,38.128,0,0,0-38.127,38.13" transform="translate(-8.556 -157.339)" fill="none"/>
    </clipPath>
    <clipPath id="clip-path-11">
      <rect id="Rectángulo_456317" data-name="Rectángulo 456317" width="2.29" height="7.492" fill="none"/>
    </clipPath>
    <clipPath id="clip-path-13">
      <path id="Trazado_1000514" data-name="Trazado 1000514" d="M246.207,189.484a38.127,38.127,0,1,0,38.128-38.128,38.128,38.128,0,0,0-38.128,38.128" transform="translate(-246.207 -151.356)" fill="none"/>
    </clipPath>
    <clipPath id="clip-path-14">
      <rect id="Rectángulo_456322" data-name="Rectángulo 456322" width="2.291" height="7.496" fill="none"/>
    </clipPath>
    <clipPath id="clip-path-16">
      <path id="Trazado_1000534" data-name="Trazado 1000534" d="M42.89,101.321A38.129,38.129,0,1,0,81.02,63.193a38.126,38.126,0,0,0-38.13,38.128" transform="translate(-42.89 -63.193)" fill="none"/>
    </clipPath>
    <clipPath id="clip-path-17">
      <rect id="Rectángulo_456329" data-name="Rectángulo 456329" width="2.292" height="7.493" fill="none"/>
    </clipPath>
    <clipPath id="clip-path-19">
      <path id="Trazado_1000551" data-name="Trazado 1000551" d="M215.648,74.43A38.128,38.128,0,1,0,253.776,36.3,38.128,38.128,0,0,0,215.648,74.43" transform="translate(-215.648 -36.304)" fill="none"/>
    </clipPath>
    <clipPath id="clip-path-20">
      <rect id="Rectángulo_456334" data-name="Rectángulo 456334" width="1.844" height="6.043" fill="none"/>
    </clipPath>
    <clipPath id="clip-path-22">
      <path id="Trazado_1000568" data-name="Trazado 1000568" d="M30.466,279.31a38.128,38.128,0,1,0,38.128-38.131A38.128,38.128,0,0,0,30.466,279.31" transform="translate(-30.466 -241.179)" fill="none"/>
    </clipPath>
    <clipPath id="clip-path-23">
      <rect id="Rectángulo_456337" data-name="Rectángulo 456337" width="1.849" height="6.041" fill="none"/>
    </clipPath>
    <clipPath id="clip-path-25">
      <path id="Trazado_1000585" data-name="Trazado 1000585" d="M231.012,272.345a38.128,38.128,0,1,0,38.127-38.131,38.127,38.127,0,0,0-38.127,38.131" transform="translate(-231.012 -234.214)" fill="none"/>
    </clipPath>
    <clipPath id="clip-path-26">
      <rect id="Rectángulo_456341" data-name="Rectángulo 456341" width="1.85" height="6.04" fill="none"/>
    </clipPath>
  </defs>
  <g id="Grupo_1179600" data-name="Grupo 1179600" transform="translate(-1020.975 -962.558)">
    <g id="Grupo_1179386" data-name="Grupo 1179386" transform="translate(1020.975 962.558)">
      <g id="Grupo_1179385" data-name="Grupo 1179385" clip-path="url(#clip-path)">
        <line id="Línea_3251" data-name="Línea 3251" y1="0.062" transform="translate(231.714 234.382)" fill="none" stroke="#fff" stroke-linecap="round" stroke-linejoin="round" stroke-width="2.886"/>
        <g id="Grupo_1179330" data-name="Grupo 1179330">
          <g id="Grupo_1179329" data-name="Grupo 1179329" clip-path="url(#clip-path)">
            <path id="Trazado_1000422" data-name="Trazado 1000422" d="M180.1,206.674V86.248a10.987,10.987,0,0,1,10.988-10.99h40.828" transform="translate(51.616 21.569)" fill="none" stroke="#fff" stroke-linecap="round" stroke-linejoin="round" stroke-width="2.886" stroke-dasharray="0.095 4.771"/>
            <line id="Línea_3252" data-name="Línea 3252" x2="0.063" transform="translate(286.598 96.828)" fill="none" stroke="#fff" stroke-linecap="round" stroke-linejoin="round" stroke-width="2.886"/>
            <line id="Línea_3253" data-name="Línea 3253" x2="0.063" transform="translate(243.165 181.006)" fill="none" stroke="#fff" stroke-linecap="round" stroke-linejoin="round" stroke-width="2.886"/>
            <path id="Trazado_1000423" data-name="Trazado 1000423" d="M193.748,154.825h50.175c6.069,0,10.989-4.919,10.989-7.523V91.353" transform="translate(55.529 26.182)" fill="none" stroke="#fff" stroke-linecap="round" stroke-linejoin="round" stroke-width="2.886" stroke-dasharray="0.094 4.703"/>
            <line id="Línea_3254" data-name="Línea 3254" y1="0.062" transform="translate(310.44 114.448)" fill="none" stroke="#fff" stroke-linecap="round" stroke-linejoin="round" stroke-width="2.886"/>
            <line id="Línea_3255" data-name="Línea 3255" x1="0.062" transform="translate(161.536 190.471)" fill="none" stroke="#fff" stroke-linecap="round" stroke-linejoin="round" stroke-width="2.886"/>
            <path id="Trazado_1000424" data-name="Trazado 1000424" d="M134.32,154.546H84.3a10.988,10.988,0,0,1-10.985-10.99V125.349" transform="translate(21.012 35.925)" fill="none" stroke="#fff" stroke-linecap="round" stroke-linejoin="round" stroke-width="2.886" stroke-dasharray="0.096 4.821"/>
            <line id="Línea_3256" data-name="Línea 3256" y1="0.062" transform="translate(94.326 158.111)" fill="none" stroke="#fff" stroke-linecap="round" stroke-linejoin="round" stroke-width="2.886"/>
            <line id="Línea_3257" data-name="Línea 3257" y1="0.062" transform="translate(170.012 233.771)" fill="none" stroke="#fff" stroke-linecap="round" stroke-linejoin="round" stroke-width="2.886"/>
            <path id="Trazado_1000425" data-name="Trazado 1000425" d="M143.69,204.439V90.328c0-5.1-4.92-9.23-10.989-9.23H91.846" transform="translate(26.323 23.243)" fill="none" stroke="#fff" stroke-linecap="round" stroke-linejoin="round" stroke-width="2.886" stroke-dasharray="0.095 4.733"/>
            <line id="Línea_3258" data-name="Línea 3258" x1="0.063" transform="translate(115.063 104.341)" fill="none" stroke="#fff" stroke-linecap="round" stroke-linejoin="round" stroke-width="2.886"/>
            <line id="Línea_3259" data-name="Línea 3259" y1="0.062" transform="translate(204.595 375.852)" fill="none" stroke="#fff" stroke-linecap="round" stroke-linejoin="round" stroke-width="2.886"/>
            <line id="Línea_3260" data-name="Línea 3260" y1="327.368" transform="translate(204.595 42.253)" fill="none" stroke="#fff" stroke-linecap="round" stroke-linejoin="round" stroke-width="2.886" stroke-dasharray="0.097 4.843"/>
            <line id="Línea_3261" data-name="Línea 3261" y1="0.062" transform="translate(204.595 39.076)" fill="none" stroke="#fff" stroke-linecap="round" stroke-linejoin="round" stroke-width="2.886"/>
            <line id="Línea_3262" data-name="Línea 3262" y2="0.062" transform="translate(157.511 236.174)" fill="none" stroke="#fff" stroke-linecap="round" stroke-linejoin="round" stroke-width="2.886"/>
            <path id="Trazado_1000426" data-name="Trazado 1000426" d="M133.949,188.5V287.77a10.99,10.99,0,0,1-10.989,10.991H82.21" transform="translate(23.562 54.025)" fill="none" stroke="#fff" stroke-linecap="round" stroke-linejoin="round" stroke-width="2.886" stroke-dasharray="0.098 4.89"/>
            <line id="Línea_3263" data-name="Línea 3263" x1="0.063" transform="translate(102.564 352.786)" fill="none" stroke="#fff" stroke-linecap="round" stroke-linejoin="round" stroke-width="2.886"/>
            <line id="Línea_3264" data-name="Línea 3264" y2="0.062" transform="translate(235.976 232.332)" fill="none" stroke="#fff" stroke-linecap="round" stroke-linejoin="round" stroke-width="2.886"/>
            <path id="Trazado_1000427" data-name="Trazado 1000427" d="M183.41,185.462v94.945c0,4.414,4.924,7.992,10.991,7.992h58.286" transform="translate(52.566 53.154)" fill="none" stroke="#fff" stroke-linecap="round" stroke-linejoin="round" stroke-width="2.886" stroke-dasharray="0.097 4.835"/>
            <line id="Línea_3265" data-name="Línea 3265" x2="0.063" transform="translate(308.362 341.552)" fill="none" stroke="#fff" stroke-linecap="round" stroke-linejoin="round" stroke-width="2.886"/>
            <line id="Línea_3266" data-name="Línea 3266" x2="0.063" transform="translate(196.745 240.494)" fill="none" stroke="#fff" stroke-linecap="round" stroke-linejoin="round" stroke-width="2.886"/>
            <line id="Línea_3267" data-name="Línea 3267" x2="118.497" transform="translate(203.082 240.494)" fill="none" stroke="#fff" stroke-linecap="round" stroke-linejoin="round" stroke-width="2.886" stroke-dasharray="0.098 4.878"/>
            <line id="Línea_3268" data-name="Línea 3268" x2="0.063" transform="translate(324.716 240.494)" fill="none" stroke="#fff" stroke-linecap="round" stroke-linejoin="round" stroke-width="2.886"/>
            <line id="Línea_3269" data-name="Línea 3269" x2="0.063" transform="translate(59.294 240.494)" fill="none" stroke="#fff" stroke-linecap="round" stroke-linejoin="round" stroke-width="2.886"/>
            <line id="Línea_3270" data-name="Línea 3270" x2="118.497" transform="translate(65.632 240.494)" fill="none" stroke="#fff" stroke-linecap="round" stroke-linejoin="round" stroke-width="2.886" stroke-dasharray="0.098 4.878"/>
            <line id="Línea_3271" data-name="Línea 3271" x2="0.063" transform="translate(187.266 240.494)" fill="none" stroke="#fff" stroke-linecap="round" stroke-linejoin="round" stroke-width="2.886"/>
            <path id="Trazado_1000428" data-name="Trazado 1000428" d="M227.3,271.1H110.18V178.167l58.781-37.651L227.3,178.167Z" transform="translate(31.578 40.272)" fill="#757479"/>
            <path id="Trazado_1000429" data-name="Trazado 1000429" d="M223.637,251.69a9.108,9.108,0,0,1-.226-1.765h.018V133.686h-.013c-.138-6.636-9.383-14.236-16.26-14.236H101.613s16.691,1.634,16.691,10.867c0,.118.014.232.019.35V247.61a11.326,11.326,0,0,0-.193,2.066c0,6.724,7.079,17.175,14.032,17.175h91.475Z" transform="translate(29.122 34.235)" fill="#fff"/>
            <rect id="Rectángulo_456284" data-name="Rectángulo 456284" width="86.178" height="3.273" transform="translate(156.237 172.371)" fill="#8a898f"/>
            <rect id="Rectángulo_456285" data-name="Rectángulo 456285" width="86.178" height="3.276" transform="translate(156.237 182.193)" fill="#8a898f"/>
            <rect id="Rectángulo_456286" data-name="Rectángulo 456286" width="86.178" height="3.276" transform="translate(156.237 192.021)" fill="#8a898f"/>
            <rect id="Rectángulo_456287" data-name="Rectángulo 456287" width="86.178" height="3.274" transform="translate(156.237 201.845)" fill="#8a898f"/>
            <rect id="Rectángulo_456288" data-name="Rectángulo 456288" width="86.178" height="3.276" transform="translate(156.237 211.67)" fill="#8a898f"/>
            <rect id="Rectángulo_456289" data-name="Rectángulo 456289" width="86.178" height="3.278" transform="translate(156.237 221.495)" fill="#8a898f"/>
            <rect id="Rectángulo_456290" data-name="Rectángulo 456290" width="86.178" height="3.278" transform="translate(156.237 231.318)" fill="#8a898f"/>
            <rect id="Rectángulo_456291" data-name="Rectángulo 456291" width="86.178" height="3.273" transform="translate(156.237 241.144)" fill="#8a898f"/>
            <rect id="Rectángulo_456292" data-name="Rectángulo 456292" width="86.178" height="3.274" transform="translate(156.237 250.97)" fill="#8a898f"/>
            <rect id="Rectángulo_456293" data-name="Rectángulo 456293" width="86.178" height="3.28" transform="translate(156.237 260.79)" fill="#8a898f"/>
            <rect id="Rectángulo_456294" data-name="Rectángulo 456294" width="86.178" height="3.278" transform="translate(156.237 270.615)" fill="#8a898f"/>
            <rect id="Rectángulo_456295" data-name="Rectángulo 456295" width="86.178" height="3.274" transform="translate(156.237 280.442)" fill="#8a898f"/>
            <rect id="Rectángulo_456296" data-name="Rectángulo 456296" width="117.116" height="41.587" transform="translate(141.758 270.008)" fill="#e8eaed"/>
            <path id="Trazado_1000430" data-name="Trazado 1000430" d="M212.041,260.844l-48.67-41.474L212.041,177Z" transform="translate(46.823 50.729)" fill="#cfd1d6"/>
            <path id="Trazado_1000431" data-name="Trazado 1000431" d="M110.185,260.844l48.676-41.474L110.185,177Z" transform="translate(31.579 50.729)" fill="#cfd1d6"/>
            <g id="Grupo_1179328" data-name="Grupo 1179328" transform="translate(0 12.45)" opacity="0.5">
              <g id="Grupo_1179327" data-name="Grupo 1179327">
                <g id="Grupo_1179326" data-name="Grupo 1179326" clip-path="url(#clip-path-3)">
                  <path id="Trazado_1000432" data-name="Trazado 1000432" d="M284,133.871h3.931a13.353,13.353,0,0,1-5.665,5.866,21.646,21.646,0,0,1-10.662,2.434,24.8,24.8,0,0,1-10.517-2.055,13.842,13.842,0,0,1-6.581-6.07,18.142,18.142,0,0,1-2.159-8.735,19.75,19.75,0,0,1,2.454-9.656,16.114,16.114,0,0,1,6.713-6.715,20.6,20.6,0,0,1,9.741-2.241,18.241,18.241,0,0,1,8.263,1.808,12.817,12.817,0,0,1,5.527,5.137,14.391,14.391,0,0,1,1.908,7.277,13.685,13.685,0,0,1-2.9,8.5,11.2,11.2,0,0,1-9.318,4.8,4.053,4.053,0,0,1-2.3-.538,2.562,2.562,0,0,1-1.031-1.566,7.013,7.013,0,0,1-5.018,2.1,6.734,6.734,0,0,1-5.085-2.114,7.8,7.8,0,0,1-2.02-5.617,13.762,13.762,0,0,1,2.438-7.913q2.951-4.356,7.561-4.354a5.318,5.318,0,0,1,4.852,2.509l.459-2.047h4.871l-2.784,13.225a11.089,11.089,0,0,0-.261,1.625.989.989,0,0,0,.214.692.675.675,0,0,0,.509.229,4.2,4.2,0,0,0,2.286-1.07,10.245,10.245,0,0,0,3.044-3.762,10.941,10.941,0,0,0,1.161-4.888,9.943,9.943,0,0,0-3.281-7.591q-3.285-3.053-9.171-3.053a16.5,16.5,0,0,0-8.476,2.038,12.983,12.983,0,0,0-5.239,5.737,17.751,17.751,0,0,0-1.759,7.7,13.276,13.276,0,0,0,1.962,7.084,11.418,11.418,0,0,0,5.518,4.659,23.63,23.63,0,0,0,15.706.239,11.733,11.733,0,0,0,5.109-3.68m-19.94-7.581a5.2,5.2,0,0,0,.949,3.447,2.974,2.974,0,0,0,2.352,1.108,3.978,3.978,0,0,0,1.974-.515,4.865,4.865,0,0,0,1.384-1.163,9.613,9.613,0,0,0,1.688-3.283,13,13,0,0,0,.712-4.022,4.757,4.757,0,0,0-.97-3.2,3.1,3.1,0,0,0-2.445-1.115,4.276,4.276,0,0,0-2.933,1.225,7.542,7.542,0,0,0-2.028,3.5,14.125,14.125,0,0,0-.683,4.023" transform="translate(72.323 18.13)" fill="#fff"/>
                  <path id="Trazado_1000433" data-name="Trazado 1000433" d="M111.98,235.736h5.487a18.675,18.675,0,0,1-7.907,8.189,30.229,30.229,0,0,1-14.885,3.4,34.64,34.64,0,0,1-14.68-2.87,19.294,19.294,0,0,1-9.191-8.474,25.268,25.268,0,0,1-3.018-12.2A27.581,27.581,0,0,1,71.21,210.3a22.537,22.537,0,0,1,9.375-9.375,28.778,28.778,0,0,1,13.6-3.129,25.445,25.445,0,0,1,11.537,2.526,17.861,17.861,0,0,1,7.716,7.172,20.075,20.075,0,0,1,2.666,10.162,19.106,19.106,0,0,1-4.048,11.872,15.631,15.631,0,0,1-13.006,6.7,5.674,5.674,0,0,1-3.217-.747,3.619,3.619,0,0,1-1.442-2.19,9.777,9.777,0,0,1-7,2.937,9.408,9.408,0,0,1-7.1-2.949,10.888,10.888,0,0,1-2.823-7.842,19.23,19.23,0,0,1,3.4-11.052q4.124-6.073,10.559-6.074a7.428,7.428,0,0,1,6.774,3.5l.642-2.861h6.8l-3.892,18.468a14.956,14.956,0,0,0-.359,2.267,1.384,1.384,0,0,0,.3.965.933.933,0,0,0,.71.322,5.867,5.867,0,0,0,3.191-1.5,14.236,14.236,0,0,0,4.25-5.252,15.241,15.241,0,0,0,1.622-6.824,13.878,13.878,0,0,0-4.583-10.6q-4.587-4.265-12.8-4.263a22.972,22.972,0,0,0-11.832,2.85,18.07,18.07,0,0,0-7.317,8.005,24.731,24.731,0,0,0-2.457,10.756,18.5,18.5,0,0,0,2.742,9.886,15.928,15.928,0,0,0,7.7,6.5,29.5,29.5,0,0,0,11.348,2.048,29.381,29.381,0,0,0,10.582-1.711,16.412,16.412,0,0,0,7.134-5.139M84.139,225.147a7.286,7.286,0,0,0,1.326,4.818,4.152,4.152,0,0,0,3.282,1.543,5.52,5.52,0,0,0,2.758-.721,6.806,6.806,0,0,0,1.934-1.621,13.429,13.429,0,0,0,2.354-4.584,18.056,18.056,0,0,0,.995-5.616,6.616,6.616,0,0,0-1.355-4.465,4.324,4.324,0,0,0-3.415-1.559,5.962,5.962,0,0,0-4.091,1.711,10.5,10.5,0,0,0-2.834,4.881,19.777,19.777,0,0,0-.955,5.612" transform="translate(19.427 44.239)" fill="#fff"/>
                  <path id="Trazado_1000434" data-name="Trazado 1000434" d="M249.089,230.7h4.459a15.155,15.155,0,0,1-6.427,6.661,24.587,24.587,0,0,1-12.106,2.767,28.17,28.17,0,0,1-11.938-2.336A15.715,15.715,0,0,1,215.6,230.9a20.608,20.608,0,0,1-2.45-9.916,22.438,22.438,0,0,1,2.784-10.963,18.3,18.3,0,0,1,7.624-7.624,23.4,23.4,0,0,1,11.06-2.545A20.687,20.687,0,0,1,244,201.905a14.514,14.514,0,0,1,6.275,5.833A16.308,16.308,0,0,1,252.44,216a15.526,15.526,0,0,1-3.289,9.656,12.708,12.708,0,0,1-10.575,5.441,4.625,4.625,0,0,1-2.617-.6,2.953,2.953,0,0,1-1.175-1.782,7.945,7.945,0,0,1-5.693,2.385,7.646,7.646,0,0,1-5.773-2.394,8.857,8.857,0,0,1-2.294-6.378,15.639,15.639,0,0,1,2.768-8.987q3.35-4.939,8.585-4.942a6.049,6.049,0,0,1,5.512,2.849l.517-2.325h5.529l-3.161,15.015a12.008,12.008,0,0,0-.292,1.844,1.123,1.123,0,0,0,.242.787.759.759,0,0,0,.578.26,4.769,4.769,0,0,0,2.594-1.213,11.588,11.588,0,0,0,3.457-4.272,12.438,12.438,0,0,0,1.319-5.55,11.283,11.283,0,0,0-3.727-8.62q-3.731-3.466-10.407-3.466a18.726,18.726,0,0,0-9.624,2.316,14.686,14.686,0,0,0-5.949,6.511,20.12,20.12,0,0,0-2,8.745,15.033,15.033,0,0,0,2.231,8.041,12.973,12.973,0,0,0,6.262,5.29,26.826,26.826,0,0,0,17.83.271,13.339,13.339,0,0,0,5.8-4.18m-22.64-8.607a5.911,5.911,0,0,0,1.079,3.916,3.377,3.377,0,0,0,2.668,1.257,4.491,4.491,0,0,0,2.244-.588,5.471,5.471,0,0,0,1.574-1.316,11.047,11.047,0,0,0,1.914-3.727,14.821,14.821,0,0,0,.807-4.567,5.391,5.391,0,0,0-1.1-3.632,3.515,3.515,0,0,0-2.774-1.269,4.856,4.856,0,0,0-3.331,1.392,8.56,8.56,0,0,0-2.3,3.969,16.093,16.093,0,0,0-.777,4.565" transform="translate(61.09 44.827)" fill="#fff"/>
                  <path id="Trazado_1000435" data-name="Trazado 1000435" d="M53.572,148.79h6.652a22.577,22.577,0,0,1-9.585,9.929q-7.4,4.115-18.046,4.122a41.974,41.974,0,0,1-17.8-3.483A23.392,23.392,0,0,1,3.655,149.088,30.674,30.674,0,0,1,0,134.3a33.442,33.442,0,0,1,4.152-16.345A27.291,27.291,0,0,1,15.514,106.6,34.858,34.858,0,0,1,32,102.8a30.856,30.856,0,0,1,13.983,3.061,21.621,21.621,0,0,1,9.357,8.7,24.322,24.322,0,0,1,3.228,12.317,23.134,23.134,0,0,1-4.9,14.391q-6.147,8.117-15.766,8.116a6.863,6.863,0,0,1-3.9-.9,4.378,4.378,0,0,1-1.752-2.654,11.848,11.848,0,0,1-8.488,3.559,11.4,11.4,0,0,1-8.6-3.57,13.2,13.2,0,0,1-3.42-9.511,23.283,23.283,0,0,1,4.124-13.392q4.991-7.366,12.8-7.367,5.562,0,8.215,4.246l.778-3.47h8.241L41.176,138.7a17.938,17.938,0,0,0-.432,2.751,1.678,1.678,0,0,0,.356,1.171,1.132,1.132,0,0,0,.862.386A7.132,7.132,0,0,0,45.83,141.2a17.3,17.3,0,0,0,5.154-6.369,18.528,18.528,0,0,0,1.965-8.275,16.816,16.816,0,0,0-5.558-12.845q-5.558-5.168-15.515-5.167A27.884,27.884,0,0,0,17.53,112a21.883,21.883,0,0,0-8.869,9.707,29.994,29.994,0,0,0-2.978,13.037,22.388,22.388,0,0,0,3.325,11.983,19.292,19.292,0,0,0,9.337,7.886A35.711,35.711,0,0,0,32.1,157.094a35.566,35.566,0,0,0,12.829-2.074,19.851,19.851,0,0,0,8.646-6.23M19.824,135.958c0,2.643.531,4.591,1.608,5.839a5.041,5.041,0,0,0,3.978,1.873,6.714,6.714,0,0,0,3.343-.875,8.151,8.151,0,0,0,2.342-1.966,16.317,16.317,0,0,0,2.859-5.557,21.939,21.939,0,0,0,1.2-6.806,8.041,8.041,0,0,0-1.639-5.414,5.243,5.243,0,0,0-4.138-1.891,7.233,7.233,0,0,0-4.964,2.074,12.788,12.788,0,0,0-3.435,5.918,24.056,24.056,0,0,0-1.155,6.8" transform="translate(0 17.013)" fill="#fff"/>
                  <path id="Trazado_1000436" data-name="Trazado 1000436" d="M127.783,58.521h5.4a18.36,18.36,0,0,1-7.792,8.07,29.782,29.782,0,0,1-14.669,3.35A34.119,34.119,0,0,1,96.259,67.11,19.011,19.011,0,0,1,87.2,58.76a24.941,24.941,0,0,1-2.971-12.014,27.194,27.194,0,0,1,3.375-13.287,22.155,22.155,0,0,1,9.238-9.238,28.334,28.334,0,0,1,13.4-3.084,25.072,25.072,0,0,1,11.368,2.49,17.55,17.55,0,0,1,7.6,7.066,19.75,19.75,0,0,1,2.626,10.014,18.812,18.812,0,0,1-3.982,11.7A15.409,15.409,0,0,1,115.043,59a5.6,5.6,0,0,1-3.173-.735,3.573,3.573,0,0,1-1.423-2.159,9.635,9.635,0,0,1-6.9,2.894,9.28,9.28,0,0,1-6.993-2.9,10.744,10.744,0,0,1-2.779-7.731,18.953,18.953,0,0,1,3.352-10.887q4.061-5.987,10.4-5.988a7.322,7.322,0,0,1,6.676,3.452l.632-2.82h6.7l-3.833,18.2a14.315,14.315,0,0,0-.351,2.236,1.367,1.367,0,0,0,.288.952.92.92,0,0,0,.7.315,5.814,5.814,0,0,0,3.148-1.472,14.134,14.134,0,0,0,4.187-5.175,15.065,15.065,0,0,0,1.6-6.728,13.673,13.673,0,0,0-4.516-10.441q-4.524-4.2-12.616-4.2a22.641,22.641,0,0,0-11.658,2.806,17.781,17.781,0,0,0-7.21,7.892,24.366,24.366,0,0,0-2.423,10.6,18.2,18.2,0,0,0,2.7,9.742,15.689,15.689,0,0,0,7.587,6.409,29,29,0,0,0,11.181,2.02,28.968,28.968,0,0,0,10.429-1.685,16.18,16.18,0,0,0,7.03-5.065M100.349,48.089a7.16,7.16,0,0,0,1.306,4.746,4.1,4.1,0,0,0,3.235,1.523,5.485,5.485,0,0,0,2.719-.711,6.674,6.674,0,0,0,1.9-1.6,13.247,13.247,0,0,0,2.32-4.519A17.775,17.775,0,0,0,112.811,42a6.517,6.517,0,0,0-1.334-4.4,4.251,4.251,0,0,0-3.359-1.539,5.868,5.868,0,0,0-4.036,1.688,10.4,10.4,0,0,0-2.795,4.811,19.512,19.512,0,0,0-.938,5.531" transform="translate(24.142 -6.393)" fill="#fff"/>
                  <path id="Trazado_1000437" data-name="Trazado 1000437" d="M240.265,316.872h5.405a18.367,18.367,0,0,1-7.792,8.07,29.776,29.776,0,0,1-14.666,3.349,34.17,34.17,0,0,1-14.469-2.827,19.055,19.055,0,0,1-9.056-8.354,24.926,24.926,0,0,1-2.969-12.014,27.2,27.2,0,0,1,3.375-13.287,22.142,22.142,0,0,1,9.237-9.237,28.349,28.349,0,0,1,13.4-3.084,25.092,25.092,0,0,1,11.368,2.488,17.587,17.587,0,0,1,7.606,7.067,19.79,19.79,0,0,1,2.622,10.012,18.819,18.819,0,0,1-3.983,11.7,15.407,15.407,0,0,1-12.815,6.6,5.583,5.583,0,0,1-3.173-.735,3.549,3.549,0,0,1-1.423-2.159,9.633,9.633,0,0,1-6.9,2.894,9.269,9.269,0,0,1-6.993-2.9,10.731,10.731,0,0,1-2.782-7.732,18.95,18.95,0,0,1,3.353-10.886q4.059-5.987,10.4-5.988a7.314,7.314,0,0,1,6.675,3.451l.632-2.819h6.7l-3.834,18.2a14.888,14.888,0,0,0-.353,2.235,1.377,1.377,0,0,0,.289.952.92.92,0,0,0,.7.313,5.8,5.8,0,0,0,3.148-1.469,14.084,14.084,0,0,0,4.187-5.175,15.049,15.049,0,0,0,1.6-6.726,13.663,13.663,0,0,0-4.516-10.443q-4.522-4.2-12.615-4.2a22.683,22.683,0,0,0-11.659,2.8,17.771,17.771,0,0,0-7.209,7.892,24.38,24.38,0,0,0-2.424,10.6,18.208,18.208,0,0,0,2.7,9.746,15.687,15.687,0,0,0,7.587,6.406,32.5,32.5,0,0,0,21.607.333,16.17,16.17,0,0,0,7.031-5.064M212.832,306.44a7.137,7.137,0,0,0,1.307,4.745,4.084,4.084,0,0,0,3.232,1.523,5.454,5.454,0,0,0,2.721-.711,6.7,6.7,0,0,0,1.9-1.6,13.358,13.358,0,0,0,2.321-4.516,17.818,17.818,0,0,0,.977-5.534,6.519,6.519,0,0,0-1.335-4.4,4.259,4.259,0,0,0-3.359-1.54,5.886,5.886,0,0,0-4.036,1.689,10.386,10.386,0,0,0-2.792,4.809,19.4,19.4,0,0,0-.939,5.532" transform="translate(56.379 67.651)" fill="#fff"/>
                  <path id="Trazado_1000438" data-name="Trazado 1000438" d="M234.1,127.858h5.405a18.34,18.34,0,0,1-7.793,8.068,29.767,29.767,0,0,1-14.667,3.35,34.137,34.137,0,0,1-14.468-2.828,19.039,19.039,0,0,1-9.055-8.35,24.943,24.943,0,0,1-2.969-12.017,27.194,27.194,0,0,1,3.375-13.287,22.172,22.172,0,0,1,9.235-9.235,28.337,28.337,0,0,1,13.4-3.084,25.107,25.107,0,0,1,11.367,2.487,17.561,17.561,0,0,1,7.6,7.07,19.732,19.732,0,0,1,2.626,10.012,18.8,18.8,0,0,1-3.985,11.7,15.405,15.405,0,0,1-12.815,6.6,5.587,5.587,0,0,1-3.17-.735,3.565,3.565,0,0,1-1.424-2.16,9.636,9.636,0,0,1-6.9,2.895,9.269,9.269,0,0,1-6.993-2.905,10.737,10.737,0,0,1-2.78-7.73,18.938,18.938,0,0,1,3.353-10.886q4.059-5.99,10.4-5.99a7.322,7.322,0,0,1,6.676,3.452l.63-2.82h6.7l-3.833,18.2a14.556,14.556,0,0,0-.353,2.237,1.366,1.366,0,0,0,.289.95.926.926,0,0,0,.7.316,5.823,5.823,0,0,0,3.148-1.469A14.132,14.132,0,0,0,232,116.514a15.027,15.027,0,0,0,1.6-6.725,13.678,13.678,0,0,0-4.519-10.445q-4.52-4.2-12.614-4.2a22.667,22.667,0,0,0-11.658,2.806,17.819,17.819,0,0,0-7.213,7.891,24.418,24.418,0,0,0-2.421,10.6,18.2,18.2,0,0,0,2.7,9.742,15.7,15.7,0,0,0,7.585,6.409,32.491,32.491,0,0,0,21.611.331,16.155,16.155,0,0,0,7.03-5.063m-27.433-10.43a7.152,7.152,0,0,0,1.306,4.746,4.1,4.1,0,0,0,3.233,1.521,5.445,5.445,0,0,0,2.719-.711,6.641,6.641,0,0,0,1.905-1.6,13.283,13.283,0,0,0,2.32-4.519,17.8,17.8,0,0,0,.979-5.534,6.53,6.53,0,0,0-1.334-4.4,4.259,4.259,0,0,0-3.362-1.536,5.873,5.873,0,0,0-4.034,1.685,10.385,10.385,0,0,0-2.794,4.811,19.431,19.431,0,0,0-.938,5.534" transform="translate(54.613 13.48)" fill="#fff"/>
                  <path id="Trazado_1000439" data-name="Trazado 1000439" d="M230.578,37.949h4.088a13.862,13.862,0,0,1-5.891,6.1,22.527,22.527,0,0,1-11.093,2.532,25.805,25.805,0,0,1-10.943-2.138,14.384,14.384,0,0,1-6.849-6.316,18.85,18.85,0,0,1-2.245-9.087A20.507,20.507,0,0,1,200.2,19a16.725,16.725,0,0,1,6.984-6.986,21.4,21.4,0,0,1,10.133-2.333,18.955,18.955,0,0,1,8.6,1.882,13.31,13.31,0,0,1,5.755,5.345,14.982,14.982,0,0,1,1.984,7.572,14.227,14.227,0,0,1-3.015,8.848,11.653,11.653,0,0,1-9.692,4.988,4.242,4.242,0,0,1-2.4-.555,2.7,2.7,0,0,1-1.074-1.634,7.281,7.281,0,0,1-5.217,2.189,7.006,7.006,0,0,1-5.289-2.195,8.119,8.119,0,0,1-2.1-5.846,14.325,14.325,0,0,1,2.532-8.233q3.072-4.529,7.87-4.531a5.536,5.536,0,0,1,5.047,2.613l.48-2.133h5.065l-2.9,13.761a11.12,11.12,0,0,0-.265,1.691,1.022,1.022,0,0,0,.221.72.686.686,0,0,0,.528.237,4.392,4.392,0,0,0,2.38-1.11,10.7,10.7,0,0,0,3.166-3.916,11.409,11.409,0,0,0,1.206-5.086,10.338,10.338,0,0,0-3.413-7.9q-3.422-3.177-9.539-3.178a17.131,17.131,0,0,0-8.82,2.123,13.426,13.426,0,0,0-5.45,5.967,18.436,18.436,0,0,0-1.835,8.013,13.779,13.779,0,0,0,2.046,7.37,11.871,11.871,0,0,0,5.737,4.847,24.541,24.541,0,0,0,16.341.251,12.181,12.181,0,0,0,5.318-3.829m-20.746-7.888a5.405,5.405,0,0,0,.988,3.587,3.1,3.1,0,0,0,2.445,1.152,4.129,4.129,0,0,0,2.056-.537,5.06,5.06,0,0,0,1.442-1.209,10.089,10.089,0,0,0,1.754-3.416,13.467,13.467,0,0,0,.74-4.185,4.943,4.943,0,0,0-1.009-3.328,3.223,3.223,0,0,0-2.542-1.163,4.453,4.453,0,0,0-3.052,1.276,7.833,7.833,0,0,0-2.11,3.639,14.719,14.719,0,0,0-.711,4.185" transform="translate(56.645 -9.677)" fill="#fff"/>
                  <path id="Trazado_1000440" data-name="Trazado 1000440" d="M133.11,322.227h5.7a19.36,19.36,0,0,1-8.21,8.5q-6.334,3.52-15.446,3.527a35.923,35.923,0,0,1-15.241-2.982,20.047,20.047,0,0,1-9.539-8.793,26.23,26.23,0,0,1-3.128-12.656A28.592,28.592,0,0,1,90.8,295.829a23.314,23.314,0,0,1,9.728-9.727,29.807,29.807,0,0,1,14.114-3.249,26.442,26.442,0,0,1,11.972,2.621,18.492,18.492,0,0,1,8.009,7.443,20.823,20.823,0,0,1,2.764,10.546,19.832,19.832,0,0,1-4.2,12.323,16.231,16.231,0,0,1-13.5,6.946,5.879,5.879,0,0,1-3.339-.773,3.759,3.759,0,0,1-1.5-2.276,10.121,10.121,0,0,1-7.263,3.049,9.772,9.772,0,0,1-7.37-3.057,11.3,11.3,0,0,1-2.924-8.143,19.922,19.922,0,0,1,3.53-11.467q4.275-6.3,10.958-6.308a7.7,7.7,0,0,1,7.03,3.637l.666-2.972h7.058l-4.039,19.17a15.553,15.553,0,0,0-.373,2.352,1.444,1.444,0,0,0,.306,1,.977.977,0,0,0,.736.332,6.1,6.1,0,0,0,3.318-1.55,14.854,14.854,0,0,0,4.408-5.45,15.821,15.821,0,0,0,1.684-7.084,14.412,14.412,0,0,0-4.757-11q-4.765-4.425-13.287-4.422a23.873,23.873,0,0,0-12.281,2.955,18.726,18.726,0,0,0-7.592,8.311A25.653,25.653,0,0,0,92.109,310.2a19.139,19.139,0,0,0,2.849,10.259,16.52,16.52,0,0,0,7.992,6.752,30.542,30.542,0,0,0,11.774,2.125,30.438,30.438,0,0,0,10.984-1.777,17,17,0,0,0,7.4-5.333m-28.892-10.985c0,2.261.452,3.932,1.375,5a4.311,4.311,0,0,0,3.406,1.6,5.722,5.722,0,0,0,2.861-.748,7.046,7.046,0,0,0,2.008-1.684,14.029,14.029,0,0,0,2.443-4.758,18.75,18.75,0,0,0,1.029-5.827,6.9,6.9,0,0,0-1.4-4.639,4.491,4.491,0,0,0-3.539-1.617,6.185,6.185,0,0,0-4.248,1.777,10.894,10.894,0,0,0-2.944,5.069,20.46,20.46,0,0,0-.988,5.827" transform="translate(25.004 68.616)" fill="#fff"/>
                </g>
              </g>
            </g>
            <path id="Trazado_1000441" data-name="Trazado 1000441" d="M205.264,38.136A38.128,38.128,0,1,1,167.135.008a38.127,38.127,0,0,1,38.128,38.128" transform="translate(36.974 0.002)" fill="#fff"/>
          </g>
        </g>
        <g id="Grupo_1179335" data-name="Grupo 1179335" transform="translate(165.982)">
          <g id="Grupo_1179334" data-name="Grupo 1179334" clip-path="url(#clip-path-4)">
            <path id="Trazado_1000442" data-name="Trazado 1000442" d="M164.023,45.95l-4.445,5.5-4.355-5.5V38.615h8.8Z" transform="translate(-121.495 11.067)" fill="#682f1f"/>
            <path id="Trazado_1000443" data-name="Trazado 1000443" d="M177.259,63.7V43.815H166.422l-4.192,5.5-4.585-5.5H146.807V63.7Z" transform="translate(-123.907 12.557)" fill="#e8eaed"/>
            <path id="Trazado_1000444" data-name="Trazado 1000444" d="M159.1,48.35a7.34,7.34,0,0,1-4.87-2.338l-5.456-5.272a14.806,14.806,0,0,1-2.656-5.489l-2.226-10.537a8.861,8.861,0,0,1,1.029-5.767l4.522-7a6.17,6.17,0,0,1,4.573-2.618h17.744a6.177,6.177,0,0,1,4.575,2.618l4.521,7a8.876,8.876,0,0,1,1.028,5.767l-2.226,10.537A14.784,14.784,0,0,1,177,40.74l-5.455,5.272a7.351,7.351,0,0,1-4.871,2.338Z" transform="translate(-124.779 2.674)" fill="#783525"/>
            <path id="Trazado_1000445" data-name="Trazado 1000445" d="M177.635,10.193,163.543,5.7l-15.1,4.489-5.134,14.163,1.962,6.634,7.938-10.941h19.658L180.98,30.5l1.786-6.14Z" transform="translate(-124.91 1.635)" fill="#331305"/>
            <path id="Trazado_1000446" data-name="Trazado 1000446" d="M146.518,33.244,147,22.867l-3.68-2.665Z" transform="translate(-124.906 5.79)" fill="#331305"/>
            <path id="Trazado_1000447" data-name="Trazado 1000447" d="M171.682,33.13l-.938-10.011,4.139-2.905Z" transform="translate(-117.046 5.793)" fill="#331305"/>
            <rect id="Rectángulo_456299" data-name="Rectángulo 456299" width="6.234" height="16.308" transform="translate(53.985 59.945)" fill="#e8eaed"/>
            <rect id="Rectángulo_456300" data-name="Rectángulo 456300" width="6.234" height="16.308" transform="translate(16.034 59.945)" fill="#e8eaed"/>
            <path id="Trazado_1000448" data-name="Trazado 1000448" d="M177.651,51.744V47.4L170.8,43.815h-1.424v7.929Z" transform="translate(-117.438 12.557)" fill="#53b7dc"/>
            <rect id="Rectángulo_456301" data-name="Rectángulo 456301" width="6.234" height="16.308" transform="translate(53.985 59.945)" fill="#53b7dc"/>
            <rect id="Rectángulo_456302" data-name="Rectángulo 456302" width="6.234" height="16.308" transform="translate(16.034 59.945)" fill="#53b7dc"/>
            <path id="Trazado_1000449" data-name="Trazado 1000449" d="M141.479,51.744V47.4l6.842-3.583h1.431v7.929Z" transform="translate(-125.434 12.557)" fill="#53b7dc"/>
            <path id="Trazado_1000450" data-name="Trazado 1000450" d="M177.259,63.7V43.815h-8.844l-6.185,7.464L155.9,43.815h-9.1V63.7Z" transform="translate(-123.907 12.557)" fill="#53b7dc"/>
            <path id="Trazado_1000451" data-name="Trazado 1000451" d="M153.73,27.283A1.284,1.284,0,1,1,152.446,26a1.283,1.283,0,0,1,1.284,1.283" transform="translate(-122.659 7.452)" fill="#331305"/>
            <path id="Trazado_1000452" data-name="Trazado 1000452" d="M166.692,27.283A1.283,1.283,0,1,1,165.411,26a1.282,1.282,0,0,1,1.281,1.283" transform="translate(-118.943 7.452)" fill="#331305"/>
            <path id="Trazado_1000453" data-name="Trazado 1000453" d="M154.961,33.8a5.219,5.219,0,0,0,9.469,0Z" transform="translate(-121.57 9.687)" fill="#331305"/>
            <g id="Grupo_1179333" data-name="Grupo 1179333" transform="translate(36.981 32.628)" style="mix-blend-mode: multiply;isolation: isolate">
              <g id="Grupo_1179332" data-name="Grupo 1179332">
                <g id="Grupo_1179331" data-name="Grupo 1179331" clip-path="url(#clip-path-5)">
                  <path id="Trazado_1000454" data-name="Trazado 1000454" d="M159.355,25.521l-1.444,7.08h1.881" transform="translate(-157.705 -25.314)" fill="none" stroke="#b6b8bf" stroke-linecap="round" stroke-linejoin="round" stroke-width="0.321"/>
                </g>
              </g>
            </g>
            <path id="Trazado_1000455" data-name="Trazado 1000455" d="M163.184,24.123a3,3,0,0,1,2.415-1.172,2.848,2.848,0,0,1,2.394,1.217,8.7,8.7,0,0,0-2.392-.392,10.746,10.746,0,0,0-2.418.347" transform="translate(-119.213 6.578)" fill="#331305"/>
            <path id="Trazado_1000456" data-name="Trazado 1000456" d="M150.359,24.123a3,3,0,0,1,2.415-1.172,2.851,2.851,0,0,1,2.4,1.217,8.719,8.719,0,0,0-2.394-.392,10.757,10.757,0,0,0-2.418.347" transform="translate(-122.889 6.578)" fill="#331305"/>
            <path id="Trazado_1000457" data-name="Trazado 1000457" d="M160.27,24.537v4.589l2.713,3.254h6.488l2.717-3.254V24.537Z" transform="translate(-120.048 7.032)" fill="none" stroke="#f3f3f3" stroke-miterlimit="10" stroke-width="0.76"/>
            <path id="Trazado_1000458" data-name="Trazado 1000458" d="M147.752,24.537v4.589l2.715,3.254h6.487l2.717-3.254V24.537Z" transform="translate(-123.636 7.032)" fill="none" stroke="#f3f3f3" stroke-miterlimit="10" stroke-width="0.76"/>
            <line id="Línea_3272" data-name="Línea 3272" x2="4.073" transform="translate(36.067 32.589)" fill="none" stroke="#f3f3f3" stroke-miterlimit="10" stroke-width="0.76"/>
          </g>
        </g>
        <g id="Grupo_1179337" data-name="Grupo 1179337">
          <g id="Grupo_1179336" data-name="Grupo 1179336" clip-path="url(#clip-path)">
            <path id="Trazado_1000460" data-name="Trazado 1000460" d="M205.733,321.632A38.128,38.128,0,1,1,167.6,283.5a38.13,38.13,0,0,1,38.128,38.128" transform="translate(37.108 81.253)" fill="#fff"/>
          </g>
        </g>
        <g id="Grupo_1179342" data-name="Grupo 1179342" transform="translate(166.585 364.748)">
          <g id="Grupo_1179341" data-name="Grupo 1179341" clip-path="url(#clip-path-7)">
            <rect id="Rectángulo_456305" data-name="Rectángulo 456305" width="8.798" height="7.331" transform="translate(33.73 49.685)" fill="#f3a681"/>
            <path id="Trazado_1000461" data-name="Trazado 1000461" d="M159.563,331.85a7.347,7.347,0,0,1-4.87-2.339l-5.455-5.276a14.708,14.708,0,0,1-2.656-5.486l-2.226-10.535a8.862,8.862,0,0,1,1.027-5.769l4.525-7a6.171,6.171,0,0,1,4.574-2.62h17.741a6.18,6.18,0,0,1,4.574,2.62l4.522,7a8.871,8.871,0,0,1,1.028,5.769l-2.226,10.535a14.688,14.688,0,0,1-2.656,5.486l-5.451,5.276a7.367,7.367,0,0,1-4.874,2.339Z" transform="translate(-125.248 -280.823)" fill="#f6b794"/>
            <path id="Trazado_1000462" data-name="Trazado 1000462" d="M178.1,292.693H148.909l-5.13,14.16,1.958,6.632,7.938-10.94h19.658l8.115,10.445,1.787-6.137Z" transform="translate(-125.378 -280.861)" fill="#42130a"/>
            <path id="Trazado_1000463" data-name="Trazado 1000463" d="M175.8,291.785l-1.24,1.145-1.24-1.145-1.236,1.145-1.236-1.145-1.24,1.145-1.239-1.145-1.239,1.145-1.238-1.145-1.236,1.145-1.239-1.145-1.085,1-1.086-1L160,292.93l-1.242-1.145-1.236,1.145-1.239-1.145-1.236,1.145-1.242-1.145-1.239,1.145-1.236-1.145-1.236,1.145-1.238-1.145-1.1,1.019v1.729h29.206v-1.675Z" transform="translate(-124.238 -281.122)" fill="#42130a"/>
            <path id="Trazado_1000464" data-name="Trazado 1000464" d="M146.987,316.741l.482-10.376-3.678-2.666Z" transform="translate(-125.374 -277.707)" fill="#42130a"/>
            <path id="Trazado_1000465" data-name="Trazado 1000465" d="M172.15,316.629l-.938-10.012,4.139-2.9Z" transform="translate(-117.516 -277.703)" fill="#42130a"/>
            <rect id="Rectángulo_456306" data-name="Rectángulo 456306" width="30.519" height="19.882" transform="translate(22.867 56.372)" fill="#f3f3f3"/>
            <rect id="Rectángulo_456307" data-name="Rectángulo 456307" width="10.999" height="19.882" transform="translate(22.867 56.372)" fill="#003d5a"/>
            <rect id="Rectángulo_456308" data-name="Rectángulo 456308" width="10.998" height="19.882" transform="translate(42.388 56.372)" fill="#003d5a"/>
            <rect id="Rectángulo_456309" data-name="Rectángulo 456309" width="6.234" height="16.303" transform="translate(53.985 59.952)" fill="#003d5a"/>
            <path id="Trazado_1000466" data-name="Trazado 1000466" d="M178.12,335.24v-4.346l-6.849-3.582h-1.426v7.928Z" transform="translate(-117.907 -270.939)" fill="#003d5a"/>
            <rect id="Rectángulo_456310" data-name="Rectángulo 456310" width="6.232" height="16.303" transform="translate(16.034 59.952)" fill="#003d5a"/>
            <path id="Trazado_1000467" data-name="Trazado 1000467" d="M141.947,335.24v-4.346l6.843-3.582h1.429v7.928Z" transform="translate(-125.903 -270.939)" fill="#003d5a"/>
            <path id="Trazado_1000468" data-name="Trazado 1000468" d="M154.235,310.775a1.283,1.283,0,1,1-1.285-1.284,1.282,1.282,0,0,1,1.285,1.284" transform="translate(-123.117 -276.047)" fill="#5f2b1c"/>
            <path id="Trazado_1000469" data-name="Trazado 1000469" d="M167.2,310.775a1.283,1.283,0,1,1-1.284-1.284,1.283,1.283,0,0,1,1.284,1.284" transform="translate(-119.401 -276.047)" fill="#5f2b1c"/>
            <path id="Trazado_1000470" data-name="Trazado 1000470" d="M155.469,317.292a5.215,5.215,0,0,0,9.466,0Z" transform="translate(-122.028 -273.811)" fill="#5d000f"/>
            <g id="Grupo_1179340" data-name="Grupo 1179340" transform="translate(37.03 32.621)" style="mix-blend-mode: multiply;isolation: isolate">
              <g id="Grupo_1179339" data-name="Grupo 1179339">
                <g id="Grupo_1179338" data-name="Grupo 1179338" clip-path="url(#clip-path-8)">
                  <path id="Trazado_1000471" data-name="Trazado 1000471" d="M159.86,309.011l-1.442,7.08H160.3" transform="translate(-158.212 -308.805)" fill="none" stroke="#b6b8bf" stroke-linecap="round" stroke-linejoin="round" stroke-width="0.321"/>
                </g>
              </g>
            </g>
            <path id="Trazado_1000472" data-name="Trazado 1000472" d="M163.689,307.614a3,3,0,0,1,2.418-1.17,2.853,2.853,0,0,1,2.394,1.22,8.768,8.768,0,0,0-2.394-.395,10.673,10.673,0,0,0-2.418.345" transform="translate(-119.672 -276.92)" fill="#5f2b1c"/>
            <path id="Trazado_1000473" data-name="Trazado 1000473" d="M150.867,307.614a3,3,0,0,1,2.415-1.17,2.848,2.848,0,0,1,2.394,1.22,8.759,8.759,0,0,0-2.392-.395,10.652,10.652,0,0,0-2.418.345" transform="translate(-123.347 -276.92)" fill="#5f2b1c"/>
          </g>
        </g>
        <g id="Grupo_1179344" data-name="Grupo 1179344">
          <g id="Grupo_1179343" data-name="Grupo 1179343" clip-path="url(#clip-path)">
            <path id="Trazado_1000475" data-name="Trazado 1000475" d="M84.813,195.48a38.128,38.128,0,1,1-38.131-38.131A38.128,38.128,0,0,1,84.813,195.48" transform="translate(2.452 45.097)" fill="#fff"/>
          </g>
        </g>
        <g id="Grupo_1179349" data-name="Grupo 1179349" transform="translate(11.008 202.433)">
          <g id="Grupo_1179348" data-name="Grupo 1179348" clip-path="url(#clip-path-10)">
            <path id="Trazado_1000476" data-name="Trazado 1000476" d="M58.077,217.9l.34-5.813h-7.7l.337,5.813Z" transform="translate(3.527 -141.647)" fill="#f6b794"/>
            <path id="Trazado_1000477" data-name="Trazado 1000477" d="M26.836,217.9l.342-5.813h-7.7l.337,5.813Z" transform="translate(-5.426 -141.647)" fill="#f6b794"/>
            <rect id="Rectángulo_456313" data-name="Rectángulo 456313" width="8.8" height="7.332" transform="translate(33.67 49.687)" fill="#f3a681"/>
            <path id="Trazado_1000478" data-name="Trazado 1000478" d="M38.616,205.691a7.342,7.342,0,0,1-4.87-2.335l-5.455-5.272a14.77,14.77,0,0,1-2.654-5.49l-2.226-10.537a8.859,8.859,0,0,1,1.025-5.768l4.525-7a6.175,6.175,0,0,1,4.574-2.617H51.278a6.17,6.17,0,0,1,4.573,2.617l4.522,7a8.852,8.852,0,0,1,1.028,5.768l-2.226,10.537a14.79,14.79,0,0,1-2.654,5.49l-5.454,5.272a7.353,7.353,0,0,1-4.871,2.335Z" transform="translate(-4.335 -154.665)" fill="#f6b794"/>
            <path id="Trazado_1000479" data-name="Trazado 1000479" d="M26.022,190.586l.48-10.379-3.676-2.663Z" transform="translate(-4.466 -151.548)" fill="#b53d0a"/>
            <path id="Trazado_1000480" data-name="Trazado 1000480" d="M51.185,190.474l-.938-10.015,4.142-2.9Z" transform="translate(3.393 -151.545)" fill="#b53d0a"/>
            <rect id="Rectángulo_456314" data-name="Rectángulo 456314" width="30.522" height="19.882" transform="translate(22.81 56.376)" fill="#e14908"/>
            <rect id="Rectángulo_456315" data-name="Rectángulo 456315" width="8.637" height="12.282" transform="translate(54 59.95)" fill="#e14908"/>
            <path id="Trazado_1000481" data-name="Trazado 1000481" d="M59.613,209.088v-4.346l-9.247-3.584H48.936v7.931Z" transform="translate(3.017 -144.781)" fill="#e14908"/>
            <rect id="Rectángulo_456316" data-name="Rectángulo 456316" width="8.521" height="12.282" transform="translate(13.619 59.95)" fill="#e14908"/>
            <path id="Trazado_1000482" data-name="Trazado 1000482" d="M19.147,209.088v-4.346l9.137-3.584h1.423v7.931Z" transform="translate(-5.52 -144.781)" fill="#e14908"/>
            <path id="Trazado_1000483" data-name="Trazado 1000483" d="M57.139,167.6l-14.256-4.766L27.947,167.6,22.812,181.76l1.963,6.631,7.936-10.941H52.369L60.481,187.9l1.787-6.138Z" transform="translate(-4.47 -155.765)" fill="#b53d0a"/>
            <path id="Trazado_1000484" data-name="Trazado 1000484" d="M59.308,178.7s-3.882,13.14-7.067,14.869c-2.737,1.492-8.423,1.869-10.135,1.953-1.712-.084-7.4-.461-10.135-1.953-3.187-1.729-7.066-14.869-7.066-14.869a14.82,14.82,0,0,1-.654,5.256l1.095,5.19A14.792,14.792,0,0,0,28,194.636l5.456,5.271a7.346,7.346,0,0,0,4.871,2.336h7.552a7.352,7.352,0,0,0,4.872-2.336l5.454-5.271a14.79,14.79,0,0,0,2.654-5.49l1.1-5.19a14.693,14.693,0,0,1-.654-5.256" transform="translate(-4.057 -151.217)" fill="#b53d0a"/>
            <path id="Trazado_1000485" data-name="Trazado 1000485" d="M51.821,193.365a1.384,1.384,0,0,1-.965-.391l-4-3.934H35.291l-4,3.934a1.375,1.375,0,0,1-1.927-1.962l4.4-4.327a1.357,1.357,0,0,1,.964-.4H47.421a1.363,1.363,0,0,1,.968.4l4.4,4.327a1.378,1.378,0,0,1,.017,1.947,1.36,1.36,0,0,1-.98.407" transform="translate(-2.71 -149.042)" fill="#b53d0a"/>
            <path id="Trazado_1000486" data-name="Trazado 1000486" d="M33.058,182.451a1.284,1.284,0,1,1-1.284-1.28,1.283,1.283,0,0,1,1.284,1.28" transform="translate(-2.27 -150.509)" fill="#4f2315"/>
            <path id="Trazado_1000487" data-name="Trazado 1000487" d="M46.022,182.451a1.283,1.283,0,1,1-1.284-1.28,1.285,1.285,0,0,1,1.284,1.28" transform="translate(1.447 -150.509)" fill="#4f2315"/>
            <path id="Trazado_1000488" data-name="Trazado 1000488" d="M34.291,188.97a5.218,5.218,0,0,0,9.469,0Z" transform="translate(-1.18 -148.273)" fill="#5d000f"/>
            <g id="Grupo_1179347" data-name="Grupo 1179347" transform="translate(36.769 29.148)" style="mix-blend-mode: multiply;isolation: isolate">
              <g id="Grupo_1179346" data-name="Grupo 1179346">
                <g id="Grupo_1179345" data-name="Grupo 1179345" clip-path="url(#clip-path-11)">
                  <path id="Trazado_1000489" data-name="Trazado 1000489" d="M38.737,180.154l-1.442,7.08h1.877" transform="translate(-37.089 -179.948)" fill="none" stroke="#b6b8bf" stroke-linecap="round" stroke-linejoin="round" stroke-width="0.321"/>
                </g>
              </g>
            </g>
            <path id="Trazado_1000490" data-name="Trazado 1000490" d="M42.512,179.293a3,3,0,0,1,2.415-1.172,2.849,2.849,0,0,1,2.4,1.22,8.822,8.822,0,0,0-2.393-.4,10.826,10.826,0,0,0-2.418.349" transform="translate(1.176 -151.383)" fill="#5f2b1c"/>
            <path id="Trazado_1000491" data-name="Trazado 1000491" d="M29.689,179.293a3,3,0,0,1,2.418-1.172,2.858,2.858,0,0,1,2.4,1.22,8.793,8.793,0,0,0-2.394-.4,10.768,10.768,0,0,0-2.42.347" transform="translate(-2.499 -151.383)" fill="#5f2b1c"/>
          </g>
        </g>
        <g id="Grupo_1179351" data-name="Grupo 1179351">
          <g id="Grupo_1179350" data-name="Grupo 1179350" clip-path="url(#clip-path)">
            <path id="Trazado_1000493" data-name="Trazado 1000493" d="M322.461,189.5a38.127,38.127,0,1,1-38.126-38.132A38.125,38.125,0,0,1,322.461,189.5" transform="translate(70.563 43.382)" fill="#fff"/>
          </g>
        </g>
        <g id="Grupo_1179356" data-name="Grupo 1179356" transform="translate(316.77 194.735)">
          <g id="Grupo_1179355" data-name="Grupo 1179355" clip-path="url(#clip-path-13)">
            <path id="Trazado_1000494" data-name="Trazado 1000494" d="M281.221,197.308l-4.443,5.5-4.355-5.5v-7.334h8.8Z" transform="translate(-238.693 -140.288)" fill="#f3a681"/>
            <path id="Trazado_1000495" data-name="Trazado 1000495" d="M294.459,215.055V195.175H283.623l-4.194,5.5-4.588-5.5H264.009v19.881Z" transform="translate(-241.105 -138.798)" fill="#e8eaed"/>
            <path id="Trazado_1000496" data-name="Trazado 1000496" d="M276.293,199.708a7.353,7.353,0,0,1-4.868-2.335l-5.455-5.273a14.7,14.7,0,0,1-2.654-5.49l-2.226-10.539a8.87,8.87,0,0,1,1.024-5.767l4.526-7a6.164,6.164,0,0,1,4.574-2.618h17.741a6.172,6.172,0,0,1,4.574,2.618l4.525,7a8.861,8.861,0,0,1,1.024,5.767l-2.226,10.539a14.718,14.718,0,0,1-2.653,5.49l-5.454,5.273a7.362,7.362,0,0,1-4.871,2.335Z" transform="translate(-241.978 -148.682)" fill="#f6b794"/>
            <path id="Trazado_1000497" data-name="Trazado 1000497" d="M294.834,160.554H265.641l-5.135,14.16,1.965,6.634,7.937-10.943h19.659l8.111,10.45,1.787-6.141Z" transform="translate(-242.109 -148.72)" fill="#42130a"/>
            <path id="Trazado_1000498" data-name="Trazado 1000498" d="M263.72,184.6l.479-10.378-3.677-2.665Z" transform="translate(-242.104 -145.566)" fill="#42130a"/>
            <path id="Trazado_1000499" data-name="Trazado 1000499" d="M288.883,184.492l-.937-10.016,4.138-2.9Z" transform="translate(-234.245 -145.562)" fill="#42130a"/>
            <path id="Trazado_1000500" data-name="Trazado 1000500" d="M280.188,195.174l1.787,2.454-4.124,5.6-1.858-2.56Z" transform="translate(-237.67 -138.798)" fill="#d4d6db"/>
            <path id="Trazado_1000501" data-name="Trazado 1000501" d="M272.832,195.174l-1.788,2.454,4.5,5.6,1.855-2.56Z" transform="translate(-239.089 -138.798)" fill="#d4d6db"/>
            <path id="Trazado_1000502" data-name="Trazado 1000502" d="M279.325,213.488l-1.419-12.847h-2.564l-1.419,12.847Z" transform="translate(-238.264 -137.231)" fill="#950010"/>
            <rect id="Rectángulo_456319" data-name="Rectángulo 456319" width="3.11" height="3.11" transform="matrix(0.707, -0.707, 0.707, 0.707, 36.16, 64.053)" fill="#b3000e"/>
            <rect id="Rectángulo_456320" data-name="Rectángulo 456320" width="6.23" height="16.308" transform="translate(53.99 59.951)" fill="#2f2c2c"/>
            <path id="Trazado_1000503" data-name="Trazado 1000503" d="M294.848,203.105v-4.346L288,195.174h-1.427v7.931Z" transform="translate(-234.637 -138.798)" fill="#2f2c2c"/>
            <rect id="Rectángulo_456321" data-name="Rectángulo 456321" width="6.232" height="16.308" transform="translate(16.037 59.951)" fill="#2f2c2c"/>
            <path id="Trazado_1000504" data-name="Trazado 1000504" d="M258.677,203.105v-4.346l6.846-3.584h1.427v7.931Z" transform="translate(-242.633 -138.798)" fill="#2f2c2c"/>
            <path id="Trazado_1000505" data-name="Trazado 1000505" d="M290.788,215.055V195.175H280.751l-3.817,19.881Z" transform="translate(-237.401 -138.798)" fill="#2f2c2c"/>
            <path id="Trazado_1000506" data-name="Trazado 1000506" d="M277.955,215.055l-3.8-19.881H263.981v19.881Z" transform="translate(-241.113 -138.798)" fill="#2f2c2c"/>
            <path id="Trazado_1000507" data-name="Trazado 1000507" d="M294.83,160.554l-4.56,9.99-29.749,4.17,5.116-14.16Z" transform="translate(-242.104 -148.72)" fill="#672218"/>
            <path id="Trazado_1000508" data-name="Trazado 1000508" d="M270.881,179.39a1.283,1.283,0,1,1-1.281-1.281,1.28,1.28,0,0,1,1.281,1.281" transform="translate(-239.871 -143.689)" fill="#4f2315"/>
            <path id="Trazado_1000509" data-name="Trazado 1000509" d="M283.849,179.39a1.285,1.285,0,1,1-1.284-1.281,1.282,1.282,0,0,1,1.284,1.281" transform="translate(-236.155 -143.689)" fill="#4f2315"/>
            <path id="Trazado_1000510" data-name="Trazado 1000510" d="M272.115,185.909a5.217,5.217,0,0,0,9.468,0Z" transform="translate(-238.782 -141.453)" fill="#5d000f"/>
            <g id="Grupo_1179354" data-name="Grupo 1179354" transform="translate(36.992 32.904)" style="mix-blend-mode: multiply;isolation: isolate">
              <g id="Grupo_1179353" data-name="Grupo 1179353">
                <g id="Grupo_1179352" data-name="Grupo 1179352" clip-path="url(#clip-path-14)">
                  <path id="Trazado_1000511" data-name="Trazado 1000511" d="M276.564,177.09l-1.445,7.083H277" transform="translate(-274.913 -176.884)" fill="none" stroke="#b6b8bf" stroke-linecap="round" stroke-linejoin="round" stroke-width="0.321"/>
                </g>
              </g>
            </g>
            <path id="Trazado_1000512" data-name="Trazado 1000512" d="M280.336,176.231a3.007,3.007,0,0,1,2.416-1.172,2.854,2.854,0,0,1,2.4,1.22,8.727,8.727,0,0,0-2.393-.4,10.767,10.767,0,0,0-2.419.347" transform="translate(-236.426 -144.563)" fill="#4f2315"/>
            <path id="Trazado_1000513" data-name="Trazado 1000513" d="M267.514,176.231a3,3,0,0,1,2.416-1.172,2.852,2.852,0,0,1,2.4,1.22,8.777,8.777,0,0,0-2.394-.4,10.756,10.756,0,0,0-2.417.347" transform="translate(-240.1 -144.563)" fill="#4f2315"/>
          </g>
        </g>
        <g id="Grupo_1179358" data-name="Grupo 1179358">
          <g id="Grupo_1179357" data-name="Grupo 1179357" clip-path="url(#clip-path)">
            <path id="Trazado_1000515" data-name="Trazado 1000515" d="M119.148,101.328A38.129,38.129,0,1,1,81.018,63.2a38.129,38.129,0,0,1,38.13,38.126" transform="translate(12.292 18.114)" fill="#fff"/>
          </g>
        </g>
        <g id="Grupo_1179363" data-name="Grupo 1179363" transform="translate(55.182 81.304)">
          <g id="Grupo_1179362" data-name="Grupo 1179362" clip-path="url(#clip-path-16)">
            <path id="Trazado_1000516" data-name="Trazado 1000516" d="M77.908,109.141l-4.445,5.5-4.355-5.5V101.81h8.8Z" transform="translate(-35.376 -52.125)" fill="#f3a681"/>
            <path id="Trazado_1000517" data-name="Trazado 1000517" d="M91.143,126.89V107.009H80.306l-4.194,5.5-4.585-5.5H60.693V126.89Z" transform="translate(-37.788 -50.635)" fill="#e8eaed"/>
            <path id="Trazado_1000518" data-name="Trazado 1000518" d="M72.978,111.545a7.348,7.348,0,0,1-4.871-2.343l-5.454-5.267A14.773,14.773,0,0,1,60,98.445L57.771,87.909A8.863,8.863,0,0,1,58.8,82.14l4.52-7A6.183,6.183,0,0,1,67.9,72.521H85.641a6.18,6.18,0,0,1,4.571,2.618l4.525,7a8.9,8.9,0,0,1,1.027,5.769L93.537,98.445a14.79,14.79,0,0,1-2.654,5.49L85.428,109.2a7.339,7.339,0,0,1-4.868,2.343Z" transform="translate(-38.661 -60.52)" fill="#f6b794"/>
            <path id="Trazado_1000519" data-name="Trazado 1000519" d="M91.52,73.388,77.426,68.9l-15.1,4.49L57.192,87.547l1.959,6.635L67.092,83.24H86.752l8.111,10.451,1.786-6.144Z" transform="translate(-38.791 -61.558)" fill="#f08300"/>
            <path id="Trazado_1000520" data-name="Trazado 1000520" d="M60.4,96.438l.48-10.379-3.677-2.666Z" transform="translate(-38.787 -57.404)" fill="#f08300"/>
            <path id="Trazado_1000521" data-name="Trazado 1000521" d="M85.568,96.324l-.941-10.012,4.14-2.905Z" transform="translate(-30.928 -57.4)" fill="#f08300"/>
            <path id="Trazado_1000522" data-name="Trazado 1000522" d="M76.872,107.009l1.788,2.454-4.125,5.6L72.678,112.5Z" transform="translate(-34.353 -50.635)" fill="#d4d6db"/>
            <path id="Trazado_1000523" data-name="Trazado 1000523" d="M69.515,107.009l-1.787,2.454,4.5,5.6,1.855-2.562Z" transform="translate(-35.771 -50.635)" fill="#d4d6db"/>
            <path id="Trazado_1000524" data-name="Trazado 1000524" d="M76.008,125.323,74.59,112.474H72.024l-1.418,12.849Z" transform="translate(-34.947 -49.069)" fill="#676110"/>
            <rect id="Rectángulo_456324" data-name="Rectángulo 456324" width="3.11" height="3.11" transform="matrix(0.708, -0.707, 0.707, 0.708, 36.162, 64.049)" fill="#a09319"/>
            <rect id="Rectángulo_456325" data-name="Rectángulo 456325" width="6.232" height="16.306" transform="translate(53.99 59.948)" fill="#e8eaed"/>
            <rect id="Rectángulo_456326" data-name="Rectángulo 456326" width="6.232" height="16.306" transform="translate(16.037 59.948)" fill="#e8eaed"/>
            <path id="Trazado_1000525" data-name="Trazado 1000525" d="M91.534,114.938v-4.346l-6.845-3.583H83.261v7.929Z" transform="translate(-31.319 -50.635)" fill="#94b200"/>
            <rect id="Rectángulo_456327" data-name="Rectángulo 456327" width="6.232" height="16.306" transform="translate(53.99 59.948)" fill="#94b200"/>
            <rect id="Rectángulo_456328" data-name="Rectángulo 456328" width="6.232" height="16.306" transform="translate(16.037 59.948)" fill="#94b200"/>
            <path id="Trazado_1000526" data-name="Trazado 1000526" d="M55.363,114.938v-4.346l6.842-3.583h1.427v7.929Z" transform="translate(-39.315 -50.635)" fill="#94b200"/>
            <path id="Trazado_1000527" data-name="Trazado 1000527" d="M91.143,126.89V107.009H85.257l-9.145,11-9.536-11H60.693V126.89Z" transform="translate(-37.788 -50.635)" fill="#94b200"/>
            <path id="Trazado_1000528" data-name="Trazado 1000528" d="M67.427,90.867a1.283,1.283,0,1,1-1.285-1.281,1.284,1.284,0,0,1,1.285,1.281" transform="translate(-36.593 -55.629)" fill="#602b1c"/>
            <path id="Trazado_1000529" data-name="Trazado 1000529" d="M80.388,90.867a1.282,1.282,0,1,1-1.283-1.281,1.281,1.281,0,0,1,1.283,1.281" transform="translate(-32.878 -55.629)" fill="#602b1c"/>
            <path id="Trazado_1000530" data-name="Trazado 1000530" d="M68.66,97.385a5.215,5.215,0,0,0,9.466,0Z" transform="translate(-35.504 -53.394)" fill="#5d000f"/>
            <g id="Grupo_1179361" data-name="Grupo 1179361" transform="translate(36.812 32.444)" style="mix-blend-mode: multiply;isolation: isolate">
              <g id="Grupo_1179360" data-name="Grupo 1179360">
                <g id="Grupo_1179359" data-name="Grupo 1179359" clip-path="url(#clip-path-17)">
                  <path id="Trazado_1000531" data-name="Trazado 1000531" d="M73.107,88.57l-1.445,7.08h1.88" transform="translate(-71.456 -88.364)" fill="none" stroke="#b6b8bf" stroke-linecap="round" stroke-linejoin="round" stroke-width="0.321"/>
                </g>
              </g>
            </g>
            <path id="Trazado_1000532" data-name="Trazado 1000532" d="M76.88,87.708A3,3,0,0,1,79.3,86.536a2.847,2.847,0,0,1,2.394,1.218,8.715,8.715,0,0,0-2.393-.394,10.683,10.683,0,0,0-2.418.347" transform="translate(-33.148 -56.503)" fill="#4f2315"/>
            <path id="Trazado_1000533" data-name="Trazado 1000533" d="M64.059,87.708a3,3,0,0,1,2.415-1.172,2.851,2.851,0,0,1,2.4,1.218,8.722,8.722,0,0,0-2.393-.394,10.663,10.663,0,0,0-2.418.347" transform="translate(-36.823 -56.503)" fill="#4f2315"/>
          </g>
        </g>
        <g id="Grupo_1179365" data-name="Grupo 1179365">
          <g id="Grupo_1179364" data-name="Grupo 1179364" clip-path="url(#clip-path)">
            <path id="Trazado_1000535" data-name="Trazado 1000535" d="M291.9,74.438a38.128,38.128,0,1,1-38.128-38.126A38.127,38.127,0,0,1,291.9,74.438" transform="translate(61.805 10.407)" fill="#fff"/>
          </g>
        </g>
        <g id="Grupo_1179370" data-name="Grupo 1179370" transform="translate(277.453 46.709)">
          <g id="Grupo_1179369" data-name="Grupo 1179369" clip-path="url(#clip-path-19)">
            <path id="Trazado_1000536" data-name="Trazado 1000536" d="M265.651,101.882H232.26l.961-47.657,31.787.959Z" transform="translate(-210.887 -31.168)" fill="#340c00"/>
            <rect id="Rectángulo_456331" data-name="Rectángulo 456331" width="8.798" height="7.331" transform="translate(33.706 46.382)" fill="#f3a681"/>
            <path id="Trazado_1000537" data-name="Trazado 1000537" d="M245.431,81.555a5.57,5.57,0,0,1-3.934-2.347l-4.4-5.278a16.512,16.512,0,0,1-2.143-5.5l-.883-10.235a10.731,10.731,0,0,1,.829-5.777s7.68-7.479,8.959-7.479h9.7c1.279,0,8.827,8.445,8.827,8.445a10.69,10.69,0,0,1,.827,5.774l-1.184,9.271a16.542,16.542,0,0,1-2.145,5.5l-4.4,5.278a5.565,5.565,0,0,1-3.934,2.347Z" transform="translate(-210.398 -33.829)" fill="#f6b794"/>
            <path id="Trazado_1000538" data-name="Trazado 1000538" d="M258.982,44.857H239.052l-6.09,11.995L235.2,68.893l4.812-13.176,17.121,2.246,5.607,11.915L264.9,57.826Z" transform="translate(-210.686 -33.853)" fill="#42130a"/>
            <path id="Trazado_1000539" data-name="Trazado 1000539" d="M257.839,100.735l2.945-23.182H235.45l3.183,23.182Z" transform="translate(-209.973 -24.482)" fill="#d82b42"/>
            <path id="Trazado_1000540" data-name="Trazado 1000540" d="M263.811,100.284,258.9,79.024l-6.334.2,4.845,21.055Z" transform="translate(-205.066 -24.06)" fill="#d82b42"/>
            <path id="Trazado_1000541" data-name="Trazado 1000541" d="M259.477,79.461l-3.043-1.923h-5.879l1.577,6.819,8.059-1.862Z" transform="translate(-205.644 -24.486)" fill="#d82b42"/>
            <rect id="Rectángulo_456332" data-name="Rectángulo 456332" width="6.374" height="0.04" transform="translate(52.354 76.317) rotate(-1.86)" fill="#d82b42"/>
            <path id="Trazado_1000542" data-name="Trazado 1000542" d="M229.26,100.284l4.907-21.26,6.334.2-4.843,21.055Z" transform="translate(-211.747 -24.06)" fill="#d82b42"/>
            <path id="Trazado_1000543" data-name="Trazado 1000543" d="M233.236,79.461l3.043-1.923h5.879l-1.576,6.819-8.061-1.862Z" transform="translate(-210.812 -24.486)" fill="#d82b42"/>
            <rect id="Rectángulo_456333" data-name="Rectángulo 456333" width="6.373" height="0.04" transform="translate(17.53 76.213)" fill="#d82b42"/>
            <path id="Trazado_1000544" data-name="Trazado 1000544" d="M258.968,44.857,257.1,57.964l-24.161-1.1,6.1-12.005Z" transform="translate(-210.692 -33.853)" fill="#672218"/>
            <path id="Trazado_1000545" data-name="Trazado 1000545" d="M241.383,63.815a1.034,1.034,0,1,1-1.033-1.033,1.033,1.033,0,0,1,1.033,1.033" transform="translate(-208.865 -28.715)" fill="#4f2315"/>
            <path id="Trazado_1000546" data-name="Trazado 1000546" d="M251.84,63.815a1.035,1.035,0,1,1-1.038-1.033,1.036,1.036,0,0,1,1.038,1.033" transform="translate(-205.869 -28.715)" fill="#4f2315"/>
            <path id="Trazado_1000547" data-name="Trazado 1000547" d="M242.379,69.072a4.207,4.207,0,0,0,7.635,0Z" transform="translate(-207.987 -26.913)" fill="#5d000f"/>
            <g id="Grupo_1179368" data-name="Grupo 1179368" transform="translate(37.341 32.846)" style="mix-blend-mode: multiply;isolation: isolate">
              <g id="Grupo_1179367" data-name="Grupo 1179367">
                <g id="Grupo_1179366" data-name="Grupo 1179366" clip-path="url(#clip-path-20)">
                  <path id="Trazado_1000548" data-name="Trazado 1000548" d="M245.963,61.962,244.8,67.674h1.51" transform="translate(-244.634 -61.796)" fill="none" stroke="#b6b8bf" stroke-linecap="round" stroke-linejoin="round" stroke-width="0.259"/>
                </g>
              </g>
            </g>
            <path id="Trazado_1000549" data-name="Trazado 1000549" d="M249.01,61.267a2.1,2.1,0,0,1,.852-.692,2.57,2.57,0,0,1,1.1-.252,2.417,2.417,0,0,1,1.1.261,2.131,2.131,0,0,1,.83.723,6.836,6.836,0,0,0-1.93-.319,8.323,8.323,0,0,0-1.948.279" transform="translate(-206.086 -29.42)" fill="#4f2315"/>
            <path id="Trazado_1000550" data-name="Trazado 1000550" d="M238.668,61.267a2.119,2.119,0,0,1,.852-.692,2.584,2.584,0,0,1,1.1-.252,2.431,2.431,0,0,1,1.1.261,2.131,2.131,0,0,1,.83.723,6.843,6.843,0,0,0-1.93-.319,8.325,8.325,0,0,0-1.951.279" transform="translate(-209.05 -29.42)" fill="#4f2315"/>
          </g>
        </g>
        <g id="Grupo_1179372" data-name="Grupo 1179372">
          <g id="Grupo_1179371" data-name="Grupo 1179371" clip-path="url(#clip-path)">
            <path id="Trazado_1000552" data-name="Trazado 1000552" d="M106.722,279.321a38.128,38.128,0,1,1-38.127-38.13,38.127,38.127,0,0,1,38.127,38.13" transform="translate(8.731 69.126)" fill="#fff"/>
          </g>
        </g>
        <g id="Grupo_1179377" data-name="Grupo 1179377" transform="translate(39.198 310.301)">
          <g id="Grupo_1179376" data-name="Grupo 1179376" clip-path="url(#clip-path-22)">
            <path id="Trazado_1000553" data-name="Trazado 1000553" d="M80.446,286.162H47.055l.962-27.131,31.739.812Z" transform="translate(-25.712 -236.062)" fill="#f59100"/>
            <rect id="Rectángulo_456336" data-name="Rectángulo 456336" width="8.8" height="7.332" transform="translate(33.676 46.296)" fill="#f4b093"/>
            <path id="Trazado_1000554" data-name="Trazado 1000554" d="M60.226,286.362a5.564,5.564,0,0,1-3.933-2.344l-4.4-5.28a16.474,16.474,0,0,1-2.143-5.5L48.864,263a10.735,10.735,0,0,1,.827-5.778s7.677-7.482,8.959-7.482h9.707c1.28,0,8.829,8.445,8.829,8.445a10.735,10.735,0,0,1,.826,5.776l-1.186,9.27a16.474,16.474,0,0,1-2.143,5.5l-4.405,5.28a5.552,5.552,0,0,1-3.931,2.344Z" transform="translate(-25.222 -238.724)" fill="#f6bfa2"/>
            <path id="Trazado_1000555" data-name="Trazado 1000555" d="M73.776,249.667H53.851l-6.093,11.991L50,273.7l4.814-13.18,17.12,2.249,4.9,11.913,2.868-12.052Z" transform="translate(-25.51 -238.746)" fill="#ffb200"/>
            <path id="Trazado_1000556" data-name="Trazado 1000556" d="M72.624,305.634l2.95-23.271H50.246l3.2,23.271Z" transform="translate(-24.797 -229.376)" fill="#62b3aa"/>
            <path id="Trazado_1000557" data-name="Trazado 1000557" d="M73.764,249.667,71.9,262.772l-24.162-1.1,6.1-12.005Z" transform="translate(-25.516 -238.746)" fill="#ffcf00"/>
            <path id="Trazado_1000558" data-name="Trazado 1000558" d="M77.3,305.2,74.57,284.26l-6.328-.395L71.581,305.2Z" transform="translate(-19.639 -228.945)" fill="#f6bfa2"/>
            <path id="Trazado_1000559" data-name="Trazado 1000559" d="M75.8,292.445l-1.176-7.754-4.142-2.328-2.442,1.9,1.616,9.965Z" transform="translate(-19.696 -229.376)" fill="#62b3aa"/>
            <path id="Trazado_1000560" data-name="Trazado 1000560" d="M50.64,305.2l3.34-21.338-6.33.395L44.918,305.2Z" transform="translate(-26.324 -228.945)" fill="#f6bfa2"/>
            <path id="Trazado_1000561" data-name="Trazado 1000561" d="M46.131,292.445,47.3,284.69l4.14-2.328,2.446,1.9-1.619,9.965Z" transform="translate(-25.976 -229.376)" fill="#62b3aa"/>
            <path id="Trazado_1000562" data-name="Trazado 1000562" d="M56.23,268.359a1.032,1.032,0,1,1-1.034-1.034,1.035,1.035,0,0,1,1.034,1.034" transform="translate(-23.674 -233.686)" fill="#4f2315"/>
            <path id="Trazado_1000563" data-name="Trazado 1000563" d="M66.688,268.359a1.035,1.035,0,1,1-1.036-1.034,1.036,1.036,0,0,1,1.036,1.034" transform="translate(-20.678 -233.686)" fill="#4f2315"/>
            <path id="Trazado_1000564" data-name="Trazado 1000564" d="M57.227,273.616a4.208,4.208,0,0,0,7.636,0Z" transform="translate(-22.796 -231.883)" fill="#5d000f"/>
            <g id="Grupo_1179375" data-name="Grupo 1179375" transform="translate(37.38 32.421)" style="mix-blend-mode: multiply;isolation: isolate">
              <g id="Grupo_1179374" data-name="Grupo 1179374">
                <g id="Grupo_1179373" data-name="Grupo 1179373" clip-path="url(#clip-path-23)">
                  <path id="Trazado_1000565" data-name="Trazado 1000565" d="M60.812,266.507l-1.163,5.709h1.516" transform="translate(-59.482 -266.341)" fill="none" stroke="#b6b8bf" stroke-linecap="round" stroke-linejoin="round" stroke-width="0.259"/>
                </g>
              </g>
            </g>
            <path id="Trazado_1000566" data-name="Trazado 1000566" d="M63.857,265.81a2.111,2.111,0,0,1,.853-.691,2.537,2.537,0,0,1,1.1-.253,2.426,2.426,0,0,1,1.1.26,2.136,2.136,0,0,1,.831.723,6.94,6.94,0,0,0-1.931-.319,8.329,8.329,0,0,0-1.95.281" transform="translate(-20.896 -234.39)" fill="#4f2315"/>
            <path id="Trazado_1000567" data-name="Trazado 1000567" d="M53.518,265.81a2.1,2.1,0,0,1,.852-.691,2.532,2.532,0,0,1,1.1-.253,2.409,2.409,0,0,1,1.1.261,2.128,2.128,0,0,1,.83.722,6.931,6.931,0,0,0-1.93-.319,8.327,8.327,0,0,0-1.948.281" transform="translate(-23.859 -234.39)" fill="#4f2315"/>
          </g>
        </g>
        <g id="Grupo_1179379" data-name="Grupo 1179379">
          <g id="Grupo_1179378" data-name="Grupo 1179378" clip-path="url(#clip-path)">
            <path id="Trazado_1000569" data-name="Trazado 1000569" d="M307.268,272.354a38.128,38.128,0,1,1-38.128-38.128,38.128,38.128,0,0,1,38.128,38.128" transform="translate(66.208 67.13)" fill="#fff"/>
          </g>
        </g>
        <g id="Grupo_1179384" data-name="Grupo 1179384" transform="translate(297.22 301.34)">
          <g id="Grupo_1179383" data-name="Grupo 1179383" clip-path="url(#clip-path-25)">
            <path id="Trazado_1000570" data-name="Trazado 1000570" d="M280.293,299.858h-32V252.083l32,.9Z" transform="translate(-226.059 -229.093)" fill="#905000"/>
            <rect id="Rectángulo_456339" data-name="Rectángulo 456339" width="8.8" height="7.332" transform="translate(33.695 46.295)" fill="#f4b093"/>
            <path id="Trazado_1000571" data-name="Trazado 1000571" d="M260.785,279.4a5.557,5.557,0,0,1-3.931-2.343l-4.4-5.282a16.415,16.415,0,0,1-2.143-5.5l-.883-10.234a10.7,10.7,0,0,1,.83-5.778s7.676-7.48,8.955-7.48h9.707c1.28,0,8.826,8.444,8.826,8.444a10.716,10.716,0,0,1,.831,5.776l-1.189,9.273a16.5,16.5,0,0,1-2.143,5.5l-4.405,5.282a5.547,5.547,0,0,1-3.931,2.343Z" transform="translate(-225.764 -231.759)" fill="#f6bfa2"/>
            <path id="Trazado_1000572" data-name="Trazado 1000572" d="M274.34,242.7H254.411l-6.093,11.991,2.24,12.045,4.812-13.18,17.122,2.252,4.9,11.91,2.864-12.05Z" transform="translate(-226.052 -231.782)" fill="#ad6000"/>
            <path id="Trazado_1000573" data-name="Trazado 1000573" d="M273.184,298.668l2.953-23.271H250.807L254,298.668Z" transform="translate(-225.339 -222.411)" fill="#7a2c7f"/>
            <path id="Trazado_1000574" data-name="Trazado 1000574" d="M274.323,242.7l-1.867,13.108-24.159-1.1,6.1-12.005Z" transform="translate(-226.058 -231.782)" fill="#cf7100"/>
            <path id="Trazado_1000575" data-name="Trazado 1000575" d="M276.185,298.658l-1.558-21.091-3.822-2.134-1.447,11.375,1.227,11.851Z" transform="translate(-220.022 -222.401)" fill="#f6bfa2"/>
            <path id="Trazado_1000576" data-name="Trazado 1000576" d="M252.246,298.653l1.342-11.977-1.561-11.226-3.839,2.111-1.561,21.091Z" transform="translate(-226.537 -222.396)" fill="#f6bfa2"/>
            <rect id="Rectángulo_456340" data-name="Rectángulo 456340" width="7.147" height="46.769" transform="translate(47.041 23.893)" fill="#ad6000"/>
            <path id="Trazado_1000577" data-name="Trazado 1000577" d="M256.688,261.232a1.035,1.035,0,1,1-1.04-1.033,1.038,1.038,0,0,1,1.04,1.033" transform="translate(-224.246 -226.767)" fill="#4f2315"/>
            <path id="Trazado_1000578" data-name="Trazado 1000578" d="M267.143,261.232a1.035,1.035,0,1,1-1.037-1.033,1.038,1.038,0,0,1,1.037,1.033" transform="translate(-221.25 -226.767)" fill="#4f2315"/>
            <path id="Trazado_1000579" data-name="Trazado 1000579" d="M257.682,266.485a4.2,4.2,0,0,0,7.635,0Z" transform="translate(-223.368 -224.965)" fill="#5d000f"/>
            <g id="Grupo_1179382" data-name="Grupo 1179382" transform="translate(37.26 32.21)" style="mix-blend-mode: multiply;isolation: isolate">
              <g id="Grupo_1179381" data-name="Grupo 1179381">
                <g id="Grupo_1179380" data-name="Grupo 1179380" clip-path="url(#clip-path-26)">
                  <path id="Trazado_1000580" data-name="Trazado 1000580" d="M261.269,259.379l-1.167,5.707h1.517" transform="translate(-259.935 -259.212)" fill="none" stroke="#b6b8bf" stroke-linecap="round" stroke-linejoin="round" stroke-width="0.259"/>
                </g>
              </g>
            </g>
            <path id="Trazado_1000581" data-name="Trazado 1000581" d="M264.31,258.684a2.111,2.111,0,0,1,.852-.692,2.556,2.556,0,0,1,1.1-.253,2.426,2.426,0,0,1,1.1.26,2.122,2.122,0,0,1,.831.722,6.883,6.883,0,0,0-1.93-.318,8.406,8.406,0,0,0-1.951.282" transform="translate(-221.469 -227.472)" fill="#4f2315"/>
            <path id="Trazado_1000582" data-name="Trazado 1000582" d="M253.969,258.684a2.129,2.129,0,0,1,.852-.692,2.56,2.56,0,0,1,1.1-.253,2.431,2.431,0,0,1,1.1.26,2.122,2.122,0,0,1,.831.722,6.884,6.884,0,0,0-1.931-.318,8.406,8.406,0,0,0-1.95.282" transform="translate(-224.433 -227.472)" fill="#4f2315"/>
            <path id="Trazado_1000583" data-name="Trazado 1000583" d="M262.167,258.7v3.986l2.321,2.825h5.53l2.315-2.825V258.7Z" transform="translate(-222.083 -227.195)" fill="none" stroke="#7a2c7f" stroke-miterlimit="10" stroke-width="0.641"/>
            <path id="Trazado_1000584" data-name="Trazado 1000584" d="M251.494,258.7v3.986l2.315,2.825h5.531l2.317-2.825V258.7Z" transform="translate(-225.142 -227.195)" fill="none" stroke="#7a2c7f" stroke-miterlimit="10" stroke-width="0.641"/>
            <line id="Línea_3273" data-name="Línea 3273" x2="3.474" transform="translate(36.546 32.394)" fill="none" stroke="#7a2c7f" stroke-miterlimit="10" stroke-width="0.641"/>
          </g>
        </g>
      </g>
    </g>
  </g>
</svg>
