<svg xmlns="http://www.w3.org/2000/svg" width="144" height="144" viewBox="0 0 144 144">
  <g id="Grupo_1179608" data-name="Grupo 1179608" transform="translate(-726.828 -3314.761)">
    <circle id="Elipse_13613" data-name="Elipse 13613" cx="72" cy="72" r="72" transform="translate(726.828 3314.761)" fill="#e5edf3"/>
    <circle id="Elipse_13614" data-name="Elipse 13614" cx="65" cy="65" r="65" transform="translate(733.828 3321.761)" fill="#fff"/>
    <g id="Grupo_1179421" data-name="Grupo 1179421" transform="translate(762.35 3354.336)">
      <path id="Trazado_1001060" data-name="Trazado 1001060" d="M69.563,68.242H3.394A3.394,3.394,0,0,1,0,64.848V3.821A3.821,3.821,0,0,1,3.821,0H69.065a3.892,3.892,0,0,1,3.892,3.892V64.848A3.394,3.394,0,0,1,69.563,68.242Zm0,0" transform="translate(0 0)" fill="#f4f4f4"/>
      <path id="Trazado_1001061" data-name="Trazado 1001061" d="M474.555,0h-1.684a3.685,3.685,0,0,1,.389,1.651v64.94a3.685,3.685,0,0,1-.389,1.651h2.182a3.394,3.394,0,0,0,3.394-3.394V3.892A3.892,3.892,0,0,0,474.555,0Zm0,0" transform="translate(-405.49 0)" fill="#e8e8e8"/>
      <path id="Trazado_1001062" data-name="Trazado 1001062" d="M0,13.133H72.957V3.5A3.5,3.5,0,0,0,69.46,0H3.5A3.5,3.5,0,0,0,0,3.5Zm0,0" transform="translate(0 0)" fill="#5994ce"/>
      <path id="Trazado_1001063" data-name="Trazado 1001063" d="M474.951,0h-2.079a3.685,3.685,0,0,1,.389,1.651V13.133h5.187V3.5A3.5,3.5,0,0,0,474.951,0Zm0,0" transform="translate(-405.49 0)" fill="#4c7eb0"/>
      <path id="Trazado_1001064" data-name="Trazado 1001064" d="M48.452,30.486a2.591,2.591,0,1,1-2.592-2.592A2.592,2.592,0,0,1,48.452,30.486Zm0,0" transform="translate(-37.104 -23.92)" fill="#fa5d72"/>
      <path id="Trazado_1001065" data-name="Trazado 1001065" d="M110.015,30.486a2.592,2.592,0,1,1-2.592-2.592A2.592,2.592,0,0,1,110.015,30.486Zm0,0" transform="translate(-89.894 -23.92)" fill="#f6d867"/>
      <path id="Trazado_1001066" data-name="Trazado 1001066" d="M171.578,30.486a2.592,2.592,0,1,1-2.592-2.592A2.592,2.592,0,0,1,171.578,30.486Zm0,0" transform="translate(-142.684 -23.92)" fill="#279463"/>
      <path id="Trazado_1001067" data-name="Trazado 1001067" d="M51.843,236.669H43.567a2.017,2.017,0,0,1-2.017-2.017v-17.1a2.017,2.017,0,0,1,2.017-2.017h8.275a2.017,2.017,0,0,1,2.017,2.017v17.1A2.017,2.017,0,0,1,51.843,236.669Zm0,0" transform="translate(-35.63 -184.82)" fill="#2cab72"/>
      <path id="Trazado_1001068" data-name="Trazado 1001068" d="M103.189,215.531H101.43a2.381,2.381,0,0,1,.146.814v19.509a2.365,2.365,0,0,1-.146.814h1.759a2.017,2.017,0,0,0,2.017-2.017v-17.1A2.018,2.018,0,0,0,103.189,215.531Zm0,0" transform="translate(-86.977 -184.82)" fill="#279463"/>
      <path id="Trazado_1001069" data-name="Trazado 1001069" d="M138.222,236.669h-8.275a2.017,2.017,0,0,1-2.017-2.017v-17.1a2.017,2.017,0,0,1,2.017-2.017h8.275a2.017,2.017,0,0,1,2.017,2.017v17.1A2.017,2.017,0,0,1,138.222,236.669Zm0,0" transform="translate(-109.701 -184.82)" fill="#2cab72"/>
      <path id="Trazado_1001070" data-name="Trazado 1001070" d="M188.68,215.531h-1.907a2.383,2.383,0,0,1,.132.78v19.578a2.382,2.382,0,0,1-.132.78h1.907a2.017,2.017,0,0,0,2.017-2.017v-17.1A2.017,2.017,0,0,0,188.68,215.531Zm0,0" transform="translate(-160.159 -184.82)" fill="#279463"/>
      <path id="Trazado_1001071" data-name="Trazado 1001071" d="M224.6,236.669h-8.275a2.017,2.017,0,0,1-2.017-2.017v-17.1a2.017,2.017,0,0,1,2.017-2.017H224.6a2.017,2.017,0,0,1,2.017,2.017v17.1A2.017,2.017,0,0,1,224.6,236.669Zm0,0" transform="translate(-183.774 -184.82)" fill="#2cab72"/>
      <path id="Trazado_1001072" data-name="Trazado 1001072" d="M274.511,215.531h-2a2.322,2.322,0,0,1,.249,1.044v19.051a2.323,2.323,0,0,1-.249,1.044h2a2.017,2.017,0,0,0,2.017-2.017v-17.1A2.017,2.017,0,0,0,274.511,215.531Zm0,0" transform="translate(-233.681 -184.82)" fill="#279463"/>
      <path id="Trazado_1001073" data-name="Trazado 1001073" d="M310.984,236.669h-8.275a2.017,2.017,0,0,1-2.017-2.017v-17.1a2.017,2.017,0,0,1,2.017-2.017h8.275A2.017,2.017,0,0,1,313,217.548v17.1A2.017,2.017,0,0,1,310.984,236.669Zm0,0" transform="translate(-257.845 -184.82)" fill="#8ed4b5"/>
      <path id="Trazado_1001074" data-name="Trazado 1001074" d="M359.872,215.531H357.7a2.309,2.309,0,0,1,.266,1.078v18.983a2.309,2.309,0,0,1-.266,1.077h2.169a2.017,2.017,0,0,0,2.017-2.017v-17.1A2.017,2.017,0,0,0,359.872,215.531Zm0,0" transform="translate(-306.733 -184.82)" fill="#74ad94"/>
      <path id="Trazado_1001075" data-name="Trazado 1001075" d="M397.366,236.669h-8.275a2.017,2.017,0,0,1-2.017-2.017v-17.1a2.017,2.017,0,0,1,2.017-2.017h8.275a2.017,2.017,0,0,1,2.017,2.017v17.1A2.017,2.017,0,0,1,397.366,236.669Zm0,0" transform="translate(-331.919 -184.82)" fill="#8ed4b5"/>
      <path id="Trazado_1001076" data-name="Trazado 1001076" d="M448.25,215.531h-1.836a2.368,2.368,0,0,1,.164.862v19.415a2.37,2.37,0,0,1-.164.862h1.836a2.017,2.017,0,0,0,2.017-2.017v-17.1A2.017,2.017,0,0,0,448.25,215.531Zm0,0" transform="translate(-382.803 -184.82)" fill="#74ad94"/>
      <path id="Trazado_1001077" data-name="Trazado 1001077" d="M263.453,40.557h26.814a1.1,1.1,0,0,0,0-2.2H263.453a1.1,1.1,0,0,0,0,2.2Zm0,0" transform="translate(-224.968 -32.89)" fill="#495663"/>
    </g>
  </g>
</svg>
