<svg xmlns="http://www.w3.org/2000/svg" width="144" height="144" viewBox="0 0 144 144">
  <g id="Grupo_1179609" data-name="Grupo 1179609" transform="translate(-1069.992 -3314.761)">
    <circle id="Elipse_13613" data-name="Elipse 13613" cx="72" cy="72" r="72" transform="translate(1069.992 3314.761)" fill="#e5edf3"/>
    <circle id="Elipse_13614" data-name="Elipse 13614" cx="65" cy="65" r="65" transform="translate(1076.992 3321.761)" fill="#fff"/>
    <g id="Grupo_1179423" data-name="Grupo 1179423" transform="translate(1105 3344.572)">
      <g id="Grupo_1179422" data-name="Grupo 1179422" transform="translate(0 8.86)">
        <path id="Trazado_1001078" data-name="Trazado 1001078" d="M365.143,223.927V191.877a1.107,1.107,0,0,0-1.261-1.257h-3.759c-.65,0-.8-.464-.369-.892l9.506-9.505a1.191,1.191,0,0,1,1.781,0l9.505,9.505c.511.511.349.892-.369.892h-3.763a1.123,1.123,0,0,0-1.257,1.257v32.049a1.131,1.131,0,0,1-1.126,1.126h-7.761A1.131,1.131,0,0,1,365.143,223.927Z" transform="translate(-309.217 -155.906)" fill="#ffe07d" fill-rule="evenodd"/>
        <path id="Trazado_1001079" data-name="Trazado 1001079" d="M423.045,181.083l.86-.861a1.191,1.191,0,0,1,1.781,0l9.505,9.505c.511.511.349.892-.369.892h-3.763a1.123,1.123,0,0,0-1.257,1.257v32.049a1.131,1.131,0,0,1-1.126,1.126h-3.5a1.131,1.131,0,0,0,1.126-1.126V185.4a2.41,2.41,0,0,0-.765-1.824Z" transform="translate(-363.864 -155.906)" fill="#ffd064" fill-rule="evenodd"/>
        <path id="Trazado_1001080" data-name="Trazado 1001080" d="M70.016,410.879H97.553a1.122,1.122,0,0,0,1.118-1.118v-6.416a1.122,1.122,0,0,0-1.118-1.118H70.016Z" transform="translate(-60.221 -347.196)" fill="#80b4fb" fill-rule="evenodd"/>
        <path id="Trazado_1001081" data-name="Trazado 1001081" d="M241.854,410.879h3.5a1.122,1.122,0,0,0,1.118-1.118v-6.416a1.122,1.122,0,0,0-1.118-1.118h-3.5a1.122,1.122,0,0,1,1.118,1.118v6.416A1.122,1.122,0,0,1,241.854,410.879Z" transform="translate(-208.02 -347.196)" fill="#61a2f9" fill-rule="evenodd"/>
        <path id="Trazado_1001082" data-name="Trazado 1001082" d="M70.016,219.058h35.3a1.123,1.123,0,0,0,1.122-1.118V205.825a1.123,1.123,0,0,0-1.122-1.118h-35.3Z" transform="translate(-60.221 -177.309)" fill="#b3e59f" fill-rule="evenodd"/>
        <path id="Trazado_1001083" data-name="Trazado 1001083" d="M297.355,219.058h3.494a1.123,1.123,0,0,0,1.122-1.118V205.825a1.123,1.123,0,0,0-1.122-1.118h-3.494a1.122,1.122,0,0,1,1.118,1.118V217.94A1.122,1.122,0,0,1,297.355,219.058Z" transform="translate(-255.757 -177.309)" fill="#95d6a4" fill-rule="evenodd"/>
        <path id="Trazado_1001084" data-name="Trazado 1001084" d="M70.016,28.446h60.712a1.122,1.122,0,0,0,1.118-1.118V9.978a1.122,1.122,0,0,0-1.118-1.118H70.016Z" transform="translate(-60.221 -8.86)" fill="#e27f84" fill-rule="evenodd"/>
        <path id="Trazado_1001085" data-name="Trazado 1001085" d="M479,28.446h3.5a1.122,1.122,0,0,0,1.118-1.118V9.978A1.122,1.122,0,0,0,482.5,8.86H479a1.122,1.122,0,0,1,1.118,1.118V27.328A1.122,1.122,0,0,1,479,28.446Z" transform="translate(-411.992 -8.86)" fill="#c9646d" fill-rule="evenodd"/>
        <path id="Trazado_1001086" data-name="Trazado 1001086" d="M9.795,58.421A9.793,9.793,0,1,1,0,68.216,9.795,9.795,0,0,1,9.795,58.421Zm0-49.561A9.793,9.793,0,1,1,0,18.655,9.795,9.795,0,0,1,9.795,8.86Zm0,24.781A9.793,9.793,0,1,1,0,43.435,9.795,9.795,0,0,1,9.795,33.641Z" transform="translate(0 -8.86)" fill="#ebe8fa" fill-rule="evenodd"/>
        <path id="Trazado_1001087" data-name="Trazado 1001087" d="M59.265,58.421a9.793,9.793,0,1,1-1.749,19.431,9.794,9.794,0,0,0,0-19.273A9.74,9.74,0,0,1,59.265,58.421Zm0-49.561a9.793,9.793,0,1,1-1.749,19.431,9.8,9.8,0,0,0,0-19.277,10.127,10.127,0,0,1,1.749-.155Zm0,24.781a9.793,9.793,0,1,1-1.749,19.431,9.8,9.8,0,0,0,0-19.276A10.127,10.127,0,0,1,59.265,33.641Z" transform="translate(-49.47 -8.86)" fill="#dddaec" fill-rule="evenodd"/>
      </g>
      <path id="Trazado_1001088" data-name="Trazado 1001088" d="M48.8,221.121a1.045,1.045,0,1,1,.024,2.09c-.012,0-4.917.059-5.6-.056a1.009,1.009,0,0,1-.706-1.558,6.464,6.464,0,0,1,.662-.956c.547-.714,1.547-2.022,3.172-4.346a8.416,8.416,0,0,0,.7-1.122,2.481,2.481,0,0,0,.274-1.075,1.414,1.414,0,0,0-.436-1.011,1.7,1.7,0,0,0-1.1-.484,1.621,1.621,0,0,0-1.681,1.3,1.046,1.046,0,1,1-2.054-.4,3.722,3.722,0,0,1,3.843-2.994A3.817,3.817,0,0,1,48.36,211.6a3.51,3.51,0,0,1,1.067,2.5,4.616,4.616,0,0,1-.488,1.987,10.227,10.227,0,0,1-.868,1.4c-1.221,1.745-2.07,2.9-2.649,3.672,1.451-.011,3.375-.039,3.382-.039Z" transform="translate(-36.158 -173.438)" fill="#365e7d"/>
      <path id="Trazado_1001089" data-name="Trazado 1001089" d="M55.586,36.187a1.049,1.049,0,0,1,0-2.1h2.233a1.046,1.046,0,0,1,1.047,1.047V45.569a1.049,1.049,0,1,1-2.1,0V36.187Z" transform="translate(-46.909 -21.7)" fill="#365e7d"/>
      <path id="Trazado_1001090" data-name="Trazado 1001090" d="M45.556,390.89a1.048,1.048,0,0,1-2.058-.4,3.717,3.717,0,1,1,6.234,3.387,3.714,3.714,0,0,1-5.02,5.472,3.74,3.74,0,0,1-1.285-2.8,1.049,1.049,0,1,1,2.1,0,1.6,1.6,0,0,0,.555,1.221,1.62,1.62,0,1,0,1.067-2.843,1.049,1.049,0,1,1,0-2.1,1.623,1.623,0,1,0-1.59-1.935Z" transform="translate(-37.351 -325.66)" fill="#365e7d"/>
    </g>
  </g>
</svg>
