<svg xmlns="http://www.w3.org/2000/svg" xmlns:xlink="http://www.w3.org/1999/xlink" width="424.71" height="345.133" viewBox="0 0 424.71 345.133">
  <defs>
    <clipPath id="clip-path">
      <rect id="Rectángulo_456241" data-name="Rectángulo 456241" width="424.71" height="345.133" fill="none"/>
    </clipPath>
    <clipPath id="clip-path-2">
      <path id="Trazado_1000277" data-name="Trazado 1000277" d="M58.564,387.753l27.988,2.186a2.118,2.118,0,0,0,1.242-3.884L71.081,375.04a6.451,6.451,0,0,1-9.686-1.027l-.992-1.377s-3.955,14.869-1.84,15.117" transform="translate(-57.942 -372.636)" fill="none"/>
    </clipPath>
    <linearGradient id="linear-gradient" x1="-2.825" y1="0.969" x2="-2.781" y2="0.969" gradientUnits="objectBoundingBox">
      <stop offset="0" stop-color="#ffd14f"/>
      <stop offset="0.242" stop-color="#ffd14f"/>
      <stop offset="0.734" stop-color="#ffd14f"/>
      <stop offset="1" stop-color="#ffd14f"/>
    </linearGradient>
    <clipPath id="clip-path-4">
      <path id="Trazado_1000282" data-name="Trazado 1000282" d="M93.5,394.31l28.064.293a2.123,2.123,0,0,0,1-3.961L105.2,380.779a6.445,6.445,0,0,1-9.729-.371L94.4,379.1s-3.025,15.106-.9,15.209" transform="translate(-92.741 -379.101)" fill="none"/>
    </clipPath>
    <linearGradient id="linear-gradient-2" x1="-2.267" y1="1.281" x2="-2.242" y2="1.281" xlink:href="#linear-gradient"/>
  </defs>
  <g id="Grupo_1179608" data-name="Grupo 1179608" transform="translate(-1018 -3769.604)">
    <g id="Grupo_1179325" data-name="Grupo 1179325" transform="translate(1018 3769.604)">
      <g id="Grupo_1179314" data-name="Grupo 1179314">
        <g id="Grupo_1179313" data-name="Grupo 1179313" clip-path="url(#clip-path)">
          <path id="Trazado_1000249" data-name="Trazado 1000249" d="M126.78,354.806a1.5,1.5,0,0,0,1.459-1.232l25.9-130.644a1.541,1.541,0,0,0-1.161-1.82,1.494,1.494,0,0,0-1.761,1.2l-25.9,130.643a1.541,1.541,0,0,0,1.161,1.82,1.384,1.384,0,0,0,.3.032" transform="translate(-22.258 -31.417)" fill="#68a69d"/>
          <path id="Trazado_1000250" data-name="Trazado 1000250" d="M156.81,237.386h37.379a1.542,1.542,0,0,0,0-3.083H156.81a1.542,1.542,0,0,0,0,3.083" transform="translate(-27.593 -33.296)" fill="#95cacc"/>
          <path id="Trazado_1000251" data-name="Trazado 1000251" d="M152.373,256.973h37.379a1.542,1.542,0,0,0,0-3.083H152.373a1.542,1.542,0,0,0,0,3.083" transform="translate(-26.805 -36.079)" fill="#95cacc"/>
          <path id="Trazado_1000252" data-name="Trazado 1000252" d="M148.564,276.561h37.38a1.542,1.542,0,0,0,0-3.083h-37.38a1.542,1.542,0,0,0,0,3.083" transform="translate(-26.128 -38.863)" fill="#95cacc"/>
          <path id="Trazado_1000253" data-name="Trazado 1000253" d="M144.446,296.149h37.38a1.542,1.542,0,0,0,0-3.083h-37.38a1.542,1.542,0,0,0,0,3.083" transform="translate(-25.396 -41.646)" fill="#95cacc"/>
          <path id="Trazado_1000254" data-name="Trazado 1000254" d="M140.564,315.737h37.379a1.542,1.542,0,0,0,0-3.083H140.564a1.543,1.543,0,0,0,0,3.083" transform="translate(-24.707 -44.43)" fill="#95cacc"/>
          <path id="Trazado_1000255" data-name="Trazado 1000255" d="M136.709,335.325h37.379a1.542,1.542,0,0,0,0-3.083H136.709a1.542,1.542,0,0,0,0,3.083" transform="translate(-24.022 -47.214)" fill="#95cacc"/>
          <path id="Trazado_1000256" data-name="Trazado 1000256" d="M132.781,354.912H170.16a1.542,1.542,0,0,0,0-3.083H132.781a1.542,1.542,0,0,0,0,3.083" transform="translate(-23.324 -49.997)" fill="#95cacc"/>
          <path id="Trazado_1000257" data-name="Trazado 1000257" d="M175.434,354.806a1.5,1.5,0,0,0,1.46-1.232L202.8,222.93a1.541,1.541,0,0,0-1.161-1.82,1.493,1.493,0,0,0-1.76,1.2l-25.9,130.643a1.541,1.541,0,0,0,1.161,1.82,1.394,1.394,0,0,0,.3.032" transform="translate(-30.901 -31.417)" fill="#68a69d"/>
          <path id="Trazado_1000258" data-name="Trazado 1000258" d="M256.909,137.467c-.1.11-.312.068-.483-.094s-.229-.383-.133-.492.313-.069.483.094.229.383.133.493" transform="translate(-45.524 -19.443)" fill="#131313"/>
          <path id="Trazado_1000259" data-name="Trazado 1000259" d="M262.049,97.433l-4.12-2.275a2.022,2.022,0,0,1-.827-.7c-.627-.916-1.818-2.859-.773-3.052,1.373-.252,7.307,2.774,7.307,2.774" transform="translate(-45.465 -12.988)" fill="#ffbe8a"/>
          <path id="Trazado_1000260" data-name="Trazado 1000260" d="M261.966,101.072l-4.12-2.275a2.021,2.021,0,0,1-.827-.7c-.627-.916-1.818-2.859-.773-3.052,1.373-.252,6.49,2.192,6.49,2.192" transform="translate(-45.45 -13.504)" fill="#ffbe8a"/>
          <path id="Trazado_1000261" data-name="Trazado 1000261" d="M261.883,104.711l-4.12-2.275a2.022,2.022,0,0,1-.827-.7c-.627-.915-1.818-2.859-.773-3.052,1.373-.251,6.49,2.192,6.49,2.192" transform="translate(-45.435 -14.021)" fill="#ffbe8a"/>
          <path id="Trazado_1000262" data-name="Trazado 1000262" d="M260.172,102.554s-2.719-2.273-4.092-2.021c-1.045.191.146,2.135.773,3.051a2.024,2.024,0,0,0,.828.7l2.3,1.273a2.386,2.386,0,0,0,3.168-.794,14.6,14.6,0,0,0,2.553-8.2,53.8,53.8,0,0,0-.451-6.878l-1.632,3.19c-1.166,2.49-3.451,9.686-3.451,9.686" transform="translate(-45.42 -12.744)" fill="#ffbe8a"/>
          <path id="Trazado_1000263" data-name="Trazado 1000263" d="M257.638,95.008a.127.127,0,0,1,.081.022l3.034,2.139a.136.136,0,0,1,.034.185.122.122,0,0,1-.177.036l-3.035-2.138a.138.138,0,0,1-.035-.185.127.127,0,0,1,.1-.059" transform="translate(-45.749 -13.501)" fill="#0b3332"/>
          <path id="Trazado_1000264" data-name="Trazado 1000264" d="M257.319,98.764a.133.133,0,0,1,.081.022l3.034,2.139a.137.137,0,0,1,.035.185.123.123,0,0,1-.178.036l-3.035-2.138a.138.138,0,0,1-.035-.186.128.128,0,0,1,.1-.058" transform="translate(-45.693 -14.035)" fill="#0b3332"/>
          <path id="Trazado_1000265" data-name="Trazado 1000265" d="M257.244,102.3a.128.128,0,0,1,.081.02l3.105,2.025a.136.136,0,0,1,.041.184.124.124,0,0,1-.177.043l-3.105-2.025a.136.136,0,0,1-.041-.184.126.126,0,0,1,.1-.063" transform="translate(-45.68 -14.538)" fill="#0b3332"/>
          <path id="Trazado_1000266" data-name="Trazado 1000266" d="M485.637,160.11a14.641,14.641,0,0,0,13.533-14.872c0-8.236-6.4-14.913-14.295-14.913a13.743,13.743,0,0,0-4.137.64c-2.424-10.411-11.4-18.152-22.122-18.152-10.635,0-19.541,7.61-22.056,17.886a13.756,13.756,0,0,0-3.145-.374c-7.9,0-14.295,6.677-14.295,14.913a14.66,14.66,0,0,0,13.163,14.848Z" transform="translate(-74.459 -16.031)" fill="#99b8d0"/>
          <path id="Trazado_1000267" data-name="Trazado 1000267" d="M474.872,136.044l-8.877-9.261a.374.374,0,0,0-.545,0l-8.878,9.261a1.559,1.559,0,0,0,.238,2.345,1.433,1.433,0,0,0,1.845-.232l5.616-5.859V150.66a1.532,1.532,0,0,0,1.148,1.526,1.472,1.472,0,0,0,1.757-1.482V132.3l5.645,5.888a1.41,1.41,0,0,0,2.053,0,1.562,1.562,0,0,0,0-2.142" transform="translate(-81.037 -18)" fill="#fff"/>
          <path id="Trazado_1000268" data-name="Trazado 1000268" d="M82.59,90.395l-3.737.824a30.708,30.708,0,0,0-4.463-6.868,29.741,29.741,0,0,0-5.7-5.122l1.218-3.894a1.314,1.314,0,0,0-.8-1.64L57.187,69.635a1.237,1.237,0,0,0-1.573.833l-1.187,3.794A28.276,28.276,0,0,0,39.4,77.447L36.77,74.4a1.211,1.211,0,0,0-1.761-.1l-9.33,8.742a1.34,1.34,0,0,0-.095,1.838l2.547,2.959a31.455,31.455,0,0,0-4.859,15.181l-3.849.848a1.3,1.3,0,0,0-.963,1.542l2.592,12.8a1.249,1.249,0,0,0,1.478,1l3.738-.824a30.728,30.728,0,0,0,4.463,6.868,29.74,29.74,0,0,0,5.7,5.122l-1.218,3.894a1.314,1.314,0,0,0,.8,1.641l11.922,4.059a1.238,1.238,0,0,0,1.573-.834l1.187-3.793a28.292,28.292,0,0,0,15.03-3.185l2.627,3.051a1.211,1.211,0,0,0,1.761.1l9.33-8.742a1.341,1.341,0,0,0,.095-1.838l-2.548-2.959a31.447,31.447,0,0,0,4.86-15.181l3.849-.848a1.3,1.3,0,0,0,.963-1.542L84.068,91.4a1.25,1.25,0,0,0-1.479-1M65.014,119.27a18.1,18.1,0,0,1-26.32-1.474,20.037,20.037,0,0,1,1.413-27.458,18.1,18.1,0,0,1,26.32,1.474,20.037,20.037,0,0,1-1.413,27.458" transform="translate(-3.275 -9.886)" fill="#99b8d0"/>
          <path id="Trazado_1000269" data-name="Trazado 1000269" d="M269.722,340.34V300.574H235.806V340.34c0,3.511-3.2,6.358-7.155,6.358s-7.155,2.847-7.155,6.359v13.259h64.7V353.057c0-3.511-3.2-6.359-7.155-6.359h-2.166c-3.951,0-7.155-2.846-7.155-6.358" transform="translate(-39.35 -42.713)" fill="#99b8d0"/>
          <rect id="Rectángulo_456235" data-name="Rectángulo 456235" width="33.916" height="11.559" transform="translate(196.457 257.86)" fill="#0a4f29"/>
          <path id="Trazado_1000270" data-name="Trazado 1000270" d="M362.194,268.012H87.848a4.655,4.655,0,0,1-4.553-4.749V76.185a4.654,4.654,0,0,1,4.553-4.749H362.194a4.654,4.654,0,0,1,4.552,4.749V263.263a4.654,4.654,0,0,1-4.552,4.749" transform="translate(-14.798 -10.151)" fill="#99b8d0"/>
          <rect id="Rectángulo_456236" data-name="Rectángulo 456236" width="254.462" height="154.573" transform="translate(83.132 76.395)" fill="#fff"/>
          <rect id="Rectángulo_456237" data-name="Rectángulo 456237" width="254.801" height="14.651" transform="translate(82.794 76.405)" fill="#002e52"/>
          <path id="Trazado_1000271" data-name="Trazado 1000271" d="M386.092,97.226a2.17,2.17,0,1,1-2.168-2.261,2.216,2.216,0,0,1,2.168,2.261" transform="translate(-67.821 -13.495)" fill="#adadad"/>
          <path id="Trazado_1000272" data-name="Trazado 1000272" d="M394.988,97.226a2.17,2.17,0,1,1-2.168-2.261,2.216,2.216,0,0,1,2.168,2.261" transform="translate(-69.401 -13.495)" fill="#adadad"/>
          <path id="Trazado_1000273" data-name="Trazado 1000273" d="M403.884,97.226a2.17,2.17,0,1,1-2.168-2.261,2.216,2.216,0,0,1,2.168,2.261" transform="translate(-70.982 -13.495)" fill="#adadad"/>
          <rect id="Rectángulo_456238" data-name="Rectángulo 456238" width="62.865" height="59.399" transform="translate(105.991 159.573)" fill="none" stroke="#67dbcb" stroke-miterlimit="10" stroke-width="1" stroke-dasharray="3 3"/>
          <rect id="Rectángulo_456239" data-name="Rectángulo 456239" width="62.865" height="59.399" transform="translate(188.873 159.573)" fill="#9db8a9"/>
          <line id="Línea_3225" data-name="Línea 3225" x2="19.087" transform="translate(198.761 169.599)" fill="none" stroke="#fff" stroke-linecap="round" stroke-miterlimit="10" stroke-width="3"/>
          <line id="Línea_3226" data-name="Línea 3226" x2="35.15" transform="translate(198.761 176.316)" fill="none" stroke="#fff" stroke-linecap="round" stroke-miterlimit="10" stroke-width="1"/>
          <line id="Línea_3227" data-name="Línea 3227" x2="35.15" transform="translate(198.761 183.033)" fill="none" stroke="#fff" stroke-linecap="round" stroke-miterlimit="10" stroke-width="1"/>
          <line id="Línea_3228" data-name="Línea 3228" x2="41.764" transform="translate(198.761 189.751)" fill="none" stroke="#fff" stroke-linecap="round" stroke-miterlimit="10" stroke-width="1"/>
          <line id="Línea_3229" data-name="Línea 3229" x2="38.174" transform="translate(198.761 196.468)" fill="none" stroke="#fff" stroke-linecap="round" stroke-miterlimit="10" stroke-width="1"/>
          <line id="Línea_3230" data-name="Línea 3230" x2="35.15" transform="translate(198.761 203.185)" fill="none" stroke="#fff" stroke-linecap="round" stroke-miterlimit="10" stroke-width="1"/>
          <line id="Línea_3231" data-name="Línea 3231" x2="35.15" transform="translate(198.761 209.902)" fill="none" stroke="#fff" stroke-linecap="round" stroke-miterlimit="10" stroke-width="1"/>
          <rect id="Rectángulo_456240" data-name="Rectángulo 456240" width="62.865" height="59.399" transform="translate(260.941 159.573)" fill="#5c2d91"/>
          <path id="Trazado_1000274" data-name="Trazado 1000274" d="M322.214,242.969H357.5l-17.643-31.311Z" transform="translate(-57.243 -30.078)" fill="#fff"/>
          <path id="Trazado_1000275" data-name="Trazado 1000275" d="M345.647,244.53h35.287L363.29,222.643Z" transform="translate(-61.406 -31.639)" fill="#fff"/>
          <path id="Trazado_1000276" data-name="Trazado 1000276" d="M375.186,207.427a5.036,5.036,0,1,1-5.031-5.249,5.143,5.143,0,0,1,5.031,5.249" transform="translate(-64.866 -28.731)" fill="#fff"/>
          <line id="Línea_3232" data-name="Línea 3232" x1="8.061" y2="5.569" transform="translate(171.335 208.273)" fill="none" stroke="#3e0091" stroke-linecap="round" stroke-miterlimit="10" stroke-width="0.5"/>
        </g>
      </g>
      <g id="Grupo_1179316" data-name="Grupo 1179316" transform="translate(47.648 319.682)">
        <g id="Grupo_1179315" data-name="Grupo 1179315" clip-path="url(#clip-path-2)">
          <path id="Trazado_1000402" data-name="Trazado 1000402" d="M0,0,19.676-.053l-.1,34.15L-.1,34.15Z" transform="translate(-2.574 17.406) rotate(-86.29)" fill="url(#linear-gradient)"/>
        </g>
      </g>
      <g id="Grupo_1179318" data-name="Grupo 1179318">
        <g id="Grupo_1179317" data-name="Grupo 1179317" clip-path="url(#clip-path)">
          <path id="Trazado_1000278" data-name="Trazado 1000278" d="M90.1,391.065l-.163,2.338a.937.937,0,0,1-.988.891l-30.612-2.32a.951.951,0,0,1-.854-1.03l.162-2.338a.937.937,0,0,1,.988-.891l30.611,2.321a.95.95,0,0,1,.854,1.03" transform="translate(-10.211 -55.096)" fill="#0b3327"/>
          <path id="Trazado_1000279" data-name="Trazado 1000279" d="M74.469,381.839a.843.843,0,0,1-.492-.2.934.934,0,0,1-.127-1.278l2.059-2.65a.845.845,0,0,1,1.225-.133.937.937,0,0,1,.129,1.278L75.2,381.5a.853.853,0,0,1-.734.335" transform="translate(-13.085 -53.627)" fill="#0b3327"/>
          <path id="Trazado_1000280" data-name="Trazado 1000280" d="M77.824,384.12a.849.849,0,0,1-.492-.2.935.935,0,0,1-.127-1.277l2.059-2.651a.846.846,0,0,1,1.226-.133.936.936,0,0,1,.127,1.278l-2.059,2.65a.855.855,0,0,1-.734.335" transform="translate(-13.681 -53.951)" fill="#0b3327"/>
          <path id="Trazado_1000281" data-name="Trazado 1000281" d="M81.443,386.469a.848.848,0,0,1-.492-.2.936.936,0,0,1-.128-1.278l2.061-2.651a.845.845,0,0,1,1.225-.133.935.935,0,0,1,.128,1.278l-2.06,2.651a.856.856,0,0,1-.734.335" transform="translate(-14.324 -54.285)" fill="#0b3327"/>
        </g>
      </g>
      <g id="Grupo_1179320" data-name="Grupo 1179320" transform="translate(76.265 325.228)">
        <g id="Grupo_1179319" data-name="Grupo 1179319" clip-path="url(#clip-path-4)">
          <rect id="Rectángulo_456244" data-name="Rectángulo 456244" width="33.043" height="15.535" transform="translate(-1.368)" fill="url(#linear-gradient-2)"/>
        </g>
      </g>
      <g id="Grupo_1179322" data-name="Grupo 1179322">
        <g id="Grupo_1179321" data-name="Grupo 1179321" clip-path="url(#clip-path)">
          <path id="Trazado_1000283" data-name="Trazado 1000283" d="M125.081,395.5l-.017,2.344a.944.944,0,0,1-.931.956l-30.691-.249a.945.945,0,0,1-.917-.97l.018-2.344a.942.942,0,0,1,.93-.956l30.692.248a.945.945,0,0,1,.916.971" transform="translate(-16.438 -56.03)" fill="#0b3327"/>
          <path id="Trazado_1000284" data-name="Trazado 1000284" d="M108.89,387.374a.833.833,0,0,1-.5-.168.932.932,0,0,1-.207-1.266l1.891-2.784a.847.847,0,0,1,1.215-.216.933.933,0,0,1,.207,1.267L109.6,386.99a.86.86,0,0,1-.712.384" transform="translate(-19.19 -54.394)" fill="#0b3327"/>
          <path id="Trazado_1000285" data-name="Trazado 1000285" d="M112.386,389.433a.833.833,0,0,1-.5-.168.933.933,0,0,1-.208-1.266l1.891-2.784a.847.847,0,0,1,1.215-.215.932.932,0,0,1,.207,1.266l-1.891,2.784a.86.86,0,0,1-.712.384" transform="translate(-19.811 -54.687)" fill="#0b3327"/>
          <path id="Trazado_1000286" data-name="Trazado 1000286" d="M116.149,391.543a.835.835,0,0,1-.5-.168.933.933,0,0,1-.208-1.266l1.892-2.785a.847.847,0,0,1,1.215-.216.935.935,0,0,1,.207,1.267l-1.891,2.785a.86.86,0,0,1-.712.383" transform="translate(-20.48 -54.986)" fill="#0b3327"/>
          <path id="Trazado_1000287" data-name="Trazado 1000287" d="M99.868,166.155l20.828-22.89,7.1,4.785-19,26.959Z" transform="translate(-17.742 -20.359)" fill="#d68351"/>
          <path id="Trazado_1000288" data-name="Trazado 1000288" d="M104.306,178.8l-8.933-8.854L74.564,189.709l11.695,9.853Z" transform="translate(-13.247 -24.15)" fill="#ffd14f"/>
          <path id="Trazado_1000289" data-name="Trazado 1000289" d="M129.771,149.675l7.935-6.765a2.006,2.006,0,0,0,.493-.771l3.006-8.46a2.053,2.053,0,0,0-.643-2.294,1.857,1.857,0,0,0-2.38.055L132.55,136.3l-8.257,6.443Z" transform="translate(-22.081 -18.613)" fill="#d68351"/>
          <path id="Trazado_1000290" data-name="Trazado 1000290" d="M123.906,143.948l3.739-7.842a.523.523,0,0,1,.949-.017c.378.78.686,2.261-.012,4.881-1.2,4.5-4.677,2.979-4.677,2.979" transform="translate(-22.013 -19.297)" fill="#d68351"/>
          <path id="Trazado_1000291" data-name="Trazado 1000291" d="M133.372,145.26a.116.116,0,0,1-.037.044.113.113,0,0,1-.162-.03c-1.478-2.2-3.143-1.343-3.214-1.306a.113.113,0,0,1-.156-.052.123.123,0,0,1,.049-.164c.019-.01,1.914-.994,3.511,1.383a.127.127,0,0,1,.008.125" transform="translate(-23.058 -20.398)" fill="#0b3327"/>
          <path id="Trazado_1000292" data-name="Trazado 1000292" d="M131.934,143.3a2.389,2.389,0,0,1-.132.234.113.113,0,0,1-.161.033.114.114,0,0,1-.033-.168,2.179,2.179,0,0,0,.313-1.544.121.121,0,0,1,.086-.147.116.116,0,0,1,.14.089,2.432,2.432,0,0,1-.213,1.5" transform="translate(-23.377 -20.137)" fill="#0b3327"/>
          <path id="Trazado_1000293" data-name="Trazado 1000293" d="M143.227,134.4a.117.117,0,0,1,.084.034.13.13,0,0,1,.006.178l-4.363,4.874a.117.117,0,0,1-.17.006.129.129,0,0,1-.006-.178l4.363-4.874a.119.119,0,0,1,.086-.04" transform="translate(-24.649 -19.1)" fill="#0b3327"/>
          <path id="Trazado_1000294" data-name="Trazado 1000294" d="M139.167,136.361a.108.108,0,0,1-.051-.03.126.126,0,0,1,0-.174l3.716-4.084a.115.115,0,0,1,.167,0,.126.126,0,0,1,0,.174l-3.716,4.084a.114.114,0,0,1-.115.034" transform="translate(-24.708 -18.763)" fill="#0b3327"/>
          <path id="Trazado_1000295" data-name="Trazado 1000295" d="M138.525,142.68a.123.123,0,0,1-.05-.028.128.128,0,0,1-.007-.174l3.031-3.457a.115.115,0,0,1,.167-.009.126.126,0,0,1,.007.174l-3.03,3.458a.116.116,0,0,1-.118.036" transform="translate(-24.594 -19.75)" fill="#0b3327"/>
          <path id="Trazado_1000296" data-name="Trazado 1000296" d="M82.889,245.887,63.235,262.825s-2.359,14.924-.169,22.1c4.006,13.118,4.668,39.164-3.815,72.984l14.083,4.929c3.064-9.369,13.093-35.262,15.323-53.221,2.437-19.623-5.768-63.728-5.768-63.728" transform="translate(-10.526 -34.942)" fill="#371b57"/>
          <path id="Trazado_1000297" data-name="Trazado 1000297" d="M106.726,254.289,84.7,229.993s-19.317,36.665-4.606,50c13.516,12.252,9.765,51.986,9.589,82.134h14.616c2.169-9.638,7.691-48.1,7.33-54.873-1.28-24.036-4.9-52.963-4.9-52.963" transform="translate(-13.247 -32.683)" fill="#371b57"/>
          <path id="Trazado_1000298" data-name="Trazado 1000298" d="M78.337,167.724,75.71,184.752c-.194,1.711,4.551,6.679,8.713,8.4a3.852,3.852,0,0,0,5.224-3.566l.886-18.365Z" transform="translate(-13.449 -23.835)" fill="#d68351"/>
          <path id="Trazado_1000299" data-name="Trazado 1000299" d="M91.666,176.3l.229-5.534-8.387-6.274-.072,2.225s.63,3.845,8.23,9.584" transform="translate(-14.823 -23.375)" fill="#b56f45"/>
          <path id="Trazado_1000300" data-name="Trazado 1000300" d="M78.753,169.931l14.791.886a5.963,5.963,0,0,0,5.667-1.739,6.476,6.476,0,0,0,1.637-4.489L99.875,150.3l-21.846,3.36Z" transform="translate(-13.862 -21.358)" fill="#d68351"/>
          <path id="Trazado_1000301" data-name="Trazado 1000301" d="M101.926,145.158c-1.627,9.966-9.157,2.777-9.825,7.065-2.247,14.44-13.924,12.259-13.924,12.259s-6.946-21.6,2.467-21.962,23.688-12.095,21.281,2.638" transform="translate(-13.45 -19.575)" fill="#0b3327"/>
          <path id="Trazado_1000302" data-name="Trazado 1000302" d="M87.325,161.6a3.949,3.949,0,0,0,4.91,2.84,4.169,4.169,0,0,0,2.722-5.122,3.949,3.949,0,0,0-4.91-2.84,4.169,4.169,0,0,0-2.722,5.122" transform="translate(-15.486 -22.213)" fill="#d68351"/>
          <path id="Trazado_1000303" data-name="Trazado 1000303" d="M104,152.726l3.1,5.434c.461.809-.187,1.672-1.21,1.608l-2.1-.13Z" transform="translate(-18.438 -21.703)" fill="#d68351"/>
          <path id="Trazado_1000304" data-name="Trazado 1000304" d="M102.558,157.184a.6.6,0,0,0,.438.715.576.576,0,0,0,.685-.457.6.6,0,0,0-.438-.715.576.576,0,0,0-.685.457" transform="translate(-18.218 -22.27)" fill="#0b3327"/>
          <path id="Trazado_1000305" data-name="Trazado 1000305" d="M100.266,155.744a.378.378,0,0,0,.237-.021l2.257-.965a.422.422,0,0,0,.217-.541.393.393,0,0,0-.521-.227l-2.256.965a.422.422,0,0,0-.217.541.4.4,0,0,0,.283.248" transform="translate(-17.757 -21.878)" fill="#0b3327"/>
          <path id="Trazado_1000306" data-name="Trazado 1000306" d="M100.914,164.654a4.94,4.94,0,0,1-2.054-1.47.142.142,0,0,1,.008-.194.128.128,0,0,1,.186.009c2.274,2.577,4.423,1.271,4.514,1.215a.13.13,0,0,1,.181.046.14.14,0,0,1-.044.189,3.431,3.431,0,0,1-2.79.205" transform="translate(-17.557 -23.157)" fill="#0b3327"/>
          <path id="Trazado_1000307" data-name="Trazado 1000307" d="M87.7,180.61l-12.859-1.044c-13.568,0-13.572,9-14.741,20.3l1.369,35.289-.188,19.474,2.063.49c12.772,3.031,21.966,2.638,30.895-.089,7.841-2.394,11.626-5.018,11.626-5.018s-3.139-25.235-1.913-49.08c.064-1.247-2.472-9.967-6.29-16.075-.567-.908-2.944-3.354-9.962-4.243" transform="translate(-10.677 -25.517)" fill="#ffd14f"/>
          <path id="Trazado_1000308" data-name="Trazado 1000308" d="M91.925,160.234a.09.09,0,0,0-.054-.027c-.028-.01-.051-.031-.079-.039a2.186,2.186,0,0,0-1.812.581.108.108,0,0,0-.009.148.1.1,0,0,0,.142.01,2.233,2.233,0,0,1,1.419-.566,1.282,1.282,0,0,0-.671,1.361.1.1,0,0,0,.109.08l.013,0a.107.107,0,0,0,.074-.128,1.068,1.068,0,0,1,.787-1.225,1.981,1.981,0,0,1,.961,1.379.1.1,0,0,0,.109.074l.018,0a.108.108,0,0,0,.067-.132,2.171,2.171,0,0,0-1.074-1.509" transform="translate(-15.979 -22.753)" fill="#0b3327"/>
          <path id="Trazado_1000309" data-name="Trazado 1000309" d="M90.463,321.5s-.841-11.073-1.917-15.108-3.671-7.331-8.636-13.068-3.632-13.016-3.632-13.016" transform="translate(-13.522 -39.833)" fill="none" stroke="#ffd14f" stroke-linecap="round" stroke-miterlimit="10" stroke-width="0.5"/>
          <path id="Trazado_1000403" data-name="Trazado 1000403" d="M0,0,59.323-.425l-.47,62.949L-.47,62.949Z" transform="translate(101.48 155.91) rotate(-79.887)" fill="#ffd14f"/>
          <line id="Línea_3233" data-name="Línea 3233" x2="15.592" y2="2.901" transform="translate(119.525 109.116)" fill="none" stroke="#fff" stroke-linecap="round" stroke-miterlimit="10" stroke-width="3"/>
          <line id="Línea_3234" data-name="Línea 3234" x2="34.604" y2="6.438" transform="translate(118.395 115.729)" fill="none" stroke="#fff" stroke-linecap="round" stroke-miterlimit="10" stroke-width="1"/>
          <line id="Línea_3235" data-name="Línea 3235" x2="34.604" y2="6.438" transform="translate(117.264 122.342)" fill="none" stroke="#fff" stroke-linecap="round" stroke-miterlimit="10" stroke-width="1"/>
          <line id="Línea_3236" data-name="Línea 3236" x2="41.116" y2="7.65" transform="translate(116.134 128.955)" fill="none" stroke="#fff" stroke-linecap="round" stroke-miterlimit="10" stroke-width="1"/>
          <line id="Línea_3237" data-name="Línea 3237" x2="37.581" y2="6.993" transform="translate(115.003 135.568)" fill="none" stroke="#fff" stroke-linecap="round" stroke-miterlimit="10" stroke-width="1"/>
          <line id="Línea_3238" data-name="Línea 3238" x2="34.604" y2="6.438" transform="translate(113.873 142.181)" fill="none" stroke="#fff" stroke-linecap="round" stroke-miterlimit="10" stroke-width="1"/>
          <line id="Línea_3239" data-name="Línea 3239" x2="34.604" y2="6.438" transform="translate(112.742 148.794)" fill="none" stroke="#fff" stroke-linecap="round" stroke-miterlimit="10" stroke-width="1"/>
          <path id="Trazado_1000310" data-name="Trazado 1000310" d="M121.912,180.153l17.965-22.408,7,4.943-15.025,27.779Z" transform="translate(-21.658 -22.416)" fill="#d68351"/>
          <path id="Trazado_1000311" data-name="Trazado 1000311" d="M116.488,200.093l13.593-5.915-9.94-10.313-8.2,1.879" transform="translate(-19.886 -26.128)" fill="#d68351"/>
          <path id="Trazado_1000312" data-name="Trazado 1000312" d="M105.742,186.055,77.07,192.622,93.979,207.5l16.315-7.1" transform="translate(-13.692 -26.439)" fill="#ffd14f"/>
          <path id="Trazado_1000313" data-name="Trazado 1000313" d="M153.862,156.565l2.724-7.417a1.339,1.339,0,0,1,.445-.551c.579-.412,2.377-1.157,2.481-.448.137.933-3.276,8.991-3.276,8.991" transform="translate(-27.334 -21.011)" fill="#d68351"/>
          <path id="Trazado_1000314" data-name="Trazado 1000314" d="M142.8,155.782l2.1-1.307a3.688,3.688,0,0,0,.97-.88l3.454-5.094a2.346,2.346,0,0,1,2.089-1.089.875.875,0,0,1,.839.515c.349.975-3.034,7.445-3.034,7.445l3.81-8.539a1.093,1.093,0,0,1,.354-.438c.605-.44,2.153-1.476,2.279-.62.157,1.064-3.737,10.254-3.737,10.254" transform="translate(-25.37 -20.669)" fill="#d68351"/>
          <path id="Trazado_1000315" data-name="Trazado 1000315" d="M157.318,150.772a3.687,3.687,0,0,0-1.3,1.113l-2.241,4.785-5.225-.97-6.2.834-2.069,3.9s2.344,5.983,10.791,2.986a3.267,3.267,0,0,0,1.484-1.087l3.3-4.265a1.444,1.444,0,0,0,.127-.3c.318-1.035,2.406-6.3,2.344-6.722-.035-.243-.673-.4-1.012-.277" transform="translate(-24.923 -21.42)" fill="#d68351"/>
          <path id="Trazado_1000316" data-name="Trazado 1000316" d="M144.894,154.658l-1.794,1.217a.866.866,0,0,1-1.187-.174,14.5,14.5,0,0,1-.775-1.533l-1.014-2.585a.468.468,0,0,0-.782-.162,5.16,5.16,0,0,0-.734,4.064l1.246,6Z" transform="translate(-24.599 -21.497)" fill="#d68351"/>
          <path id="Trazado_1000317" data-name="Trazado 1000317" d="M150.66,156.122a.123.123,0,0,1-.1,0,.136.136,0,0,1-.064-.178l2.9-6.677a.126.126,0,0,1,.169-.067.136.136,0,0,1,.064.178l-2.9,6.677a.128.128,0,0,1-.074.071" transform="translate(-26.735 -21.2)" fill="#0b3327"/>
          <path id="Trazado_1000318" data-name="Trazado 1000318" d="M153.623,156.615a.125.125,0,0,1-.1,0,.137.137,0,0,1-.064-.178l3.312-7.617a.127.127,0,0,1,.17-.067.136.136,0,0,1,.064.178l-3.312,7.617a.13.13,0,0,1-.074.071" transform="translate(-27.261 -21.136)" fill="#0b3327"/>
          <path id="Trazado_1000319" data-name="Trazado 1000319" d="M156.65,157.6a.125.125,0,0,1-.1,0,.136.136,0,0,1-.063-.178l2.479-5.7a.126.126,0,0,1,.17-.066.135.135,0,0,1,.064.177l-2.479,5.7a.13.13,0,0,1-.074.071" transform="translate(-27.799 -21.549)" fill="#0b3327"/>
          <line id="Línea_3240" data-name="Línea 3240" x1="17.093" y2="8.127" transform="translate(73.819 176.376)" fill="none" stroke="#3e0091" stroke-linecap="round" stroke-miterlimit="10" stroke-width="0.5"/>
          <line id="Línea_3241" data-name="Línea 3241" x1="20.948" y2="4.798" transform="translate(63.232 161.384)" fill="none" stroke="#3e0091" stroke-linecap="round" stroke-miterlimit="10" stroke-width="0.5"/>
          <path id="Trazado_1000320" data-name="Trazado 1000320" d="M93.485,180.783c1.215.177,5.165-.093,8.224,2.643" transform="translate(-16.608 -25.69)" fill="none" stroke="#3e0091" stroke-linecap="round" stroke-miterlimit="10" stroke-width="0.5"/>
          <rect id="Rectángulo_456246" data-name="Rectángulo 456246" width="57.336" height="71.138" transform="translate(263.158 265.063)" fill="#002e52"/>
          <rect id="Rectángulo_456247" data-name="Rectángulo 456247" width="39.042" height="13.234" transform="translate(272.304 269.473)" fill="#fff"/>
          <path id="Trazado_1000321" data-name="Trazado 1000321" d="M340.151,321.654a1.445,1.445,0,1,1-1.443-1.506,1.475,1.475,0,0,1,1.443,1.506" transform="translate(-59.917 -45.495)" fill="#ffd14f"/>
          <path id="Trazado_1000322" data-name="Trazado 1000322" d="M348.064,321.654a1.445,1.445,0,1,1-1.443-1.506,1.475,1.475,0,0,1,1.443,1.506" transform="translate(-61.322 -45.495)" fill="#ffd14f"/>
          <path id="Trazado_1000323" data-name="Trazado 1000323" d="M355.977,321.654a1.445,1.445,0,1,1-1.443-1.506,1.475,1.475,0,0,1,1.443,1.506" transform="translate(-62.728 -45.495)" fill="#ffd14f"/>
          <rect id="Rectángulo_456248" data-name="Rectángulo 456248" width="2.887" height="3.012" transform="translate(297.648 274.652)" fill="#7ddb68"/>
          <rect id="Rectángulo_456249" data-name="Rectángulo 456249" width="2.887" height="3.012" transform="translate(303.417 274.652)" fill="#7ddb68"/>
          <rect id="Rectángulo_456250" data-name="Rectángulo 456250" width="18.742" height="13.234" transform="translate(272.305 318.122)" fill="#fff"/>
          <path id="Trazado_1000324" data-name="Trazado 1000324" d="M339.7,378.712a1.445,1.445,0,1,1-1.445-1.506,1.477,1.477,0,0,1,1.445,1.506" transform="translate(-59.837 -53.603)" fill="#ffd14f"/>
          <path id="Trazado_1000325" data-name="Trazado 1000325" d="M347.615,378.712a1.445,1.445,0,1,1-1.443-1.506,1.476,1.476,0,0,1,1.443,1.506" transform="translate(-61.243 -53.603)" fill="#ffd14f"/>
          <rect id="Rectángulo_456251" data-name="Rectángulo 456251" width="18.742" height="13.234" transform="translate(272.305 294.016)" fill="#fff"/>
          <rect id="Rectángulo_456252" data-name="Rectángulo 456252" width="2.195" height="13.234" transform="translate(294.259 294.016)" fill="#004e89"/>
          <rect id="Rectángulo_456253" data-name="Rectángulo 456253" width="2.195" height="13.234" transform="translate(298.765 294.016)" fill="#004e89"/>
          <rect id="Rectángulo_456254" data-name="Rectángulo 456254" width="2.194" height="13.234" transform="translate(303.273 294.016)" fill="#004e89"/>
          <rect id="Rectángulo_456255" data-name="Rectángulo 456255" width="2.195" height="13.234" transform="translate(307.778 294.016)" fill="#004e89"/>
          <rect id="Rectángulo_456256" data-name="Rectángulo 456256" width="2.887" height="3.012" transform="translate(283.117 299.127)" fill="#7ddb68"/>
          <rect id="Rectángulo_456257" data-name="Rectángulo 456257" width="2.887" height="3.012" transform="translate(277.347 299.127)" fill="#7ddb68"/>
          <line id="Línea_3242" data-name="Línea 3242" x2="57.336" transform="translate(263.158 287.73)" fill="none" stroke="#3e0091" stroke-miterlimit="10" stroke-width="1"/>
          <line id="Línea_3243" data-name="Línea 3243" x2="57.336" transform="translate(263.158 312.448)" fill="none" stroke="#3e0091" stroke-miterlimit="10" stroke-width="1"/>
          <rect id="Rectángulo_456258" data-name="Rectángulo 456258" width="2.195" height="13.234" transform="translate(294.259 318.122)" fill="#004e89"/>
          <rect id="Rectángulo_456259" data-name="Rectángulo 456259" width="2.195" height="13.234" transform="translate(298.765 318.122)" fill="#004e89"/>
          <rect id="Rectángulo_456260" data-name="Rectángulo 456260" width="2.194" height="13.234" transform="translate(303.273 318.122)" fill="#004e89"/>
          <rect id="Rectángulo_456261" data-name="Rectángulo 456261" width="2.195" height="13.234" transform="translate(307.778 318.122)" fill="#004e89"/>
          <rect id="Rectángulo_456262" data-name="Rectángulo 456262" width="12.209" height="6.678" transform="translate(263.158 336.202)" fill="#004e89"/>
          <rect id="Rectángulo_456263" data-name="Rectángulo 456263" width="12.209" height="6.678" transform="translate(308.284 336.202)" fill="#004e89"/>
          <path id="Trazado_1000326" data-name="Trazado 1000326" d="M229.094,210.247c9.732,2.318,13.216,6.258,14.559,9.521,2.836,6.89-3.116,12.6.434,20.175,2.537,5.415,6.9,5.329,8.475,10.654,1.291,4.373-2.34,6-2.391,12.694-.044,5.75,2.266,7.06,1.956,10.428-.714,7.734-14.351,16.543-24.554,14.281-16.276-3.607-29.054-36.549-18.252-58.938,5.287-10.96,14.807-16.453,19.773-18.815" transform="translate(-36.477 -29.877)" fill="#0b3327"/>
          <path id="Trazado_1000327" data-name="Trazado 1000327" d="M268.264,395.375l15.17-1.131,1.333-4.873-3.383-5.881-8.694,4.531Z" transform="translate(-47.658 -54.496)" fill="#ffbe8a"/>
          <path id="Trazado_1000328" data-name="Trazado 1000328" d="M284.39,392.624l21.968,3.6a2.376,2.376,0,0,0,1.71-4.247l-25.238-19.8c-1.965-1.427-9.185,14.215-9.185,14.215l1.818-.4a7.5,7.5,0,0,1,8.926,6.621" transform="translate(-48.615 -52.877)" fill="#ffd14f"/>
          <path id="Trazado_1000329" data-name="Trazado 1000329" d="M310.306,396.2l1.663-2.3a.992.992,0,0,0-.18-1.35L284.051,370.7a.9.9,0,0,0-1.294.188l-1.663,2.3a.992.992,0,0,0,.181,1.349l27.737,21.857a.9.9,0,0,0,1.294-.188" transform="translate(-49.905 -52.651)" fill="#0b3327"/>
          <path id="Trazado_1000330" data-name="Trazado 1000330" d="M290.629,391.282a.946.946,0,0,0-.559-.209,1,1,0,0,0-1.016.982l-.141,3.836a.981.981,0,1,0,1.96.078l.14-3.836a1.035,1.035,0,0,0-.383-.851" transform="translate(-51.327 -55.574)" fill="#0b3327"/>
          <path id="Trazado_1000331" data-name="Trazado 1000331" d="M295.159,391.839a.946.946,0,0,0-.559-.209,1,1,0,0,0-1.016.982l-.141,3.836a.981.981,0,1,0,1.96.078l.14-3.836a1.038,1.038,0,0,0-.383-.851" transform="translate(-52.131 -55.653)" fill="#0b3327"/>
          <path id="Trazado_1000332" data-name="Trazado 1000332" d="M299.963,392.534a.946.946,0,0,0-.559-.209,1,1,0,0,0-1.016.982l-.141,3.836a.981.981,0,1,0,1.959.079l.141-3.837a1.038,1.038,0,0,0-.383-.851" transform="translate(-52.985 -55.752)" fill="#ffd14f"/>
          <path id="Trazado_1000333" data-name="Trazado 1000333" d="M277.44,396.775l15.17-1.131,1.333-4.873-3.383-5.881-8.694,4.531Z" transform="translate(-49.289 -54.695)" fill="#ffbe8a"/>
          <path id="Trazado_1000334" data-name="Trazado 1000334" d="M293.566,394.025l21.967,3.6a2.376,2.376,0,0,0,1.711-4.247l-25.238-19.8c-1.965-1.427-9.185,14.215-9.185,14.215l1.818-.4a7.5,7.5,0,0,1,8.926,6.621" transform="translate(-50.245 -53.076)" fill="#ffd14f"/>
          <path id="Trazado_1000335" data-name="Trazado 1000335" d="M319.482,397.6l1.663-2.3a.991.991,0,0,0-.181-1.349L293.227,372.1a.9.9,0,0,0-1.294.188l-1.663,2.3a.992.992,0,0,0,.181,1.349l27.737,21.857a.9.9,0,0,0,1.294-.188" transform="translate(-51.535 -52.85)" fill="#0b3327"/>
          <path id="Trazado_1000336" data-name="Trazado 1000336" d="M299.805,392.682a.946.946,0,0,0-.559-.209,1,1,0,0,0-1.016.982l-.141,3.836a.981.981,0,1,0,1.96.078l.14-3.836a1.038,1.038,0,0,0-.383-.851" transform="translate(-52.957 -55.773)" fill="#0b3327"/>
          <path id="Trazado_1000337" data-name="Trazado 1000337" d="M304.335,393.24a.946.946,0,0,0-.559-.209,1,1,0,0,0-1.016.982l-.141,3.836a.981.981,0,1,0,1.96.078l.14-3.836a1.038,1.038,0,0,0-.383-.851" transform="translate(-53.762 -55.852)" fill="#0b3327"/>
          <path id="Trazado_1000338" data-name="Trazado 1000338" d="M309.139,393.935a.946.946,0,0,0-.559-.209,1,1,0,0,0-1.016.982l-.141,3.836a.981.981,0,1,0,1.96.078l.14-3.836a1.038,1.038,0,0,0-.383-.851" transform="translate(-54.615 -55.951)" fill="#0b3327"/>
          <path id="Trazado_1000339" data-name="Trazado 1000339" d="M234.882,308.895s6.929,22.742-2.146,31.027c-5.615,5.125-6.1,21.393-6.1,21.393s22.45,3.947,33.525,6.858l-2.7,18.949c-2.339-3.574-42.761,4.782-48.612-10.063-5.484-13.917-4.71-67.033-4.71-67.033Z" transform="translate(-36.26 -43.896)" fill="#002e52"/>
          <path id="Trazado_1000340" data-name="Trazado 1000340" d="M240.556,314s10.394,21.258,2.736,30.975c-4.738,6.013-2.669,22.146-2.669,22.146s22.767.072,34.148,1.059l.3,19.154c-2.867-3.128-52.535,8.918-57.521-11.849-3.5-14.6-7.145-55.135-7.145-55.135Z" transform="translate(-37.379 -44.622)" fill="#002e52"/>
          <path id="Trazado_1000341" data-name="Trazado 1000341" d="M174.973,227.741l6.3-2.836,13.313,18.289,9.008-.62,1.761,14.549-17.016-.3Z" transform="translate(-31.085 -31.96)" fill="#ffbe8a"/>
          <path id="Trazado_1000342" data-name="Trazado 1000342" d="M221.688,242.678l15.015,6.23-5.354,5.776c-4.157,4.287-6.748,5.371-12.756,5.09l-7.052-.125-1.76-14.55Z" transform="translate(-37.269 -34.486)" fill="#3e0091"/>
          <path id="Trazado_1000343" data-name="Trazado 1000343" d="M217.827,244.731l15.342,2.333a13.889,13.889,0,0,1,4.123,1.274c7,3.5,7.632,13.274,6.611,17.956l-5.946,26.384,2.613,13.67-7.14,2.445a42.557,42.557,0,0,1-16.328,2.317c-5.471-.328-8.3-1.689-13.136-4.67l2.43-24.453c-6.648-13.06,1.752-30.593,5.9-35.407a5.725,5.725,0,0,1,2.525-1.756,5.241,5.241,0,0,1,3-.092" transform="translate(-36.228 -34.753)" fill="#5c2d91"/>
          <path id="Trazado_1000344" data-name="Trazado 1000344" d="M234.718,230.322l.551,14.507c-.124,1.567-3.93,5.387-7.95,6.139a3.578,3.578,0,0,1-4.051-4.178l1.668-11.081Z" transform="translate(-39.657 -32.73)" fill="#ffbe8a"/>
          <path id="Trazado_1000345" data-name="Trazado 1000345" d="M224.42,241.36l.544-3.619,4.883-1.654.028,1.778s.038,2.428-5.455,3.5" transform="translate(-39.869 -33.549)" fill="#e39161"/>
          <path id="Trazado_1000346" data-name="Trazado 1000346" d="M230.611,237.909l-13.228-4.7a5.744,5.744,0,0,1-3.65-4.138,5.984,5.984,0,0,1,.739-4.313l5.289-11.085,3.971-.91,11.82,7.942Z" transform="translate(-37.946 -30.235)" fill="#ffbe8a"/>
          <path id="Trazado_1000347" data-name="Trazado 1000347" d="M219.54,215.933c-.038.19,3.856-2.72,3.856-2.72s-1.526,6.349,1.384,9.6c3.556,3.967,5.571,4.2,7.76,4.193l3.155,7.767a15.36,15.36,0,0,0,5.279-18.337c-2.517-6.909-19.508-10.294-21.434-.5" transform="translate(-39.002 -29.819)" fill="#0b3327"/>
          <path id="Trazado_1000348" data-name="Trazado 1000348" d="M235.987,234.832a3.426,3.426,0,0,1-4.871-1.029,3.764,3.764,0,0,1,.987-5.081,3.426,3.426,0,0,1,4.871,1.029,3.763,3.763,0,0,1-.987,5.081" transform="translate(-40.955 -32.416)" fill="#ffbe8a"/>
          <path id="Trazado_1000349" data-name="Trazado 1000349" d="M233.822,231.142a.1.1,0,0,1,.059-.036c.03-.014.054-.039.086-.051a2.46,2.46,0,0,1,2.095.48.122.122,0,0,1,.023.167.111.111,0,0,1-.16.024,2.508,2.508,0,0,0-1.649-.5,1.44,1.44,0,0,1,.876,1.47.115.115,0,0,1-.117.1h-.014a.121.121,0,0,1-.1-.137,1.2,1.2,0,0,0-1-1.307,2.261,2.261,0,0,0-.962,1.647.116.116,0,0,1-.116.094l-.021,0a.119.119,0,0,1-.088-.142,2.482,2.482,0,0,1,1.078-1.805" transform="translate(-41.348 -32.82)" fill="#0b3332"/>
          <path id="Trazado_1000350" data-name="Trazado 1000350" d="M234.214,236.048a1.262,1.262,0,1,0,1.3-1.273,1.294,1.294,0,0,0-1.3,1.273" transform="translate(-41.609 -33.363)" fill="#fff"/>
          <path id="Trazado_1000351" data-name="Trazado 1000351" d="M220.912,221.2a.52.52,0,0,1-.664.344.553.553,0,0,1-.33-.693.52.52,0,0,1,.664-.344.553.553,0,0,1,.33.693" transform="translate(-39.065 -31.331)" fill="#0b3332"/>
          <path id="Trazado_1000352" data-name="Trazado 1000352" d="M217.956,227.5a4.4,4.4,0,0,0,2.234-.529.129.129,0,0,0,.057-.168.118.118,0,0,0-.162-.058c-2.783,1.4-4.2-.48-4.255-.56a.118.118,0,0,0-.169-.024.128.128,0,0,0-.024.176,3.239,3.239,0,0,0,2.319,1.164" transform="translate(-38.305 -32.135)" fill="#0b3332"/>
          <path id="Trazado_1000353" data-name="Trazado 1000353" d="M218.444,217.956l-2.874,2.295a1.007,1.007,0,0,0-.246,1.261l.757,1.395Z" transform="translate(-38.232 -30.973)" fill="#ffbe8a"/>
          <path id="Trazado_1000354" data-name="Trazado 1000354" d="M171.947,269.009l5.775-5.774L202.313,278.6l6.441-5.273,10.824,12.741-16.5,11.34Z" transform="translate(-30.547 -37.407)" fill="#ffbe8a"/>
          <path id="Trazado_1000355" data-name="Trazado 1000355" d="M219.647,270.143,244.9,257.8l-1.5,9.2c-1.292,6.95-3.094,9.759-9.029,13.6l-6.838,4.7-10.824-12.741Z" transform="translate(-38.499 -36.635)" fill="#5c2d91"/>
          <path id="Trazado_1000356" data-name="Trazado 1000356" d="M165.135,264.346l-4.835-5.782a1.251,1.251,0,0,0-.58-.345c-.656-.172-2.525-.226-2.393.456.173.894,5.839,7.017,5.839,7.017" transform="translate(-27.949 -36.679)" fill="#ffbe8a"/>
          <path id="Trazado_1000357" data-name="Trazado 1000357" d="M173.471,260.388l-2.317-.457a3.442,3.442,0,0,1-1.161-.462l-4.756-3.42a2.218,2.218,0,0,0-2.243-.263.88.88,0,0,0-.6.758c-.006,1.006,5.127,5.7,5.127,5.7l-6.18-6.422a1,1,0,0,0-.461-.275c-.689-.19-2.423-.591-2.265.228.2,1.019,6.66,8,6.66,8" transform="translate(-28.177 -36.277)" fill="#ffbe8a"/>
          <path id="Trazado_1000358" data-name="Trazado 1000358" d="M157.767,261.2a3.431,3.431,0,0,1,1.533.558l3.559,3.562,4.429-2.694,5.886-1.394,3.12,2.818s-.217,6.24-8.834,6.455a3.06,3.06,0,0,1-1.692-.471l-4.35-2.725a1.357,1.357,0,0,1-.21-.224c-.618-.828-4.191-4.875-4.27-5.283-.045-.233.484-.6.83-.6" transform="translate(-27.88 -37.117)" fill="#ffbe8a"/>
          <path id="Trazado_1000359" data-name="Trazado 1000359" d="M172.77,259.515l2.015.481a.855.855,0,0,0,1.022-.57,14.327,14.327,0,0,0,.213-1.659l.1-2.7a.461.461,0,0,1,.658-.418,4.846,4.846,0,0,1,1.961,3.431l.632,5.523Z" transform="translate(-30.693 -36.181)" fill="#ffbe8a"/>
          <path id="Trazado_1000360" data-name="Trazado 1000360" d="M168.393,262.779a.118.118,0,0,0,.086-.038.132.132,0,0,0,0-.183l-4.764-5.048a.121.121,0,0,0-.175,0,.133.133,0,0,0,0,.183l4.764,5.049a.117.117,0,0,0,.09.039" transform="translate(-29.047 -36.588)" fill="#0b3332"/>
          <path id="Trazado_1000361" data-name="Trazado 1000361" d="M165.777,264.235a.12.12,0,0,0,.086-.038.133.133,0,0,0,0-.183l-5.434-5.759a.12.12,0,0,0-.175,0,.133.133,0,0,0,0,.184l5.434,5.758a.121.121,0,0,0,.09.039" transform="translate(-28.463 -36.694)" fill="#0b3332"/>
          <path id="Trazado_1000362" data-name="Trazado 1000362" d="M163.549,266.091a.118.118,0,0,0,.086-.038.133.133,0,0,0,0-.183l-4.067-4.311a.12.12,0,0,0-.175,0,.132.132,0,0,0,0,.183l4.067,4.31a.118.118,0,0,0,.09.04" transform="translate(-28.31 -37.164)" fill="#0b3332"/>
          <path id="Trazado_1000363" data-name="Trazado 1000363" d="M173.757,224.5l-1.252-1.12a3.626,3.626,0,0,1-.9-1.242l-3.364-7.619a2.236,2.236,0,0,1-.095-.988l1.245-9.566a2.1,2.1,0,0,1,1.715-1.828,2.041,2.041,0,0,1,2.22,1.3l6.482,13.911a5.634,5.634,0,0,1,.421,3.437l-.169.877Z" transform="translate(-29.869 -28.722)" fill="#ffbe8a"/>
          <path id="Trazado_1000364" data-name="Trazado 1000364" d="M181.417,221.187l1.743-9.194a.576.576,0,0,0-.793-.661c-.809.4-2,1.448-3.046,4.143-1.8,4.627,2.1,5.712,2.1,5.712" transform="translate(-31.773 -30.023)" fill="#ffbe8a"/>
          <path id="Trazado_1000365" data-name="Trazado 1000365" d="M173.027,219.84a.126.126,0,0,0,.012.054.107.107,0,0,0,.148.05c2.173-1.15,3.2.339,3.243.4a.107.107,0,0,0,.153.029.118.118,0,0,0,.028-.16c-.011-.017-1.174-1.72-3.525-.476a.116.116,0,0,0-.06.1" transform="translate(-30.739 -31.162)" fill="#0b3327"/>
          <path id="Trazado_1000366" data-name="Trazado 1000366" d="M175.695,219a2.3,2.3,0,0,0,.01.257.112.112,0,0,0,.12.1.1.1,0,0,0,.1-.126,2.042,2.042,0,0,1,.4-1.435.119.119,0,0,0-.01-.163.107.107,0,0,0-.155.01,2.271,2.271,0,0,0-.463,1.354" transform="translate(-31.213 -30.923)" fill="#0b3327"/>
          <path id="Trazado_1000367" data-name="Trazado 1000367" d="M169.5,206.536a.109.109,0,0,0-.085,0,.119.119,0,0,0-.065.154l2.164,5.9a.112.112,0,0,0,.147.069.12.12,0,0,0,.066-.154l-2.165-5.9a.116.116,0,0,0-.062-.067" transform="translate(-30.085 -29.349)" fill="#0b3327"/>
          <path id="Trazado_1000368" data-name="Trazado 1000368" d="M173.526,210.32a.1.1,0,0,0,.055-.007.118.118,0,0,0,.063-.151l-2.833-7.513a.11.11,0,0,0-.145-.066.12.12,0,0,0-.063.152l2.833,7.513a.113.113,0,0,0,.09.073" transform="translate(-30.307 -28.787)" fill="#0b3327"/>
          <path id="Trazado_1000369" data-name="Trazado 1000369" d="M170.306,216.55a.108.108,0,0,0,.054-.006.12.12,0,0,0,.066-.15l-1.48-4.161a.11.11,0,0,0-.143-.069.118.118,0,0,0-.066.15l1.479,4.16a.113.113,0,0,0,.09.075" transform="translate(-29.976 -30.149)" fill="#0b3327"/>
          <path id="Trazado_1000370" data-name="Trazado 1000370" d="M215.95,380.748h0a.265.265,0,0,0,.254-.274l-.665-42.7a.26.26,0,0,0-.262-.265.264.264,0,0,0-.254.274l.665,42.7a.264.264,0,0,0,.258.265" transform="translate(-38.201 -47.963)" fill="#3e0091"/>
          <path id="Trazado_1000371" data-name="Trazado 1000371" d="M216.65,273.836a.255.255,0,0,0,.178-.074l8.394-8.351a.277.277,0,0,0,.009-.381.252.252,0,0,0-.365-.009l-8.394,8.351a.276.276,0,0,0-.009.38.247.247,0,0,0,.187.084" transform="translate(-38.443 -37.651)" fill="#ffd14f"/>
          <path id="Trazado_1000372" data-name="Trazado 1000372" d="M28.5,168.63l-1.66.366a13.662,13.662,0,0,0-1.982-3.052,13.184,13.184,0,0,0-2.533-2.274l.541-1.73a.583.583,0,0,0-.354-.729l-5.3-1.8a.549.549,0,0,0-.7.371l-.527,1.685a12.569,12.569,0,0,0-6.677,1.415l-1.166-1.355a.538.538,0,0,0-.783-.044l-4.144,3.883a.6.6,0,0,0-.043.816l1.132,1.314a13.981,13.981,0,0,0-2.159,6.744l-1.709.377a.577.577,0,0,0-.428.685l1.151,5.686a.555.555,0,0,0,.656.446l1.66-.366a13.628,13.628,0,0,0,1.982,3.051,13.21,13.21,0,0,0,2.532,2.275l-.541,1.73a.585.585,0,0,0,.355.729l5.3,1.8a.55.55,0,0,0,.7-.37l.527-1.685a12.557,12.557,0,0,0,6.676-1.416l1.167,1.355a.537.537,0,0,0,.782.044L27.1,184.7a.6.6,0,0,0,.042-.817l-1.132-1.314a13.969,13.969,0,0,0,2.159-6.743l1.71-.377a.578.578,0,0,0,.428-.685l-1.151-5.686a.554.554,0,0,0-.656-.446M20.69,181.455A8.041,8.041,0,0,1,9,180.8a8.9,8.9,0,0,1,.628-12.2,8.04,8.04,0,0,1,11.69.655,8.9,8.9,0,0,1-.627,12.2" transform="translate(0 -22.649)" fill="#99b8d0"/>
          <path id="Trazado_1000373" data-name="Trazado 1000373" d="M228.141,45.057a54.391,54.391,0,0,0-4.269,16.227H259.3c.361-9.294-1.215-20.855,1.61-31.7C265.5,11.955,256.568.689,246.755.028,238.2-.548,229.9,7.834,229.1,15.391c-.7,6.5,4.756,10.126,3.88,18.512-.489,4.679-2.409,5.682-4.835,11.154" transform="translate(-39.772 0)" fill="#d68351"/>
          <path id="Trazado_1000374" data-name="Trazado 1000374" d="M274.459,107.579l6-4.682L261.355,74.8l-8.513-21.166-13.369-1.314L252.3,81.64Z" transform="translate(-42.544 -7.435)" fill="#ffbe8a"/>
          <path id="Trazado_1000375" data-name="Trazado 1000375" d="M249.061,46.678l6.277,15.306L238.584,66.69l-6.449-16.611Z" transform="translate(-41.24 -6.633)" fill="#371b57"/>
          <path id="Trazado_1000376" data-name="Trazado 1000376" d="M233.382,65.406c6.229-8.349,7.538-14.673,7.5-19.5a6.7,6.7,0,0,0-.839-3.31,6.016,6.016,0,0,0-2.371-2.321l-16.61-9.172c-9.283-4.261-16.042-1.527-18.694,3.53l-15.508,27.48-2.038,3.287Z" transform="translate(-32.835 -4.122)" fill="#5c2d91"/>
          <path id="Trazado_1000377" data-name="Trazado 1000377" d="M235.555,43.718l5.057-5.557,3.732,3.9-3.83.425,1.5,3.474Z" transform="translate(-41.848 -5.423)" fill="#8c37ff"/>
          <path id="Trazado_1000378" data-name="Trazado 1000378" d="M236.379,16.245l-9.341,14.188c-.756,1.506,1.277,5.925,4.534,9.04a3.8,3.8,0,0,0,6.14-1.265l4.622-11.134Z" transform="translate(-40.306 -2.309)" fill="#ffbe8a"/>
          <path id="Trazado_1000379" data-name="Trazado 1000379" d="M240.4,36.54l2.076-5.02-5.621-8.862-.815,2.025s-.715,3.776,4.359,11.857" transform="translate(-41.927 -3.22)" fill="#e39161"/>
          <path id="Trazado_1000380" data-name="Trazado 1000380" d="M234.07,21.681l5.728,9.58a6.015,6.015,0,0,0,5,3.136,5.853,5.853,0,0,0,4.221-1.756l10.108-8.256L248.547,8.459Z" transform="translate(-41.584 -1.202)" fill="#ffbe8a"/>
          <path id="Trazado_1000381" data-name="Trazado 1000381" d="M259.344,23.353c-.36.857-15.574-4.235-16.335-8.123-1.493-7.627-7.692,2.751-7.692,2.751s.383-23.469,18.5-14.9c6.979,3.3,8.542,13.111,5.532,20.269" transform="translate(-41.805 -0.171)" fill="#d68351"/>
          <path id="Trazado_1000382" data-name="Trazado 1000382" d="M256.522,28.6a.607.607,0,0,0-.206.809.556.556,0,0,0,.776.214.606.606,0,0,0,.2-.809.554.554,0,0,0-.775-.214" transform="translate(-45.522 -4.052)" fill="#0b3332"/>
          <path id="Trazado_1000383" data-name="Trazado 1000383" d="M259.6,29.984,257.9,33.66a1,1,0,0,1-1.226.546l-1.582-.534Z" transform="translate(-45.318 -4.261)" fill="#ffbe8a"/>
          <path id="Trazado_1000384" data-name="Trazado 1000384" d="M252.453,34.285s-2.773-1.5-2.6-4.338c0,0-2.336,4.114,2.6,4.338" transform="translate(-44.29 -4.256)" fill="#fff"/>
          <path id="Trazado_1000404" data-name="Trazado 1000404" d="M0,0,.982-.021.747,11.11l-.982.021Z" transform="matrix(0.675, -0.738, 0.738, 0.675, 200.172, 13.479)" fill="#3e0091"/>
          <path id="Trazado_1000385" data-name="Trazado 1000385" d="M251.437,28.722a4.542,4.542,0,0,1,1.776-5.378h0a4.155,4.155,0,0,1,5.834,1.509,4.553,4.553,0,0,1-1.445,6.087,4.156,4.156,0,0,1-5.835-1.508,4.512,4.512,0,0,1-.331-.709m2.215-4.62a3.646,3.646,0,0,0-1.156,4.872,3.327,3.327,0,0,0,4.668,1.206,3.646,3.646,0,0,0,1.155-4.872,3.325,3.325,0,0,0-4.668-1.206" transform="translate(-44.62 -3.227)" fill="#3e0091"/>
          <path id="Trazado_1000386" data-name="Trazado 1000386" d="M239.342,12.662a3.855,3.855,0,0,0-1.305,5.147,3.528,3.528,0,0,0,4.933,1.361,3.854,3.854,0,0,0,1.3-5.146,3.527,3.527,0,0,0-4.932-1.361" transform="translate(-42.202 -1.727)" fill="#ffbe8a"/>
          <path id="Trazado_1000387" data-name="Trazado 1000387" d="M241.924,16.022a.109.109,0,0,0-.037-.062c-.021-.027-.031-.063-.054-.088a2.5,2.5,0,0,0-2.107-.595.121.121,0,0,0-.1.139.117.117,0,0,0,.134.1,2.533,2.533,0,0,1,1.715.357,1.394,1.394,0,0,0-1.454.9.122.122,0,0,0,.06.148l.013.006a.116.116,0,0,0,.148-.077,1.164,1.164,0,0,1,1.487-.69,2.372,2.372,0,0,1,.126,1.959.124.124,0,0,0,.062.142.108.108,0,0,0,.02.008.117.117,0,0,0,.143-.085,2.61,2.61,0,0,0-.159-2.158" transform="translate(-42.571 -2.167)" fill="#0b3332"/>
          <path id="Trazado_1000388" data-name="Trazado 1000388" d="M239.585,19.495a1.531,1.531,0,0,1-2.174.471,1.681,1.681,0,0,1-.451-2.268,1.53,1.53,0,0,1,2.174-.471,1.682,1.682,0,0,1,.451,2.268" transform="translate(-42.051 -2.41)" fill="#fff"/>
          <path id="Trazado_1000405" data-name="Trazado 1000405" d="M0,0,38.88-.111l-.386,130.235-38.88.111Z" transform="matrix(0.069, -0.998, 0.998, 0.069, 193.012, 131.215)" fill="#fff"/>
          <path id="Trazado_1000389" data-name="Trazado 1000389" d="M392.491,162.337l-.085,1.283-1.231-.088" transform="translate(-69.494 -23.069)" fill="none" stroke="#67dbcb" stroke-miterlimit="10" stroke-width="1"/>
          <line id="Línea_3244" data-name="Línea 3244" x1="123.691" y1="8.89" transform="translate(195.492 131.394)" fill="none" stroke="#67dbcb" stroke-miterlimit="10" stroke-width="1" stroke-dasharray="3.046 3.046"/>
          <path id="Trazado_1000390" data-name="Trazado 1000390" d="M235.939,152.826l-1.23-.088.085-1.284" transform="translate(-41.697 -21.522)" fill="none" stroke="#67dbcb" stroke-miterlimit="10" stroke-width="1"/>
          <line id="Línea_3245" data-name="Línea 3245" y1="32.606" x2="2.154" transform="translate(193.256 94.91)" fill="none" stroke="#67dbcb" stroke-miterlimit="10" stroke-width="1" stroke-dasharray="2.822 2.822"/>
          <path id="Trazado_1000391" data-name="Trazado 1000391" d="M237.721,109.011l.085-1.283,1.231.088" transform="translate(-42.232 -15.309)" fill="none" stroke="#67dbcb" stroke-miterlimit="10" stroke-width="1"/>
          <line id="Línea_3246" data-name="Línea 3246" x2="123.691" y2="8.89" transform="translate(199.303 92.687)" fill="none" stroke="#67dbcb" stroke-miterlimit="10" stroke-width="1" stroke-dasharray="3.046 3.046"/>
          <path id="Trazado_1000392" data-name="Trazado 1000392" d="M394.291,118.508l1.23.088-.085,1.284" transform="translate(-70.048 -16.841)" fill="none" stroke="#67dbcb" stroke-miterlimit="10" stroke-width="1"/>
          <line id="Línea_3247" data-name="Línea 3247" x1="2.154" y2="32.606" transform="translate(323.076 105.455)" fill="none" stroke="#67dbcb" stroke-miterlimit="10" stroke-width="1" stroke-dasharray="2.822 2.822"/>
          <path id="Trazado_1000406" data-name="Trazado 1000406" d="M0,0,4.67-.013,4.657,4.465l-4.67.013Z" transform="translate(193.186 94.589) rotate(-86.061)" fill="#fff"/>
          <path id="Trazado_1000407" data-name="Trazado 1000407" d="M0,0,4.67-.013,4.657,4.465l-4.67.013Z" transform="translate(193.186 94.589) rotate(-86.061)" fill="none" stroke="#67dbcb" stroke-width="1"/>
          <path id="Trazado_1000408" data-name="Trazado 1000408" d="M0,0,4.67-.013,4.657,4.465l-4.67.013Z" transform="translate(258.136 99.257) rotate(-86.061)" fill="#fff"/>
          <path id="Trazado_1000409" data-name="Trazado 1000409" d="M0,0,4.67-.013,4.657,4.465l-4.67.013Z" transform="translate(258.136 99.257) rotate(-86.061)" fill="none" stroke="#67dbcb" stroke-width="1"/>
          <path id="Trazado_1000410" data-name="Trazado 1000410" d="M0,0,4.67-.013,4.657,4.465l-4.67.013Z" transform="translate(323.087 103.926) rotate(-86.061)" fill="#fff"/>
          <path id="Trazado_1000411" data-name="Trazado 1000411" d="M0,0,4.67-.013,4.657,4.465l-4.67.013Z" transform="translate(323.087 103.926) rotate(-86.061)" fill="none" stroke="#67dbcb" stroke-width="1"/>
          <path id="Trazado_1000412" data-name="Trazado 1000412" d="M0,0,4.67-.013,4.657,4.465l-4.67.013Z" transform="translate(191.898 114.091) rotate(-86.061)" fill="#fff"/>
          <path id="Trazado_1000413" data-name="Trazado 1000413" d="M0,0,4.67-.013,4.657,4.465l-4.67.013Z" transform="translate(191.898 114.091) rotate(-86.061)" fill="none" stroke="#67dbcb" stroke-width="1"/>
          <path id="Trazado_1000414" data-name="Trazado 1000414" d="M0,0,4.671-.013,4.657,4.465l-4.671.013Z" transform="translate(321.799 123.428) rotate(-86.061)" fill="#fff"/>
          <path id="Trazado_1000415" data-name="Trazado 1000415" d="M0,0,4.671-.013,4.657,4.465l-4.671.013Z" transform="translate(321.799 123.428) rotate(-86.061)" fill="none" stroke="#67dbcb" stroke-width="1"/>
          <path id="Trazado_1000416" data-name="Trazado 1000416" d="M0,0,4.67-.013,4.657,4.465l-4.67.013Z" transform="translate(190.624 133.385) rotate(-86.061)" fill="#fff"/>
          <path id="Trazado_1000417" data-name="Trazado 1000417" d="M0,0,4.67-.013,4.657,4.465l-4.67.013Z" transform="translate(190.624 133.385) rotate(-86.061)" fill="none" stroke="#67dbcb" stroke-width="1"/>
          <path id="Trazado_1000418" data-name="Trazado 1000418" d="M0,0,4.671-.013,4.657,4.465l-4.671.013Z" transform="translate(255.574 138.053) rotate(-86.061)" fill="#fff"/>
          <path id="Trazado_1000419" data-name="Trazado 1000419" d="M0,0,4.671-.013,4.657,4.465l-4.671.013Z" transform="translate(255.574 138.053) rotate(-86.061)" fill="none" stroke="#67dbcb" stroke-width="1"/>
          <path id="Trazado_1000420" data-name="Trazado 1000420" d="M0,0,4.67-.013,4.657,4.465l-4.67.013Z" transform="translate(320.524 142.722) rotate(-86.061)" fill="#fff"/>
          <path id="Trazado_1000421" data-name="Trazado 1000421" d="M0,0,4.67-.013,4.657,4.465l-4.67.013Z" transform="translate(320.524 142.722) rotate(-86.061)" fill="none" stroke="#67dbcb" stroke-width="1"/>
        </g>
      </g>
      <text id="_h1_hello_world_h1_" data-name="&lt;h1&gt;hello world&lt;h1/&gt;" transform="matrix(0.998, 0.069, -0.069, 0.998, 209.398, 116.645)" fill="#9db8a9" font-size="9" font-family="Montserrat-Regular, Montserrat"><tspan x="0" y="0">&lt;</tspan><tspan y="0" letter-spacing="-0.022em">h</tspan><tspan y="0">1&gt;hello </tspan><tspan y="0" letter-spacing="-0.015em">w</tspan><tspan y="0">o</tspan><tspan y="0" letter-spacing="-0.007em">r</tspan><tspan y="0">ld&lt;</tspan><tspan y="0" letter-spacing="-0.022em">h</tspan><tspan y="0">1/&gt;</tspan></text>
      <g id="Grupo_1179324" data-name="Grupo 1179324">
        <g id="Grupo_1179323" data-name="Grupo 1179323" clip-path="url(#clip-path)">
          <path id="Trazado_1000393" data-name="Trazado 1000393" d="M241.2,106.364l5.045-6.668L228.929,75.2,224.87,58.657l-15.7,3.6,5.489,17.975Z" transform="translate(-37.16 -8.335)" fill="#ffbe8a"/>
          <path id="Trazado_1000394" data-name="Trazado 1000394" d="M253.027,119.011l6.088,4.549a1.332,1.332,0,0,1,.391.579c.231.677.465,2.647-.209,2.574-.886-.1-7.385-5.489-7.385-5.489" transform="translate(-44.754 -16.912)" fill="#ffbe8a"/>
          <path id="Trazado_1000395" data-name="Trazado 1000395" d="M255.968,108.617l.67,2.4a3.8,3.8,0,0,0,.563,1.183l3.786,4.694a2.522,2.522,0,0,1,.474,2.345c-.123.368-.33.666-.678.7-.977.1-6.036-4.863-6.036-4.863l6.84,5.906a1.078,1.078,0,0,1,.312.462c.252.709.81,2.5,0,2.417-1.009-.11-8.422-6.261-8.422-6.261" transform="translate(-45.031 -15.435)" fill="#ffbe8a"/>
          <path id="Trazado_1000396" data-name="Trazado 1000396" d="M256.2,124.4a3.837,3.837,0,0,0-.692-1.566l-3.807-3.415,2.184-4.944.781-6.358-3.042-3.023s-6.04.837-5.409,9.968a3.432,3.432,0,0,0,.623,1.743l3.07,4.332a1.375,1.375,0,0,0,.238.2c.865.573,5.145,3.955,5.548,4,.231.025.531-.569.5-.936" transform="translate(-43.734 -14.934)" fill="#ffbe8a"/>
          <path id="Trazado_1000397" data-name="Trazado 1000397" d="M256.809,111.4l-.664-2.083a.93.93,0,0,1,.455-1.135,12.791,12.791,0,0,1,1.59-.388l2.61-.364a.492.492,0,0,0,.342-.736,4.64,4.64,0,0,0-3.523-1.739l-5.427-.13Z" transform="translate(-44.803 -14.897)" fill="#ffbe8a"/>
          <path id="Trazado_1000398" data-name="Trazado 1000398" d="M254.756,116.159a.137.137,0,0,1,.028-.094.122.122,0,0,1,.178-.019l5.367,4.543a.136.136,0,0,1,.018.185.121.121,0,0,1-.177.019L254.8,116.25a.131.131,0,0,1-.047-.091" transform="translate(-45.259 -16.487)" fill="#0b3332"/>
          <path id="Trazado_1000399" data-name="Trazado 1000399" d="M253.4,118.816a.136.136,0,0,1,.028-.094.122.122,0,0,1,.178-.019l6.123,5.183a.135.135,0,0,1,.019.185.122.122,0,0,1-.178.019l-6.123-5.183a.128.128,0,0,1-.047-.091" transform="translate(-45.018 -16.864)" fill="#0b3332"/>
          <path id="Trazado_1000400" data-name="Trazado 1000400" d="M252.01,121.529a.136.136,0,0,1,.028-.094.122.122,0,0,1,.178-.019l4.583,3.879a.135.135,0,0,1,.019.185.122.122,0,0,1-.178.02l-4.583-3.879a.128.128,0,0,1-.047-.091" transform="translate(-44.771 -17.25)" fill="#0b3332"/>
          <line id="Línea_3248" data-name="Línea 3248" x1="2.956" y1="12.499" transform="translate(169.055 41.261)" fill="none" stroke="#ffd14f" stroke-linecap="round" stroke-miterlimit="10" stroke-width="0.5"/>
          <line id="Línea_3249" data-name="Línea 3249" x1="2.956" y1="12.499" transform="translate(184.613 37.822)" fill="none" stroke="#ffd14f" stroke-linecap="round" stroke-miterlimit="10" stroke-width="0.5"/>
          <line id="Línea_3250" data-name="Línea 3250" y1="6.336" x2="3.451" transform="translate(203.638 50.321)" fill="none" stroke="#ffd14f" stroke-linecap="round" stroke-miterlimit="10" stroke-width="0.5"/>
          <path id="Trazado_1000401" data-name="Trazado 1000401" d="M226.535,31.116l-7.2,2.38,6.359,4.822-2.632,2.394,9.607,2.006L230.348,40.4a13.1,13.1,0,0,1-3.812-9.287" transform="translate(-38.967 -4.422)" fill="#8c37ff"/>
        </g>
      </g>
    </g>
  </g>
</svg>
