<svg xmlns="http://www.w3.org/2000/svg" width="90" height="91" viewBox="0 0 90 91">
  <g id="Grupo_1179602" data-name="Grupo 1179602" transform="translate(-1233.833 -514)">
    <g id="Grupo_1178475" data-name="Grupo 1178475" transform="translate(35)">
      <g id="Rectángulo_455827" data-name="Rectángulo 455827" transform="translate(1198.833 514)" fill="#fff" stroke="#e5edf3" stroke-width="5">
        <rect width="90" height="91" rx="20" stroke="none"/>
        <rect x="2.5" y="2.5" width="85" height="86" rx="17.5" fill="none"/>
      </g>
      <g id="Grupo_1179594" data-name="Grupo 1179594" transform="translate(1212.627 522.992)">
        <path id="Trazado_1001642" data-name="Trazado 1001642" d="M59.591,22.3V51.971a3.51,3.51,0,0,1-3.5,3.5H7.016a3.51,3.51,0,0,1-3.5-3.5V22.3a3.452,3.452,0,0,1,.128-.923,3.5,3.5,0,0,1,3.376-2.582H56.086a3.5,3.5,0,0,1,3.376,2.582A3.452,3.452,0,0,1,59.591,22.3Z" transform="translate(0 4.624)" fill="#ffc536"/>
        <path id="Trazado_1001643" data-name="Trazado 1001643" d="M58.31,52.3a3.48,3.48,0,0,1-2.465,1.016H6.775A3.459,3.459,0,0,1,4.31,52.3L22.08,34.969l9.23-9,9.23,9Z" transform="translate(0.241 6.788)" fill="#f2a916"/>
        <path id="Trazado_1001644" data-name="Trazado 1001644" d="M59.432,21.373,42,38.36,35.19,45a5.247,5.247,0,0,1-7.337,0L21.041,38.36,3.61,21.373a3.5,3.5,0,0,1,3.376-2.582H56.056a3.5,3.5,0,0,1,3.376,2.582Z" transform="translate(0.03 4.624)" opacity="0.1"/>
        <path id="Trazado_1001645" data-name="Trazado 1001645" d="M58.31,19.807,40.54,37.134l-6.783,6.612a3.5,3.5,0,0,1-4.893,0L22.08,37.134,4.31,19.807a3.508,3.508,0,0,1,2.465-1.016H55.845A3.529,3.529,0,0,1,58.31,19.807Z" transform="translate(0.241 4.624)" fill="#ffc536"/>
        <circle id="Elipse_13677" data-name="Elipse 13677" cx="10.851" cy="10.851" r="10.851" transform="translate(38.324 11.76) rotate(-22.514)" fill="#17be66"/>
        <path id="Trazado_1001646" data-name="Trazado 1001646" d="M48.765,9.9,41.85,16.817l-6.728-2.354Z" transform="translate(9.526 1.945)" fill="#ededed"/>
        <path id="Trazado_1001647" data-name="Trazado 1001647" d="M47.207,9.9l-6.914,6.915,2.354,6.728Z" transform="translate(11.084 1.945)" fill="#dbdbdb"/>
      </g>
    </g>
  </g>
</svg>
