<svg xmlns="http://www.w3.org/2000/svg" xmlns:xlink="http://www.w3.org/1999/xlink" width="123" height="130" viewBox="0 0 123 130">
  <defs>
    <linearGradient id="linear-gradient" x1="0.085" y1="1.113" x2="1.067" y2="0.07" gradientUnits="objectBoundingBox">
      <stop offset="0" stop-color="#fff"/>
      <stop offset="1" stop-color="#e8efee"/>
    </linearGradient>
    <linearGradient id="linear-gradient-2" x1="0.936" y1="-8.083" x2="-0.054" y2="-9.223" gradientUnits="objectBoundingBox">
      <stop offset="0" stop-color="#c2cece" stop-opacity="0"/>
      <stop offset="0.179" stop-color="#afbcbc" stop-opacity="0.18"/>
      <stop offset="1" stop-color="#5b6a6a"/>
    </linearGradient>
    <linearGradient id="linear-gradient-3" x1="0.771" y1="0.781" x2="-0.083" y2="1.568" xlink:href="#linear-gradient-2"/>
    <linearGradient id="linear-gradient-4" x1="0.463" y1="0.122" x2="0.463" y2="-0.454" gradientUnits="objectBoundingBox">
      <stop offset="0" stop-color="#ffc200"/>
      <stop offset="0.268" stop-color="#fb0"/>
      <stop offset="0.659" stop-color="#ffa801"/>
      <stop offset="1" stop-color="#ff9102"/>
    </linearGradient>
    <linearGradient id="linear-gradient-5" x1="0.462" y1="-0.977" x2="0.462" y2="-1.276" xlink:href="#linear-gradient-4"/>
    <linearGradient id="linear-gradient-6" x1="0.133" y1="2.542" x2="0.522" y2="1.616" gradientUnits="objectBoundingBox">
      <stop offset="0" stop-color="#d63305"/>
      <stop offset="0.366" stop-color="#cf3004"/>
      <stop offset="0.899" stop-color="#bc2602"/>
      <stop offset="1" stop-color="#b72401"/>
    </linearGradient>
    <linearGradient id="linear-gradient-7" x1="0.223" y1="0.976" x2="-0.501" y2="1.746" xlink:href="#linear-gradient-2"/>
  </defs>
  <g id="Grupo_1179601" data-name="Grupo 1179601" transform="translate(-1155.833 -173)">
    <g id="Grupo_1178476" data-name="Grupo 1178476" transform="translate(325 -46)">
      <g id="Rectángulo_455829" data-name="Rectángulo 455829" transform="translate(830.833 219)" fill="#fff" stroke="#e5edf3" stroke-width="5">
        <rect width="123" height="130" rx="20" stroke="none"/>
        <rect x="2.5" y="2.5" width="118" height="125" rx="17.5" fill="none"/>
      </g>
      <g id="Grupo_1179588" data-name="Grupo 1179588" transform="translate(858.363 250.335)">
        <path id="Trazado_1001618" data-name="Trazado 1001618" d="M32.228,2.386.351,28.144v4.8H67.589v-4.8L35.711,2.386A2.771,2.771,0,0,0,32.228,2.386Z" transform="translate(0 -1.538)" fill="#ff9102"/>
        <path id="Trazado_1001619" data-name="Trazado 1001619" d="M80.346,58.029H24.192a2.771,2.771,0,0,1-2.771-2.771V2.771A2.771,2.771,0,0,1,24.192,0H80.346a2.771,2.771,0,0,1,2.771,2.771V55.258A2.771,2.771,0,0,1,80.346,58.029Z" transform="translate(-18.299)" fill="url(#linear-gradient)"/>
        <path id="Trazado_1001620" data-name="Trazado 1001620" d="M83.118,408.463v1.079a3.237,3.237,0,0,1-3.236,3.236H24.658a3.237,3.237,0,0,1-3.236-3.236v-1.079Z" transform="translate(-18.3 -354.748)" fill="url(#linear-gradient-2)"/>
        <g id="Grupo_1179587" data-name="Grupo 1179587" transform="translate(16.144 8.774)">
          <rect id="Rectángulo_456381" data-name="Rectángulo 456381" width="35.651" height="2.032" fill="#c2cece"/>
          <rect id="Rectángulo_456382" data-name="Rectángulo 456382" width="35.651" height="2.032" transform="translate(0 8.127)" fill="#c2cece"/>
          <rect id="Rectángulo_456383" data-name="Rectángulo 456383" width="35.651" height="2.032" transform="translate(0 16.44)" fill="#c2cece"/>
          <rect id="Rectángulo_456384" data-name="Rectángulo 456384" width="35.651" height="2.032" transform="translate(0 24.752)" fill="#c2cece"/>
        </g>
        <path id="Trazado_1001621" data-name="Trazado 1001621" d="M372.194,182.637a11.313,11.313,0,0,1-7.266-2.629l-.769.135,16.625,16.625V178.707A11.331,11.331,0,0,1,372.194,182.637Z" transform="translate(-315.966 -155.206)" fill="url(#linear-gradient-3)"/>
        <path id="Trazado_1001622" data-name="Trazado 1001622" d="M67.589,202.791v37.891a2.772,2.772,0,0,1-2.771,2.771H3.122a2.772,2.772,0,0,1-2.771-2.771V202.791L34.339,229.6Z" transform="translate(0 -176.123)" fill="url(#linear-gradient-4)"/>
        <path id="Trazado_1001623" data-name="Trazado 1001623" d="M71.427,331.61l-31.137-25.1a2.771,2.771,0,0,0-3.478,0L5.2,331.993a2.765,2.765,0,0,0,2.133,1h61.7A2.767,2.767,0,0,0,71.427,331.61Z" transform="translate(-4.212 -265.666)" fill="url(#linear-gradient-5)"/>
        <circle id="Elipse_13676" data-name="Elipse 13676" cx="11.36" cy="11.36" r="11.36" transform="translate(44.868 5.634)" fill="url(#linear-gradient-6)"/>
        <path id="Trazado_1001624" data-name="Trazado 1001624" d="M405.781,73.283a1.015,1.015,0,0,1,.446-.872l2.211-2.126a.781.781,0,0,1,.574-.234,1.234,1.234,0,0,1,.691.2.621.621,0,0,1,.308.542V84.871a.611.611,0,0,1-.34.542,1.654,1.654,0,0,1-1.584,0,.612.612,0,0,1-.33-.542V73.049l-.744.936a.65.65,0,0,1-.468.213A.667.667,0,0,1,406,73.91,1,1,0,0,1,405.781,73.283Z" transform="translate(-352.114 -60.839)" fill="#fff"/>
        <path id="Trazado_1001625" data-name="Trazado 1001625" d="M22.285,56.122V3.635A2.771,2.771,0,0,1,25.056.864H81.21a2.754,2.754,0,0,1,1.477.43A2.766,2.766,0,0,0,80.346,0H24.192a2.771,2.771,0,0,0-2.771,2.771V55.258A2.766,2.766,0,0,0,22.714,57.6,2.755,2.755,0,0,1,22.285,56.122Z" transform="translate(-18.299 0)" fill="url(#linear-gradient-7)"/>
      </g>
    </g>
  </g>
</svg>
